<svg width="15" height="13" viewBox="0 0 15 13" fill="none" xmlns="http://www.w3.org/2000/svg">
<path d="M2.625 5C2.625 4.69531 2.36719 4.4375 2.0625 4.4375H0.5625C0.234375 4.4375 0 4.69531 0 5C0 5.32812 0.234375 5.5625 0.5625 5.5625H2.0625C2.36719 5.5625 2.625 5.32812 2.625 5ZM1.19531 2.02344L2.50781 2.77344C2.57812 2.82031 2.69531 2.86719 2.78906 2.86719C3.09375 2.86719 3.35156 2.60938 3.35156 2.30469C3.35156 2.11719 3.21094 1.90625 3.07031 1.8125L1.75781 1.0625C1.6875 1.01562 1.54688 0.96875 1.47656 0.96875C1.17188 0.96875 0.914062 1.22656 0.914062 1.53125C0.914062 1.71875 1.03125 1.92969 1.19531 2.02344ZM12.1875 2.84375C12.2812 2.84375 12.3984 2.82031 12.4688 2.77344L13.7812 2.02344C13.9219 1.92969 14.0391 1.71875 14.0391 1.55469C14.0391 1.22656 13.8047 0.992188 13.4766 0.992188C13.4062 0.992188 13.2891 1.01562 13.2188 1.0625L11.9062 1.8125C11.7656 1.90625 11.625 2.11719 11.625 2.28125C11.625 2.60938 11.8828 2.84375 12.1875 2.84375ZM7.5 12.5C8.32031 12.5 9 11.8438 9 11H6C6 11.8438 6.65625 12.5 7.5 12.5ZM14.4375 4.4375H12.9375C12.6094 4.4375 12.375 4.69531 12.375 5C12.375 5.32812 12.6094 5.5625 12.9375 5.5625H14.4375C14.7422 5.5625 15 5.32812 15 5C15 4.69531 14.7422 4.4375 14.4375 4.4375ZM11.2266 5.375C11.2266 3.57031 9.96094 2.11719 8.22656 1.74219V1.25C8.22656 0.851562 7.89844 0.5 7.47656 0.5C7.07812 0.5 6.72656 0.851562 6.72656 1.25V1.74219C5.01562 2.11719 3.75 3.57031 3.75 5.375C3.75 7.78906 2.88281 8.51562 2.4375 9.00781C2.32031 9.125 2.25 9.33594 2.25 9.5C2.25 9.89844 2.55469 10.25 3 10.25H11.9766C12.4453 10.25 12.7266 9.89844 12.75 9.5C12.75 9.33594 12.6562 9.125 12.5391 9.00781C12.0938 8.51562 11.2266 7.78906 11.2266 5.375Z" fill="#558FFF"/>
</svg>
