<svg width="64" height="31" viewBox="0 0 64 31" fill="none" xmlns="http://www.w3.org/2000/svg">
<g clip-path="url(#clip0_396_227)">
<path d="M18.2076 29.8764C17.852 30.2319 17.4299 30.514 16.9654 30.7064C16.5009 30.8988 16.003 30.9979 15.5002 30.9979C14.9973 30.9979 14.4995 30.8988 14.0349 30.7064C13.5704 30.514 13.1483 30.2319 12.7927 29.8764L1.12243 18.2069C0.766889 17.8514 0.484855 17.4293 0.292434 16.9648C0.100014 16.5002 0.000976562 16.0023 0.000976562 15.4995C0.000976562 14.9967 0.100014 14.4988 0.292434 14.0343C0.484855 13.5697 0.766889 13.1477 1.12243 12.7921L12.7927 1.11755C13.1483 0.762006 13.5704 0.479972 14.0349 0.287552C14.4995 0.0951314 14.9973 -0.00390625 15.5002 -0.00390625C16.003 -0.00390625 16.5009 0.0951314 16.9654 0.287552C17.4299 0.479972 17.852 0.762006 18.2076 1.11755L29.8787 12.7921C30.2343 13.1477 30.5163 13.5697 30.7087 14.0343C30.9012 14.4988 31.0002 14.9967 31.0002 15.4995C31.0002 16.0023 30.9012 16.5002 30.7087 16.9648C30.5163 17.4293 30.2343 17.8514 29.8787 18.2069L18.2076 29.8764Z" fill="url(#paint0_radial_396_227)"/>
<path d="M18.0255 29.0457C17.3472 29.7236 16.4276 30.1043 15.4687 30.1043C14.5098 30.1043 13.5901 29.7236 12.9118 29.0457L1.89159 18.0255C1.55576 17.6898 1.28935 17.2912 1.10759 16.8525C0.925828 16.4137 0.832275 15.9435 0.832275 15.4687C0.832275 14.9938 0.925828 14.5236 1.10759 14.0849C1.28935 13.6462 1.55576 13.2476 1.89159 12.9118L12.9118 1.89159C13.2476 1.55576 13.6462 1.28935 14.0849 1.10759C14.5236 0.925827 14.9938 0.832275 15.4687 0.832275C15.9435 0.832275 16.4137 0.925827 16.8525 1.10759C17.2912 1.28935 17.6898 1.55576 18.0255 1.89159L29.0466 12.9136C29.7244 13.5918 30.1052 14.5115 30.1052 15.4704C30.1052 16.4293 29.7244 17.3489 29.0466 18.0272L18.0255 29.0457Z" fill="url(#paint1_linear_396_227)"/>
<path d="M28.0279 12.842L18.158 2.97211C17.8097 2.62199 17.3954 2.34441 16.9392 2.15542C16.4829 1.96644 15.9937 1.8698 15.4999 1.87111C15.0061 1.86989 14.5169 1.96657 14.0606 2.15555C13.6044 2.34453 13.1902 2.62207 12.8418 2.97211L2.97192 12.842C2.26778 13.5474 1.87231 14.5034 1.87231 15.5001C1.87231 16.4968 2.26778 17.4527 2.97192 18.1581L12.8418 28.028C13.1902 28.3781 13.6044 28.6556 14.0606 28.8446C14.5169 29.0336 15.0061 29.1303 15.4999 29.1291C15.9937 29.1304 16.4829 29.0338 16.9392 28.8448C17.3955 28.6558 17.8097 28.3782 18.158 28.028L28.0279 18.1581C28.732 17.4527 29.1275 16.4968 29.1275 15.5001C29.1275 14.5034 28.732 13.5474 28.0279 12.842ZM27.291 17.4213L17.4211 27.2912C17.1697 27.5449 16.8704 27.7461 16.5406 27.8833C16.2108 28.0204 15.8571 28.0907 15.4999 28.0902C15.143 28.0911 14.7894 28.0213 14.4596 27.8847C14.1299 27.7482 13.8304 27.5476 13.5787 27.2946L3.70876 17.4247C3.20061 16.9144 2.91531 16.2236 2.91531 15.5035C2.91531 14.7833 3.20061 14.0925 3.70876 13.5823L13.5787 3.71235C13.8302 3.45876 14.1295 3.25756 14.4592 3.12042C14.789 2.98328 15.1427 2.91292 15.4999 2.9134C15.8568 2.91238 16.2104 2.98216 16.5402 3.11872C16.87 3.25528 17.1694 3.45589 17.4211 3.70895L27.291 13.5789C27.7992 14.0891 28.0845 14.7799 28.0845 15.5001C28.0845 16.2202 27.7992 16.911 27.291 17.4213Z" fill="#1F140F"/>
<path d="M15.916 3.41529C16.0559 3.4765 16.1823 3.56473 16.288 3.67492C16.3937 3.7851 16.4765 3.91507 16.5319 4.05736C16.5872 4.19966 16.6139 4.35148 16.6104 4.50411C16.607 4.65675 16.5734 4.8072 16.5116 4.94682C16.3879 5.22717 16.1583 5.44717 15.8729 5.55877C15.5876 5.67036 15.2696 5.66449 14.9886 5.54242C14.7066 5.41825 14.4854 5.18716 14.3737 4.89996C14.262 4.61276 14.269 4.29297 14.393 4.01088C14.517 3.73085 14.7467 3.51114 15.0319 3.39959C15.3171 3.28804 15.6349 3.29368 15.916 3.41529Z" fill="url(#paint2_linear_396_227)"/>
<path d="M15.8402 3.60926C15.9549 3.65902 16.0587 3.73091 16.1455 3.82083C16.2324 3.91075 16.3007 4.01692 16.3464 4.13327C16.3922 4.24961 16.4146 4.37384 16.4122 4.49884C16.4099 4.62384 16.3829 4.74716 16.3329 4.86172C16.2829 4.97626 16.2109 5.07985 16.121 5.16656C16.031 5.25328 15.9248 5.32141 15.8085 5.36708C15.6922 5.41275 15.568 5.43506 15.4431 5.43273C15.3182 5.4304 15.1949 5.40348 15.0804 5.35351C14.9659 5.30367 14.8623 5.23175 14.7756 5.14186C14.6889 5.05197 14.6208 4.94588 14.5751 4.82964C14.5294 4.7134 14.5071 4.5893 14.5094 4.46443C14.5118 4.33956 14.5387 4.21637 14.5886 4.10191C14.6383 3.98724 14.7101 3.88351 14.7999 3.79666C14.8898 3.7098 14.9959 3.64153 15.1122 3.59577C15.2284 3.55 15.3526 3.52763 15.4775 3.52995C15.6025 3.53226 15.7257 3.55922 15.8402 3.60926Z" fill="url(#paint3_linear_396_227)"/>
<path d="M15.7646 3.78384C15.9493 3.86481 16.0942 4.01578 16.1676 4.20356C16.241 4.39134 16.2368 4.60058 16.156 4.78529C16.0743 4.96932 15.9234 5.11376 15.736 5.18733C15.5485 5.2609 15.3397 5.25769 15.1546 5.17839C14.9707 5.09774 14.8263 4.94753 14.7529 4.76062C14.6796 4.57372 14.6832 4.36537 14.7632 4.18119C14.8024 4.08902 14.8596 4.00554 14.9313 3.93559C15.003 3.86564 15.0879 3.8106 15.181 3.77366C15.2742 3.73671 15.3737 3.71858 15.4739 3.72033C15.574 3.72208 15.6729 3.74366 15.7646 3.78384Z" fill="url(#paint4_radial_396_227)"/>
<path d="M15.9859 4.63542L15.9314 4.7622L14.9036 4.31465L14.9597 4.18787L15.9859 4.63542ZM15.7306 3.98792L15.6038 3.93262L15.4073 4.38442L15.5349 4.43887L15.7306 3.98792ZM15.4753 4.5648L15.3486 4.51035L15.1512 4.9596L15.2788 5.01575L15.4753 4.5648Z" fill="#5C5B5F"/>
<path d="M15.9161 24.9155C16.1975 25.0392 16.4183 25.2695 16.53 25.5559C16.6417 25.8422 16.6351 26.1612 16.5117 26.4428C16.3892 26.7246 16.1597 26.9462 15.8737 27.0589C15.5878 27.1715 15.2688 27.166 14.987 27.0435C14.7061 26.9194 14.4857 26.6892 14.3741 26.4032C14.2625 26.1171 14.2687 25.7985 14.3914 25.517C14.5139 25.2352 14.7434 25.0135 15.0293 24.9007C15.3152 24.788 15.6341 24.7933 15.9161 24.9155Z" fill="url(#paint5_linear_396_227)"/>
<path d="M15.8404 25.1121C15.9552 25.1619 16.0589 25.2339 16.1458 25.3239C16.2327 25.4139 16.3009 25.5201 16.3467 25.6365C16.3925 25.7529 16.4148 25.8772 16.4125 26.0023C16.4101 26.1274 16.3831 26.2507 16.3331 26.3654C16.2832 26.4799 16.2111 26.5835 16.1212 26.6702C16.0312 26.7569 15.925 26.8249 15.8086 26.8705C15.6923 26.9161 15.5681 26.9384 15.4432 26.9359C15.3183 26.9335 15.1951 26.9064 15.0806 26.8563C14.9661 26.8066 14.8626 26.7347 14.7759 26.6449C14.6892 26.5551 14.6211 26.4491 14.5754 26.3329C14.5297 26.2167 14.5074 26.0927 14.5097 25.9679C14.512 25.8431 14.5389 25.72 14.5888 25.6055C14.6384 25.4908 14.7102 25.387 14.8 25.3C14.8898 25.2131 14.9959 25.1448 15.1121 25.0989C15.2284 25.0531 15.3526 25.0306 15.4776 25.0329C15.6026 25.0351 15.7259 25.062 15.8404 25.1121Z" fill="url(#paint6_linear_396_227)"/>
<path d="M15.7647 25.2823C15.9491 25.3643 16.0936 25.5158 16.1669 25.7038C16.2402 25.8918 16.2363 26.1012 16.1561 26.2863C16.0745 26.4705 15.9237 26.6151 15.7362 26.6889C15.5488 26.7626 15.3398 26.7595 15.1547 26.6803C15.0628 26.6405 14.9798 26.583 14.9102 26.511C14.8407 26.4391 14.786 26.3541 14.7494 26.261C14.7128 26.1678 14.695 26.0684 14.6969 25.9683C14.6989 25.8683 14.7205 25.7696 14.7607 25.678C14.8003 25.5858 14.8578 25.5023 14.9298 25.4325C15.0018 25.3626 15.0869 25.3077 15.1803 25.2709C15.2736 25.2341 15.3733 25.2162 15.4736 25.2182C15.5739 25.2201 15.6729 25.2419 15.7647 25.2823Z" fill="url(#paint7_radial_396_227)"/>
<path d="M15.9859 26.1331L15.9314 26.2599L14.9036 25.8132L14.9597 25.6856L15.9859 26.1331ZM15.7306 25.4856L15.6038 25.4312L15.4073 25.8821L15.5349 25.9366L15.7306 25.4856ZM15.4753 26.0633L15.3486 26.008L15.1512 26.4581L15.2788 26.5134L15.4753 26.0633Z" fill="#5C5B5F"/>
<g clip-path="url(#clip1_396_227)">
<path d="M9.889 14.0949L10.1938 13.5625C10.2075 13.5391 10.2299 13.522 10.2562 13.515C10.2824 13.508 10.3104 13.5117 10.3339 13.5252L10.9859 13.9059L11.9928 11.1256C12.046 10.9598 12.1505 10.815 12.2913 10.7124C12.432 10.6098 12.6018 10.5546 12.776 10.5547H18.348C18.7942 10.5547 19.1903 10.8427 19.3279 11.2684L20.2872 13.9072L20.9405 13.5265C20.964 13.513 20.992 13.5093 21.0182 13.5163C21.0445 13.5232 21.0669 13.5403 21.0806 13.5638L21.3854 14.0949C21.4137 14.1438 21.397 14.2055 21.3481 14.2338L20.5714 14.6864L20.7579 15.2008C20.7733 15.242 20.781 15.2857 20.781 15.3294V19.8071C20.781 20.009 20.6293 20.1723 20.4428 20.1723H19.5735C19.4153 20.1723 19.2777 20.0527 19.2443 19.8855L19.1453 19.4007H12.1291L12.0301 19.8855C11.9954 20.0527 11.8591 20.1723 11.7009 20.1723H10.8316C10.6451 20.1723 10.4934 20.009 10.4934 19.8071V15.3294C10.4934 15.2857 10.5011 15.242 10.5165 15.2008L10.703 14.6864L9.92758 14.2338C9.90424 14.2203 9.88712 14.1982 9.8799 14.1722C9.87269 14.1463 9.87595 14.1185 9.889 14.0949ZM18.8264 16.7645C19.1106 16.7645 19.3407 16.5344 19.3407 16.2502C19.3407 15.966 19.1106 15.7358 18.8264 15.7358C18.5422 15.7358 18.312 15.966 18.312 16.2502C18.312 16.5344 18.5422 16.7645 18.8264 16.7645ZM13.8369 17.729C13.8369 17.7856 13.8832 17.8319 13.9397 17.8319H17.3347C17.3912 17.8319 17.4375 17.7856 17.4375 17.729V16.6488C17.4375 16.5922 17.3912 16.5459 17.3347 16.5459H16.8203C16.7637 16.5459 16.7174 16.5922 16.7174 16.6488V17.1118H14.557V16.6488C14.557 16.5922 14.5107 16.5459 14.4541 16.5459H13.9397C13.8832 16.5459 13.8369 16.5922 13.8369 16.6488V17.729ZM12.448 16.7645C12.7322 16.7645 12.9624 16.5344 12.9624 16.2502C12.9624 15.966 12.7322 15.7358 12.448 15.7358C12.1638 15.7358 11.9337 15.966 11.9337 16.2502C11.9337 16.5344 12.1638 16.7645 12.448 16.7645ZM19.3922 14.1541L18.4573 11.5834L18.4509 11.5667L18.4457 11.55C18.4316 11.5076 18.393 11.4793 18.348 11.4793H12.8493L11.8797 14.1541H19.3922Z" fill="black"/>
</g>
</g>
<g clip-path="url(#clip2_396_227)">
<path d="M51.2076 29.8766C50.852 30.2322 50.4299 30.5142 49.9654 30.7066C49.5009 30.8991 49.003 30.9981 48.5002 30.9981C47.9973 30.9981 47.4995 30.8991 47.0349 30.7066C46.5704 30.5142 46.1483 30.2322 45.7927 29.8766L34.1224 18.2072C33.7669 17.8516 33.4849 17.4296 33.2924 16.965C33.1 16.5005 33.001 16.0026 33.001 15.4998C33.001 14.997 33.1 14.4991 33.2924 14.0345C33.4849 13.57 33.7669 13.1479 34.1224 12.7924L45.7927 1.1178C46.1483 0.76225 46.5704 0.480216 47.0349 0.287796C47.4995 0.0953755 47.9973 -0.00366211 48.5002 -0.00366211C49.003 -0.00366211 49.5009 0.0953755 49.9654 0.287796C50.4299 0.480216 50.852 0.76225 51.2076 1.1178L62.8787 12.7924C63.2343 13.1479 63.5163 13.57 63.7087 14.0345C63.9012 14.4991 64.0002 14.997 64.0002 15.4998C64.0002 16.0026 63.9012 16.5005 63.7087 16.965C63.5163 17.4296 63.2343 17.8516 62.8787 18.2072L51.2076 29.8766Z" fill="url(#paint8_radial_396_227)"/>
<path d="M51.0255 29.0457C50.3472 29.7236 49.4276 30.1043 48.4687 30.1043C47.5098 30.1043 46.5901 29.7236 45.9118 29.0457L34.8916 18.0255C34.5558 17.6898 34.2893 17.2912 34.1076 16.8525C33.9258 16.4137 33.8323 15.9435 33.8323 15.4687C33.8323 14.9938 33.9258 14.5236 34.1076 14.0849C34.2893 13.6462 34.5558 13.2476 34.8916 12.9118L45.9118 1.89159C46.2476 1.55576 46.6462 1.28935 47.0849 1.10759C47.5236 0.925827 47.9938 0.832275 48.4687 0.832275C48.9435 0.832275 49.4137 0.925827 49.8525 1.10759C50.2912 1.28935 50.6898 1.55576 51.0255 1.89159L62.0466 12.9136C62.7244 13.5918 63.1052 14.5115 63.1052 15.4704C63.1052 16.4293 62.7244 17.3489 62.0466 18.0272L51.0255 29.0457Z" fill="url(#paint9_linear_396_227)"/>
<path d="M61.0279 12.842L51.158 2.97211C50.8097 2.62199 50.3954 2.34441 49.9392 2.15542C49.4829 1.96644 48.9937 1.8698 48.4999 1.87111C48.0061 1.86989 47.5169 1.96657 47.0606 2.15555C46.6044 2.34453 46.1902 2.62207 45.8418 2.97211L35.9719 12.842C35.2678 13.5474 34.8723 14.5034 34.8723 15.5001C34.8723 16.4968 35.2678 17.4527 35.9719 18.1581L45.8418 28.028C46.1902 28.3781 46.6044 28.6556 47.0606 28.8446C47.5169 29.0336 48.0061 29.1303 48.4999 29.1291C48.9937 29.1304 49.4829 29.0338 49.9392 28.8448C50.3955 28.6558 50.8097 28.3782 51.158 28.028L61.0279 18.1581C61.732 17.4527 62.1275 16.4968 62.1275 15.5001C62.1275 14.5034 61.732 13.5474 61.0279 12.842ZM60.291 17.4213L50.4211 27.2912C50.1697 27.5449 49.8704 27.7461 49.5406 27.8833C49.2108 28.0204 48.8571 28.0907 48.4999 28.0902C48.143 28.0911 47.7894 28.0213 47.4596 27.8847C47.1299 27.7482 46.8304 27.5476 46.5787 27.2946L36.7088 17.4247C36.2006 16.9144 35.9153 16.2236 35.9153 15.5035C35.9153 14.7833 36.2006 14.0925 36.7088 13.5823L46.5787 3.71235C46.8302 3.45876 47.1295 3.25756 47.4592 3.12042C47.789 2.98328 48.1427 2.91292 48.4999 2.9134C48.8568 2.91238 49.2104 2.98216 49.5402 3.11872C49.87 3.25528 50.1694 3.45589 50.4211 3.70895L60.291 13.5789C60.7992 14.0891 61.0845 14.7799 61.0845 15.5001C61.0845 16.2202 60.7992 16.911 60.291 17.4213Z" fill="#1F140F"/>
<path d="M48.916 3.41529C49.0559 3.4765 49.1823 3.56473 49.288 3.67492C49.3937 3.7851 49.4765 3.91507 49.5319 4.05736C49.5872 4.19966 49.6139 4.35148 49.6104 4.50411C49.607 4.65675 49.5734 4.8072 49.5116 4.94682C49.3879 5.22717 49.1583 5.44717 48.8729 5.55877C48.5876 5.67036 48.2696 5.66449 47.9886 5.54242C47.7066 5.41825 47.4854 5.18716 47.3737 4.89996C47.262 4.61276 47.269 4.29297 47.393 4.01088C47.517 3.73085 47.7467 3.51114 48.0319 3.39959C48.3171 3.28804 48.6349 3.29368 48.916 3.41529Z" fill="url(#paint10_linear_396_227)"/>
<path d="M48.8402 3.60926C48.9549 3.65902 49.0587 3.73091 49.1455 3.82083C49.2324 3.91075 49.3007 4.01692 49.3464 4.13327C49.3922 4.24961 49.4146 4.37384 49.4122 4.49884C49.4099 4.62384 49.3829 4.74716 49.3329 4.86172C49.2829 4.97626 49.2109 5.07985 49.121 5.16656C49.031 5.25328 48.9248 5.32141 48.8085 5.36708C48.6922 5.41275 48.568 5.43506 48.4431 5.43273C48.3182 5.4304 48.1949 5.40348 48.0804 5.35351C47.9659 5.30367 47.8623 5.23175 47.7756 5.14186C47.6889 5.05197 47.6208 4.94588 47.5751 4.82964C47.5294 4.7134 47.5071 4.5893 47.5094 4.46443C47.5118 4.33956 47.5387 4.21637 47.5886 4.10191C47.6383 3.98724 47.7101 3.88351 47.7999 3.79666C47.8898 3.7098 47.9959 3.64153 48.1122 3.59577C48.2284 3.55 48.3526 3.52763 48.4775 3.52995C48.6025 3.53226 48.7257 3.55922 48.8402 3.60926Z" fill="url(#paint11_linear_396_227)"/>
<path d="M48.7646 3.78384C48.9493 3.86481 49.0942 4.01578 49.1676 4.20356C49.241 4.39134 49.2368 4.60058 49.156 4.78529C49.0743 4.96932 48.9234 5.11376 48.736 5.18733C48.5485 5.2609 48.3397 5.25769 48.1546 5.17839C47.9707 5.09774 47.8263 4.94753 47.7529 4.76062C47.6796 4.57372 47.6832 4.36537 47.7632 4.18119C47.8024 4.08902 47.8596 4.00554 47.9313 3.93559C48.003 3.86564 48.0879 3.8106 48.181 3.77366C48.2742 3.73671 48.3737 3.71858 48.4739 3.72033C48.574 3.72208 48.6729 3.74366 48.7646 3.78384Z" fill="url(#paint12_radial_396_227)"/>
<path d="M48.9859 4.63542L48.9314 4.7622L47.9036 4.31465L47.9597 4.18787L48.9859 4.63542ZM48.7306 3.98792L48.6038 3.93262L48.4073 4.38442L48.5349 4.43887L48.7306 3.98792ZM48.4753 4.5648L48.3486 4.51035L48.1512 4.9596L48.2788 5.01575L48.4753 4.5648Z" fill="#5C5B5F"/>
<path d="M48.9161 24.9155C49.1975 25.0392 49.4183 25.2695 49.53 25.5559C49.6417 25.8422 49.6351 26.1612 49.5117 26.4428C49.3892 26.7246 49.1597 26.9462 48.8737 27.0589C48.5878 27.1715 48.2688 27.166 47.987 27.0435C47.7061 26.9194 47.4857 26.6892 47.3741 26.4032C47.2625 26.1171 47.2687 25.7985 47.3914 25.517C47.5139 25.2352 47.7434 25.0135 48.0293 24.9007C48.3152 24.788 48.6341 24.7933 48.9161 24.9155Z" fill="url(#paint13_linear_396_227)"/>
<path d="M48.8404 25.1121C48.9552 25.1619 49.0589 25.2339 49.1458 25.3239C49.2327 25.4139 49.3009 25.5201 49.3467 25.6365C49.3925 25.7529 49.4148 25.8772 49.4125 26.0023C49.4101 26.1274 49.3831 26.2507 49.3331 26.3654C49.2832 26.4799 49.2111 26.5835 49.1212 26.6702C49.0312 26.7569 48.925 26.8249 48.8086 26.8705C48.6923 26.9161 48.5681 26.9384 48.4432 26.9359C48.3183 26.9335 48.1951 26.9064 48.0806 26.8563C47.9661 26.8066 47.8626 26.7347 47.7759 26.6449C47.6892 26.5551 47.6211 26.4491 47.5754 26.3329C47.5297 26.2167 47.5074 26.0927 47.5097 25.9679C47.512 25.8431 47.5389 25.72 47.5888 25.6055C47.6384 25.4908 47.7102 25.387 47.8 25.3C47.8898 25.2131 47.9959 25.1448 48.1121 25.0989C48.2284 25.0531 48.3526 25.0306 48.4776 25.0329C48.6026 25.0351 48.7259 25.062 48.8404 25.1121Z" fill="url(#paint14_linear_396_227)"/>
<path d="M48.7647 25.2823C48.9491 25.3643 49.0936 25.5158 49.1669 25.7038C49.2402 25.8918 49.2363 26.1012 49.1561 26.2863C49.0745 26.4705 48.9237 26.6151 48.7362 26.6889C48.5488 26.7626 48.3398 26.7595 48.1547 26.6803C48.0628 26.6405 47.9798 26.583 47.9102 26.511C47.8407 26.4391 47.786 26.3541 47.7494 26.261C47.7128 26.1678 47.695 26.0684 47.6969 25.9683C47.6989 25.8683 47.7205 25.7696 47.7607 25.678C47.8003 25.5858 47.8578 25.5023 47.9298 25.4325C48.0018 25.3626 48.0869 25.3077 48.1803 25.2709C48.2736 25.2341 48.3733 25.2162 48.4736 25.2182C48.5739 25.2201 48.6729 25.2419 48.7647 25.2823Z" fill="url(#paint15_radial_396_227)"/>
<path d="M48.9859 26.1331L48.9314 26.2599L47.9036 25.8132L47.9597 25.6856L48.9859 26.1331ZM48.7306 25.4856L48.6038 25.4312L48.4073 25.8821L48.5349 25.9366L48.7306 25.4856ZM48.4753 26.0633L48.3486 26.008L48.1512 26.4581L48.2788 26.5134L48.4753 26.0633Z" fill="#5C5B5F"/>
<g clip-path="url(#clip3_396_227)">
<path d="M52.2017 9.90681L51.2672 10.6075L51.6493 10.9467L52.2017 9.90681ZM45.8041 10.6075L44.8696 9.90681L45.422 10.9467L45.8041 10.6075ZM50.1137 8.65015L49.4596 9.97822L49.9448 10.1259L50.1137 8.65015ZM47.6117 9.97822L46.9576 8.65015L47.1265 10.1259L47.6117 9.97822Z" fill="black"/>
<path d="M44.1717 20.2447C44.3892 20.2447 44.5655 20.0641 44.5655 19.8412C44.5655 19.6184 44.3892 19.4377 44.1717 19.4377C43.9542 19.4377 43.7778 19.6184 43.7778 19.8412C43.7778 20.0641 43.9542 20.2447 44.1717 20.2447Z" fill="black"/>
<path d="M52.8284 20.2447C53.0459 20.2447 53.2222 20.0641 53.2222 19.8412C53.2222 19.6184 53.0459 19.4377 52.8284 19.4377C52.6109 19.4377 52.4346 19.6184 52.4346 19.8412C52.4346 20.0641 52.6109 20.2447 52.8284 20.2447Z" fill="black"/>
<path d="M54.544 19.0673L54.4928 19.0707C54.5461 18.1683 54.581 17.003 54.4157 16.8797C53.8965 16.4931 53.5209 16.0713 53.2432 15.65C53.6417 15.6491 54.1355 15.6105 54.3388 15.4391C54.5818 15.2343 54.7612 14.6987 54.5339 14.4771C54.2607 14.2116 53.3464 14.3815 53.0851 14.6092C52.9985 14.6844 52.925 14.8144 52.8647 14.9562C52.3415 13.7758 52.4348 12.7615 52.1008 12.7615C52.1008 12.7615 51.9654 12.7495 51.7152 12.7329V12.4273H52.3581V11.4656H44.6424V12.4273H45.2855V12.7329C45.0351 12.7495 44.8994 12.7615 44.8994 12.7615C44.6111 12.7615 44.6621 13.8184 44.1469 14.9839C44.0845 14.8312 44.0076 14.6895 43.9154 14.6092C43.6543 14.3815 42.739 14.2116 42.4664 14.4771C42.2391 14.6987 42.4187 15.2343 42.6619 15.4391C42.8703 15.6147 43.384 15.6512 43.7871 15.6502C43.4717 16.1356 43.063 16.5535 42.5848 16.8797C42.4191 16.9934 42.4544 18.1646 42.5077 19.0707L42.4561 19.0673C42.3141 19.0673 42.199 19.1446 42.199 19.2395V20.2733C42.199 20.3685 42.3141 20.4456 42.4561 20.4456C42.4561 20.4456 42.6558 20.4588 43.0143 20.4773V20.9639C43.0143 21.1234 43.1294 21.2523 43.2716 21.2523H45.0717C45.2141 21.2523 45.3292 21.1234 45.3292 20.9642V20.5691L45.5957 20.5764V20.6684C45.5957 20.8858 45.7719 21.0622 45.9895 21.0622H46.0387C46.1897 21.0622 46.3193 20.9763 46.3853 20.8516H50.6148C50.6479 20.9149 50.6977 20.9681 50.7587 21.0052C50.8198 21.0423 50.8899 21.0621 50.9614 21.0622H51.0105C51.2279 21.0622 51.4043 20.8858 51.4043 20.6684V20.5764L51.6707 20.5693V20.9642C51.6707 21.1234 51.786 21.2523 51.928 21.2523H53.7284C53.8706 21.2523 53.9857 21.1234 53.9857 20.9642V20.4777C54.3457 20.4588 54.544 20.4458 54.544 20.4458C54.6864 20.4458 54.8013 20.3687 54.8013 20.2736V19.2397C54.8013 19.1446 54.6864 19.0673 54.544 19.0673ZM53.469 17.3007L53.7856 17.2673C53.928 17.2673 54.0431 17.3794 54.0431 17.5178V18.2694C54.0431 18.4078 53.928 18.5199 53.7856 18.5199L53.469 18.5533V17.3007ZM53.2563 17.3229V18.5758L51.9458 18.7138C51.8036 18.7138 51.6885 18.6019 51.6885 18.4636V17.7119C51.6885 17.5737 51.8036 17.4616 51.9458 17.4616L53.2563 17.3229ZM51.9313 17.2145L51.2035 16.9614C51.698 16.0556 52.7698 15.4527 52.7698 15.4527C52.0195 16.5882 51.9313 17.2145 51.9313 17.2145ZM46.0387 18.4288H45.9895C45.9015 18.4288 45.8209 18.4588 45.7554 18.5075V18.019C45.7554 17.865 45.8621 17.7401 45.994 17.7401H51.0063C51.138 17.7401 51.2447 17.865 51.2447 18.019V18.5073C51.1773 18.4565 51.0953 18.429 51.0109 18.4288H50.9618C50.7444 18.4288 50.568 18.6052 50.568 18.8226V19.0515C50.4798 19.1196 50.4081 19.2072 50.3613 19.3097H46.6398C46.5927 19.2081 46.5217 19.1195 46.4327 19.0515V18.8228C46.4327 18.7183 46.3911 18.6181 46.3173 18.5443C46.2434 18.4704 46.1432 18.4288 46.0387 18.4288ZM49.9958 11.6754H52.1479V12.2171H49.9958V11.6754ZM44.8524 12.2171V11.6754H47.004V12.2171H44.8524ZM45.2853 13.236C45.2853 13.236 46.6675 13.1474 48.5001 13.1474C50.3325 13.1474 51.7152 13.236 51.7152 13.236L52.2292 15.2402C52.2292 15.2402 50.4613 15.1518 48.5001 15.1518C46.5392 15.1518 44.7707 15.2402 44.7707 15.2402L45.2853 13.236ZM45.7965 16.9614L45.0687 17.2145C45.0687 17.2145 44.9803 16.5882 44.23 15.4527C44.23 15.453 45.3019 16.0558 45.7965 16.9614ZM43.7442 17.3229L45.054 17.4611C45.1964 17.4611 45.3115 17.5731 45.3115 17.7113V18.4632C45.3115 18.6016 45.1964 18.7136 45.054 18.7136L43.7442 18.5754V17.3229ZM42.957 17.5176C42.957 17.3792 43.0719 17.2673 43.2143 17.2673L43.5315 17.3007V18.5531L43.2143 18.5197C43.0719 18.5197 42.957 18.4078 42.957 18.2696V17.5176ZM45.5957 20.3662C43.7131 20.3168 42.4874 20.2372 42.4697 20.236L42.463 20.2355H42.4561C42.4401 20.2357 42.4242 20.2333 42.409 20.2286V19.2843C42.4224 19.28 42.4363 19.2777 42.4504 19.2773C42.5579 19.2843 43.6699 19.354 45.3561 19.4019C45.3364 19.4647 45.3259 19.53 45.325 19.5958C45.325 19.818 45.4323 20.0137 45.5957 20.1398V20.3662ZM46.0141 20.0728C45.948 20.0751 45.8821 20.0641 45.8203 20.0404C45.7585 20.0167 45.7021 19.9809 45.6545 19.9349C45.6069 19.889 45.5691 19.8339 45.5432 19.773C45.5174 19.7121 45.5041 19.6466 45.5041 19.5804C45.5041 19.5143 45.5174 19.4488 45.5433 19.3879C45.5692 19.327 45.6071 19.2719 45.6547 19.226C45.7023 19.1801 45.7587 19.1442 45.8205 19.1205C45.8823 19.0969 45.9482 19.0859 46.0143 19.0883C46.1418 19.0929 46.2626 19.1468 46.3511 19.2386C46.4397 19.3304 46.4892 19.453 46.4892 19.5806C46.4891 19.7082 46.4396 19.8308 46.351 19.9226C46.2624 20.0144 46.1416 20.0682 46.0141 20.0728ZM46.9248 20.3933C46.7574 20.3908 46.5934 20.3882 46.4325 20.3851V20.1398C46.5164 20.076 46.5845 19.9937 46.6315 19.8993C46.6785 19.8049 46.703 19.701 46.7033 19.5955C46.7033 19.5386 46.6946 19.4844 46.6814 19.4315C46.8116 19.4338 46.9246 19.4374 46.9246 19.4374V20.3933H46.9248ZM50.5678 20.3851C50.4071 20.3882 50.243 20.3908 50.0754 20.3933V19.4374C50.0754 19.4374 50.1886 19.4336 50.3189 19.4315C50.305 19.4851 50.2976 19.5402 50.297 19.5955C50.297 19.818 50.4043 20.0135 50.5678 20.1395V20.3851ZM50.9862 20.0879C50.92 20.0902 50.8541 20.0792 50.7923 20.0555C50.7306 20.0319 50.6742 19.996 50.6266 19.95C50.579 19.9041 50.5411 19.849 50.5153 19.7881C50.4894 19.7272 50.4761 19.6617 50.4761 19.5955C50.4761 19.5294 50.4895 19.4639 50.5153 19.403C50.5412 19.3421 50.5791 19.2871 50.6267 19.2411C50.6744 19.1952 50.7307 19.1593 50.7925 19.1357C50.8543 19.112 50.9202 19.101 50.9864 19.1034C51.1139 19.108 51.2346 19.1619 51.3232 19.2537C51.4117 19.3456 51.4612 19.4682 51.4612 19.5958C51.4612 19.7233 51.4116 19.8459 51.323 19.9377C51.2344 20.0295 51.1137 20.0833 50.9862 20.0879ZM54.5913 20.2286C54.576 20.2334 54.56 20.2358 54.544 20.2355H54.5371L54.5301 20.236C54.5127 20.2372 53.2871 20.3168 51.4046 20.3662V20.14C51.4885 20.0761 51.5566 19.9938 51.6035 19.8994C51.6505 19.805 51.675 19.701 51.6753 19.5955C51.6753 19.5279 51.6625 19.4636 51.6446 19.4017C53.3304 19.3538 54.4421 19.2841 54.5497 19.2771C54.5671 19.2778 54.5812 19.2809 54.5913 19.2841V20.2286Z" fill="black"/>
<path d="M46.6541 18.0281H50.3461V18.1818H46.6541V18.0281ZM46.6541 18.4477H50.3461V18.6013H46.6541V18.4477ZM46.6541 18.8674H50.3461V19.0211H46.6541V18.8674Z" fill="black"/>
<path d="M44.5738 18.5753C44.8759 18.5753 45.1209 18.3303 45.1209 18.0281C45.1209 17.7259 44.8759 17.481 44.5738 17.481C44.2716 17.481 44.0266 17.7259 44.0266 18.0281C44.0266 18.3303 44.2716 18.5753 44.5738 18.5753Z" fill="black"/>
<path d="M52.4258 18.5753C52.728 18.5753 52.973 18.3303 52.973 18.0281C52.973 17.7259 52.728 17.481 52.4258 17.481C52.1236 17.481 51.8787 17.7259 51.8787 18.0281C51.8787 18.3303 52.1236 18.5753 52.4258 18.5753Z" fill="black"/>
</g>
</g>
<g clip-path="url(#clip4_396_227)">
<path d="M34.2076 29.8764C33.852 30.2319 33.4299 30.514 32.9654 30.7064C32.5009 30.8988 32.003 30.9979 31.5002 30.9979C30.9973 30.9979 30.4995 30.8988 30.0349 30.7064C29.5704 30.514 29.1483 30.2319 28.7927 29.8764L17.1224 18.2069C16.7669 17.8514 16.4849 17.4293 16.2924 16.9648C16.1 16.5002 16.001 16.0023 16.001 15.4995C16.001 14.9967 16.1 14.4988 16.2924 14.0343C16.4849 13.5697 16.7669 13.1477 17.1224 12.7921L28.7927 1.11755C29.1483 0.762006 29.5704 0.479972 30.0349 0.287552C30.4995 0.0951314 30.9973 -0.00390625 31.5002 -0.00390625C32.003 -0.00390625 32.5009 0.0951314 32.9654 0.287552C33.4299 0.479972 33.852 0.762006 34.2076 1.11755L45.8787 12.7921C46.2343 13.1477 46.5163 13.5697 46.7087 14.0343C46.9012 14.4988 47.0002 14.9967 47.0002 15.4995C47.0002 16.0023 46.9012 16.5002 46.7087 16.9648C46.5163 17.4293 46.2343 17.8514 45.8787 18.2069L34.2076 29.8764Z" fill="url(#paint16_radial_396_227)"/>
<path d="M34.0255 29.0457C33.3472 29.7236 32.4276 30.1043 31.4687 30.1043C30.5098 30.1043 29.5901 29.7236 28.9118 29.0457L17.8916 18.0255C17.5558 17.6898 17.2893 17.2912 17.1076 16.8525C16.9258 16.4137 16.8323 15.9435 16.8323 15.4687C16.8323 14.9938 16.9258 14.5236 17.1076 14.0849C17.2893 13.6462 17.5558 13.2476 17.8916 12.9118L28.9118 1.89159C29.2476 1.55576 29.6462 1.28935 30.0849 1.10759C30.5236 0.925827 30.9938 0.832275 31.4687 0.832275C31.9435 0.832275 32.4137 0.925827 32.8525 1.10759C33.2912 1.28935 33.6898 1.55576 34.0255 1.89159L45.0466 12.9136C45.7244 13.5918 46.1052 14.5115 46.1052 15.4704C46.1052 16.4293 45.7244 17.3489 45.0466 18.0272L34.0255 29.0457Z" fill="url(#paint17_linear_396_227)"/>
<path d="M44.0279 12.842L34.158 2.97211C33.8097 2.62199 33.3954 2.34441 32.9392 2.15542C32.4829 1.96644 31.9937 1.8698 31.4999 1.87111C31.0061 1.86989 30.5169 1.96657 30.0606 2.15555C29.6044 2.34453 29.1902 2.62207 28.8418 2.97211L18.9719 12.842C18.2678 13.5474 17.8723 14.5034 17.8723 15.5001C17.8723 16.4968 18.2678 17.4527 18.9719 18.1581L28.8418 28.028C29.1902 28.3781 29.6044 28.6556 30.0606 28.8446C30.5169 29.0336 31.0061 29.1303 31.4999 29.129C31.9937 29.1304 32.4829 29.0338 32.9392 28.8448C33.3955 28.6558 33.8097 28.3782 34.158 28.028L44.0279 18.1581C44.732 17.4527 45.1275 16.4968 45.1275 15.5001C45.1275 14.5034 44.732 13.5474 44.0279 12.842ZM43.291 17.4213L33.4211 27.2912C33.1697 27.5449 32.8704 27.7461 32.5406 27.8833C32.2108 28.0204 31.8571 28.0907 31.4999 28.0902C31.143 28.0911 30.7894 28.0213 30.4596 27.8847C30.1299 27.7482 29.8304 27.5476 29.5787 27.2946L19.7088 17.4247C19.2006 16.9144 18.9153 16.2236 18.9153 15.5035C18.9153 14.7833 19.2006 14.0925 19.7088 13.5823L29.5787 3.71235C29.8302 3.45876 30.1295 3.25756 30.4592 3.12042C30.789 2.98328 31.1427 2.91292 31.4999 2.9134C31.8568 2.91238 32.2104 2.98216 32.5402 3.11872C32.87 3.25528 33.1694 3.45589 33.4211 3.70895L43.291 13.5789C43.7992 14.0891 44.0845 14.7799 44.0845 15.5001C44.0845 16.2202 43.7992 16.911 43.291 17.4213Z" fill="#1F140F"/>
<path d="M31.916 3.41529C32.0559 3.4765 32.1823 3.56473 32.288 3.67492C32.3936 3.7851 32.4765 3.91507 32.5319 4.05736C32.5872 4.19966 32.6139 4.35148 32.6104 4.50411C32.607 4.65675 32.5734 4.8072 32.5116 4.94682C32.3879 5.22717 32.1583 5.44717 31.8729 5.55876C31.5876 5.67036 31.2696 5.66449 30.9886 5.54242C30.7066 5.41824 30.4854 5.18716 30.3737 4.89996C30.262 4.61276 30.269 4.29297 30.393 4.01088C30.517 3.73085 30.7467 3.51114 31.0319 3.39959C31.3171 3.28804 31.6349 3.29368 31.916 3.41529Z" fill="url(#paint18_linear_396_227)"/>
<path d="M31.8402 3.60926C31.9549 3.65902 32.0587 3.73091 32.1455 3.82083C32.2324 3.91075 32.3007 4.01692 32.3464 4.13327C32.3922 4.24961 32.4146 4.37384 32.4122 4.49884C32.4099 4.62384 32.3829 4.74716 32.3329 4.86172C32.2829 4.97626 32.2109 5.07985 32.121 5.16656C32.031 5.25328 31.9248 5.32141 31.8085 5.36708C31.6922 5.41275 31.568 5.43506 31.4431 5.43273C31.3182 5.4304 31.1949 5.40348 31.0804 5.35351C30.9659 5.30367 30.8623 5.23175 30.7756 5.14186C30.6889 5.05197 30.6208 4.94588 30.5751 4.82964C30.5294 4.7134 30.5071 4.5893 30.5094 4.46443C30.5118 4.33956 30.5387 4.21637 30.5886 4.10191C30.6383 3.98724 30.7101 3.88351 30.7999 3.79666C30.8898 3.7098 30.9959 3.64153 31.1122 3.59577C31.2284 3.55 31.3526 3.52763 31.4775 3.52995C31.6025 3.53226 31.7257 3.55922 31.8402 3.60926Z" fill="url(#paint19_linear_396_227)"/>
<path d="M31.7646 3.78384C31.9493 3.86481 32.0942 4.01578 32.1676 4.20356C32.241 4.39134 32.2368 4.60058 32.156 4.78529C32.0743 4.96932 31.9234 5.11376 31.736 5.18733C31.5485 5.2609 31.3397 5.25769 31.1546 5.17839C30.9707 5.09774 30.8263 4.94753 30.7529 4.76062C30.6796 4.57372 30.6832 4.36537 30.7632 4.18119C30.8024 4.08902 30.8596 4.00554 30.9313 3.93559C31.003 3.86564 31.0879 3.8106 31.181 3.77366C31.2742 3.73671 31.3737 3.71858 31.4739 3.72033C31.574 3.72208 31.6729 3.74366 31.7646 3.78384Z" fill="url(#paint20_radial_396_227)"/>
<path d="M31.9859 4.63542L31.9314 4.7622L30.9036 4.31465L30.9597 4.18787L31.9859 4.63542ZM31.7306 3.98792L31.6038 3.93262L31.4073 4.38442L31.5349 4.43887L31.7306 3.98792ZM31.4753 4.5648L31.3486 4.51035L31.1512 4.9596L31.2788 5.01575L31.4753 4.5648Z" fill="#5C5B5F"/>
<path d="M31.9161 24.9155C32.1975 25.0392 32.4183 25.2695 32.53 25.5559C32.6417 25.8422 32.6351 26.1612 32.5117 26.4428C32.3892 26.7246 32.1597 26.9462 31.8737 27.0589C31.5878 27.1715 31.2688 27.166 30.987 27.0435C30.7061 26.9194 30.4857 26.6892 30.3741 26.4032C30.2625 26.1171 30.2687 25.7985 30.3914 25.517C30.5139 25.2352 30.7434 25.0135 31.0293 24.9007C31.3152 24.788 31.6341 24.7933 31.9161 24.9155Z" fill="url(#paint21_linear_396_227)"/>
<path d="M31.8404 25.1121C31.9552 25.1619 32.0589 25.2339 32.1458 25.3239C32.2327 25.4139 32.3009 25.5201 32.3467 25.6365C32.3925 25.7529 32.4148 25.8772 32.4125 26.0023C32.4101 26.1274 32.3831 26.2507 32.3331 26.3654C32.2832 26.4799 32.2111 26.5835 32.1212 26.6702C32.0312 26.7569 31.925 26.8249 31.8086 26.8705C31.6923 26.9161 31.5681 26.9384 31.4432 26.9359C31.3183 26.9335 31.1951 26.9064 31.0806 26.8563C30.9661 26.8066 30.8626 26.7347 30.7759 26.6449C30.6892 26.5551 30.6211 26.4491 30.5754 26.3329C30.5297 26.2167 30.5074 26.0927 30.5097 25.9679C30.512 25.8431 30.5389 25.72 30.5888 25.6055C30.6384 25.4908 30.7102 25.387 30.8 25.3C30.8898 25.2131 30.9959 25.1448 31.1121 25.0989C31.2284 25.0531 31.3526 25.0306 31.4776 25.0329C31.6026 25.0351 31.7259 25.062 31.8404 25.1121Z" fill="url(#paint22_linear_396_227)"/>
<path d="M31.7647 25.2823C31.9491 25.3643 32.0936 25.5158 32.1669 25.7038C32.2402 25.8918 32.2363 26.1012 32.1561 26.2863C32.0745 26.4705 31.9237 26.6151 31.7362 26.6889C31.5488 26.7626 31.3398 26.7595 31.1547 26.6803C31.0628 26.6405 30.9798 26.583 30.9102 26.511C30.8407 26.4391 30.786 26.3541 30.7494 26.261C30.7128 26.1678 30.695 26.0684 30.6969 25.9683C30.6989 25.8683 30.7205 25.7696 30.7607 25.678C30.8003 25.5858 30.8578 25.5023 30.9298 25.4325C31.0018 25.3626 31.0869 25.3077 31.1803 25.2709C31.2736 25.2341 31.3733 25.2162 31.4736 25.2182C31.5739 25.2201 31.6729 25.2419 31.7647 25.2823Z" fill="url(#paint23_radial_396_227)"/>
<path d="M31.9859 26.1331L31.9314 26.2599L30.9036 25.8132L30.9597 25.6856L31.9859 26.1331ZM31.7306 25.4856L31.6038 25.4312L31.4073 25.8821L31.5349 25.9366L31.7306 25.4856ZM31.4753 26.0633L31.3486 26.008L31.1512 26.4581L31.2788 26.5134L31.4753 26.0633Z" fill="#5C5B5F"/>
<path d="M27.0619 11.952C27.2215 11.9525 27.3796 11.9215 27.5272 11.8609C27.6747 11.8002 27.8089 11.7111 27.9221 11.5986C28.0352 11.4861 28.1251 11.3524 28.1866 11.2051C28.248 11.0579 28.2799 10.9 28.2804 10.7404C28.2799 10.5809 28.248 10.423 28.1866 10.2757C28.1251 10.1285 28.0352 9.99478 27.9221 9.88228C27.8089 9.76977 27.6747 9.68064 27.5272 9.62C27.3796 9.55935 27.2215 9.52837 27.0619 9.52881C26.9025 9.52848 26.7445 9.55955 26.5971 9.62026C26.4497 9.68097 26.3156 9.77012 26.2026 9.88263C26.0897 9.99514 25.9999 10.1288 25.9386 10.276C25.8773 10.4232 25.8455 10.581 25.8452 10.7404C25.8455 10.8999 25.8773 11.0577 25.9386 11.2049C25.9999 11.3521 26.0897 11.4857 26.2026 11.5982C26.3156 11.7107 26.4497 11.7999 26.5971 11.8606C26.7445 11.9213 26.9025 11.9524 27.0619 11.952Z" fill="#1F140F"/>
<path d="M26.3949 12.1467H26.3438C24.0465 12.191 23.2314 15.1715 23.65 15.38C23.9904 15.5501 24.951 13.6706 25.2913 13.6706C25.6317 13.6706 25.2913 14.6372 25.1365 15.3953C24.8114 17.0119 24.4864 21.4015 24.9816 21.4015C25.4768 21.4015 25.7074 17.3344 26.3694 17.2323C27.0305 17.3361 27.2687 21.4015 27.7579 21.4015C28.2472 21.4015 27.9281 17.0128 27.6022 15.3953C27.4499 14.6372 27.107 13.6706 27.4474 13.6706C27.7877 13.6706 28.7475 15.5493 29.0887 15.38C29.5073 15.1715 28.6913 12.191 26.3949 12.1467Z" fill="#1F140F"/>
<path d="M36.0453 9.69117C35.8878 9.69072 35.7319 9.72129 35.5862 9.78112C35.4406 9.84096 35.3082 9.92889 35.1966 10.0399C35.0849 10.1509 34.9962 10.2828 34.9356 10.4281C34.8749 10.5734 34.8435 10.7292 34.843 10.8866C34.8434 11.0441 34.8747 11.2 34.9353 11.3454C34.9959 11.4908 35.0846 11.6228 35.1963 11.7339C35.3079 11.845 35.4404 11.933 35.586 11.9929C35.7317 12.0528 35.8878 12.0834 36.0453 12.0829C36.2028 12.0834 36.3588 12.0528 36.5045 11.9929C36.6502 11.933 36.7826 11.845 36.8943 11.7339C37.0059 11.6228 37.0946 11.4908 37.1552 11.3454C37.2158 11.2 37.2472 11.0441 37.2475 10.8866C37.2471 10.7292 37.2156 10.5734 37.155 10.4281C37.0943 10.2828 37.0056 10.1509 36.894 10.0399C36.7823 9.92889 36.6499 9.84096 36.5043 9.78112C36.3587 9.72129 36.2027 9.69072 36.0453 9.69117Z" fill="#1F140F"/>
<path d="M36.6919 12.2643H36.6409C34.3742 12.3085 33.5684 15.2516 33.982 15.4575C34.318 15.6277 35.265 13.7694 35.5986 13.7694C35.6905 13.7694 35.7313 13.8392 35.7407 13.9558C35.5603 14.6297 34.9638 16.7985 34.5665 17.52C34.4508 17.7302 34.7009 17.8876 35.1323 17.9914C34.9987 19.6693 34.9843 21.4033 35.294 21.4033C35.6394 21.4033 35.8589 19.3357 36.195 18.1292C36.5022 18.1462 36.823 18.1488 37.131 18.1369C37.4662 19.3442 37.6857 21.4033 38.0312 21.4033C38.3383 21.4033 38.3256 19.6956 38.1945 18.0288C38.7306 17.9267 39.0667 17.7574 38.9356 17.5183C38.4838 16.6955 37.7725 13.9966 37.713 13.7686H37.7249C38.0652 13.7686 39.0088 15.6243 39.3457 15.4567C39.7593 15.2508 38.9526 12.3085 36.686 12.2634L36.6919 12.2643Z" fill="#1F140F"/>
<path d="M31.5486 15.8718C31.6649 15.8721 31.7801 15.8493 31.8876 15.805C31.9951 15.7606 32.0928 15.6954 32.1751 15.6132C32.2574 15.531 32.3226 15.4334 32.3671 15.3259C32.4116 15.2185 32.4344 15.1033 32.4343 14.987C32.4336 14.7526 32.34 14.5282 32.1739 14.3629C32.0078 14.1976 31.7829 14.105 31.5486 14.1055C31.314 14.1048 31.0888 14.1973 30.9224 14.3625C30.756 14.5278 30.662 14.7524 30.6611 14.987C30.6611 15.1034 30.6841 15.2187 30.7287 15.3262C30.7734 15.4337 30.8388 15.5314 30.9212 15.6136C31.0037 15.6958 31.1015 15.7609 31.2092 15.8052C31.3168 15.8495 31.4322 15.8722 31.5486 15.8718Z" fill="#1F140F"/>
<path d="M31.5665 16.1117H31.529H31.4771C29.8324 16.0862 29.27 15.3153 29.1526 15.4966C28.8863 15.9084 30.599 16.7558 30.7496 16.909C30.8739 17.0375 30.7607 17.8526 30.6501 18.4056C30.4135 19.5824 30.177 21.4687 30.5369 21.4687C30.8968 21.4687 31.067 19.4411 31.5486 19.3662C32.0293 19.4411 32.2029 21.4687 32.5585 21.4687C32.9142 21.4687 32.6828 19.5807 32.4462 18.4056C32.3348 17.8526 32.0982 16.9592 32.3399 16.9013C33.3703 16.6554 33.9735 15.7246 33.8255 15.5995C33.6876 15.4863 33.1618 16.1653 31.5665 16.1117Z" fill="#1F140F"/>
</g>
<defs>
<radialGradient id="paint0_radial_396_227" cx="0" cy="0" r="1" gradientUnits="userSpaceOnUse" gradientTransform="translate(15.5002 15.4995) scale(15.5)">
<stop stop-color="#FF0000"/>
<stop offset="0.17" stop-color="#FE0000"/>
<stop offset="0.39" stop-color="#FB0000"/>
<stop offset="0.65" stop-color="#F72C00"/>
<stop offset="0.92" stop-color="#F20303"/>
<stop offset="1" stop-color="#EE0000"/>
</radialGradient>
<linearGradient id="paint1_linear_396_227" x1="15.4687" y1="30.1042" x2="15.4687" y2="0.832282" gradientUnits="userSpaceOnUse">
<stop stop-color="white"/>
<stop offset="0.05" stop-color="white"/>
<stop offset="0.37" stop-color="white"/>
<stop offset="0.7" stop-color="white"/>
<stop offset="0.76" stop-color="white"/>
<stop offset="0.97" stop-color="white"/>
<stop offset="1" stop-color="white"/>
</linearGradient>
<linearGradient id="paint2_linear_396_227" x1="14.7806" y1="5.8207" x2="15.7054" y2="3.69887" gradientUnits="userSpaceOnUse">
<stop stop-color="#1F140F"/>
<stop offset="0.22" stop-color="#483F3B"/>
<stop offset="0.71" stop-color="#ADAAAA"/>
<stop offset="1" stop-color="#EDEEF0"/>
</linearGradient>
<linearGradient id="paint3_linear_396_227" x1="15.0859" y1="5.84075" x2="15.8444" y2="4.09885" gradientUnits="userSpaceOnUse">
<stop stop-color="#EDEEF0"/>
<stop offset="0.29" stop-color="#ADAAAA"/>
<stop offset="0.78" stop-color="#483F3B"/>
<stop offset="1" stop-color="#1F140F"/>
</linearGradient>
<radialGradient id="paint4_radial_396_227" cx="0" cy="0" r="1" gradientUnits="userSpaceOnUse" gradientTransform="translate(15.6089 4.36372) rotate(-66.44) scale(0.761556)">
<stop stop-color="#D8DADE"/>
<stop offset="0.57" stop-color="#9C9CA0"/>
<stop offset="1" stop-color="#737377"/>
</radialGradient>
<linearGradient id="paint5_linear_396_227" x1="14.7792" y1="27.3314" x2="15.7076" y2="25.2012" gradientUnits="userSpaceOnUse">
<stop stop-color="#1F140F"/>
<stop offset="0.22" stop-color="#483F3B"/>
<stop offset="0.71" stop-color="#ADAAAA"/>
<stop offset="1" stop-color="#EDEEF0"/>
</linearGradient>
<linearGradient id="paint6_linear_396_227" x1="15.0934" y1="27.3496" x2="15.8549" y2="25.6009" gradientUnits="userSpaceOnUse">
<stop stop-color="#EDEEF0"/>
<stop offset="0.29" stop-color="#ADAAAA"/>
<stop offset="0.78" stop-color="#483F3B"/>
<stop offset="1" stop-color="#1F140F"/>
</linearGradient>
<radialGradient id="paint7_radial_396_227" cx="0" cy="0" r="1" gradientUnits="userSpaceOnUse" gradientTransform="translate(15.6055 25.8525) rotate(-66.44) scale(0.761556)">
<stop stop-color="#D8DADE"/>
<stop offset="0.57" stop-color="#9C9CA0"/>
<stop offset="1" stop-color="#737377"/>
</radialGradient>
<radialGradient id="paint8_radial_396_227" cx="0" cy="0" r="1" gradientUnits="userSpaceOnUse" gradientTransform="translate(48.5002 15.4998) scale(15.5)">
<stop stop-color="#FF0000"/>
<stop offset="0.17" stop-color="#FE0000"/>
<stop offset="0.39" stop-color="#FB0000"/>
<stop offset="0.65" stop-color="#F72C00"/>
<stop offset="0.92" stop-color="#F20303"/>
<stop offset="1" stop-color="#EE0000"/>
</radialGradient>
<linearGradient id="paint9_linear_396_227" x1="48.4687" y1="30.1042" x2="48.4687" y2="0.832282" gradientUnits="userSpaceOnUse">
<stop stop-color="white"/>
<stop offset="0.05" stop-color="white"/>
<stop offset="0.37" stop-color="white"/>
<stop offset="0.7" stop-color="white"/>
<stop offset="0.76" stop-color="white"/>
<stop offset="0.97" stop-color="white"/>
<stop offset="1" stop-color="white"/>
</linearGradient>
<linearGradient id="paint10_linear_396_227" x1="47.7806" y1="5.8207" x2="48.7054" y2="3.69887" gradientUnits="userSpaceOnUse">
<stop stop-color="#1F140F"/>
<stop offset="0.22" stop-color="#483F3B"/>
<stop offset="0.71" stop-color="#ADAAAA"/>
<stop offset="1" stop-color="#EDEEF0"/>
</linearGradient>
<linearGradient id="paint11_linear_396_227" x1="48.0859" y1="5.84075" x2="48.8444" y2="4.09885" gradientUnits="userSpaceOnUse">
<stop stop-color="#EDEEF0"/>
<stop offset="0.29" stop-color="#ADAAAA"/>
<stop offset="0.78" stop-color="#483F3B"/>
<stop offset="1" stop-color="#1F140F"/>
</linearGradient>
<radialGradient id="paint12_radial_396_227" cx="0" cy="0" r="1" gradientUnits="userSpaceOnUse" gradientTransform="translate(48.6089 4.36372) rotate(-66.44) scale(0.761556)">
<stop stop-color="#D8DADE"/>
<stop offset="0.57" stop-color="#9C9CA0"/>
<stop offset="1" stop-color="#737377"/>
</radialGradient>
<linearGradient id="paint13_linear_396_227" x1="47.7792" y1="27.3314" x2="48.7076" y2="25.2012" gradientUnits="userSpaceOnUse">
<stop stop-color="#1F140F"/>
<stop offset="0.22" stop-color="#483F3B"/>
<stop offset="0.71" stop-color="#ADAAAA"/>
<stop offset="1" stop-color="#EDEEF0"/>
</linearGradient>
<linearGradient id="paint14_linear_396_227" x1="48.0934" y1="27.3496" x2="48.8549" y2="25.6009" gradientUnits="userSpaceOnUse">
<stop stop-color="#EDEEF0"/>
<stop offset="0.29" stop-color="#ADAAAA"/>
<stop offset="0.78" stop-color="#483F3B"/>
<stop offset="1" stop-color="#1F140F"/>
</linearGradient>
<radialGradient id="paint15_radial_396_227" cx="0" cy="0" r="1" gradientUnits="userSpaceOnUse" gradientTransform="translate(48.6055 25.8525) rotate(-66.44) scale(0.761556)">
<stop stop-color="#D8DADE"/>
<stop offset="0.57" stop-color="#9C9CA0"/>
<stop offset="1" stop-color="#737377"/>
</radialGradient>
<radialGradient id="paint16_radial_396_227" cx="0" cy="0" r="1" gradientUnits="userSpaceOnUse" gradientTransform="translate(31.5002 15.4995) scale(15.5)">
<stop stop-color="#FF0000"/>
<stop offset="0.17" stop-color="#FE0000"/>
<stop offset="0.39" stop-color="#FB0000"/>
<stop offset="0.65" stop-color="#F72C00"/>
<stop offset="0.92" stop-color="#F20303"/>
<stop offset="1" stop-color="#EE0000"/>
</radialGradient>
<linearGradient id="paint17_linear_396_227" x1="31.4687" y1="30.1042" x2="31.4687" y2="0.832282" gradientUnits="userSpaceOnUse">
<stop stop-color="white"/>
<stop offset="0.05" stop-color="white"/>
<stop offset="0.37" stop-color="white"/>
<stop offset="0.7" stop-color="white"/>
<stop offset="0.76" stop-color="white"/>
<stop offset="0.97" stop-color="white"/>
<stop offset="1" stop-color="white"/>
</linearGradient>
<linearGradient id="paint18_linear_396_227" x1="30.7806" y1="5.8207" x2="31.7054" y2="3.69887" gradientUnits="userSpaceOnUse">
<stop stop-color="#1F140F"/>
<stop offset="0.22" stop-color="#483F3B"/>
<stop offset="0.71" stop-color="#ADAAAA"/>
<stop offset="1" stop-color="#EDEEF0"/>
</linearGradient>
<linearGradient id="paint19_linear_396_227" x1="31.0859" y1="5.84075" x2="31.8444" y2="4.09885" gradientUnits="userSpaceOnUse">
<stop stop-color="#EDEEF0"/>
<stop offset="0.29" stop-color="#ADAAAA"/>
<stop offset="0.78" stop-color="#483F3B"/>
<stop offset="1" stop-color="#1F140F"/>
</linearGradient>
<radialGradient id="paint20_radial_396_227" cx="0" cy="0" r="1" gradientUnits="userSpaceOnUse" gradientTransform="translate(31.6089 4.36372) rotate(-66.44) scale(0.761557)">
<stop stop-color="#D8DADE"/>
<stop offset="0.57" stop-color="#9C9CA0"/>
<stop offset="1" stop-color="#737377"/>
</radialGradient>
<linearGradient id="paint21_linear_396_227" x1="30.7792" y1="27.3314" x2="31.7076" y2="25.2012" gradientUnits="userSpaceOnUse">
<stop stop-color="#1F140F"/>
<stop offset="0.22" stop-color="#483F3B"/>
<stop offset="0.71" stop-color="#ADAAAA"/>
<stop offset="1" stop-color="#EDEEF0"/>
</linearGradient>
<linearGradient id="paint22_linear_396_227" x1="31.0934" y1="27.3496" x2="31.8549" y2="25.6009" gradientUnits="userSpaceOnUse">
<stop stop-color="#EDEEF0"/>
<stop offset="0.29" stop-color="#ADAAAA"/>
<stop offset="0.78" stop-color="#483F3B"/>
<stop offset="1" stop-color="#1F140F"/>
</linearGradient>
<radialGradient id="paint23_radial_396_227" cx="0" cy="0" r="1" gradientUnits="userSpaceOnUse" gradientTransform="translate(31.6055 25.8525) rotate(-66.44) scale(0.761556)">
<stop stop-color="#D8DADE"/>
<stop offset="0.57" stop-color="#9C9CA0"/>
<stop offset="1" stop-color="#737377"/>
</radialGradient>
<clipPath id="clip0_396_227">
<rect width="31" height="31" fill="white"/>
</clipPath>
<clipPath id="clip1_396_227">
<rect width="13.1681" height="13.1681" fill="white" transform="matrix(-1 0 0 1 22.2212 8.77881)"/>
</clipPath>
<clipPath id="clip2_396_227">
<rect width="31" height="31" fill="white" transform="translate(33)"/>
</clipPath>
<clipPath id="clip3_396_227">
<rect width="13.4425" height="13.4425" fill="white" transform="translate(41.7788 8.22998)"/>
</clipPath>
<clipPath id="clip4_396_227">
<rect width="31" height="31" fill="white" transform="translate(16)"/>
</clipPath>
</defs>
</svg>
