<svg width="22" height="19" viewBox="0 0 22 19" fill="none" xmlns="http://www.w3.org/2000/svg">
<path d="M0.182938 6.91643L0.743322 5.93753C0.768515 5.89437 0.809757 5.86294 0.858047 5.85009C0.906336 5.83725 0.957745 5.84403 1.00105 5.86896L2.19985 6.56885L4.05124 1.45682C4.14899 1.15178 4.34115 0.885708 4.59998 0.697006C4.85881 0.508304 5.17091 0.406742 5.49122 0.406983L15.7366 0.406983C16.557 0.406983 17.2853 0.936629 17.5383 1.71928L19.3022 6.57121L20.5034 5.87132C20.5467 5.84639 20.5981 5.83961 20.6464 5.85246C20.6947 5.86531 20.7359 5.89674 20.7611 5.93989L21.3215 6.91643C21.3735 7.00628 21.3428 7.11977 21.2529 7.17179L19.8248 8.00409L20.1676 8.94989C20.196 9.02555 20.2102 9.10594 20.2102 9.18634V17.4195C20.2102 17.7907 19.9312 18.091 19.5883 18.091H17.9899C17.6991 18.091 17.4461 17.8711 17.3846 17.5637L17.2025 16.6723H4.30188L4.11981 17.5637C4.05597 17.8711 3.80534 18.091 3.51451 18.091H1.91611C1.57326 18.091 1.29425 17.7907 1.29425 17.4195V9.18634C1.29425 9.10594 1.30844 9.02555 1.33681 8.94989L1.67966 8.00409L0.253872 7.17179C0.210951 7.14701 0.17947 7.10636 0.166204 7.05861C0.152939 7.01085 0.158947 6.9598 0.182938 6.91643ZM16.6161 11.8251C17.1387 11.8251 17.5619 11.4019 17.5619 10.8793C17.5619 10.3568 17.1387 9.93352 16.6161 9.93352C16.0936 9.93352 15.6704 10.3568 15.6704 10.8793C15.6704 11.4019 16.0936 11.8251 16.6161 11.8251ZM7.44192 13.5985C7.44192 13.7025 7.52705 13.7876 7.63108 13.7876H13.8733C13.9774 13.7876 14.0625 13.7025 14.0625 13.5985V11.6123C14.0625 11.5083 13.9774 11.4231 13.8733 11.4231H12.9275C12.8235 11.4231 12.7384 11.5083 12.7384 11.6123V12.4635H8.76604V11.6123C8.76604 11.5083 8.68092 11.4231 8.57688 11.4231H7.63108C7.52705 11.4231 7.44192 11.5083 7.44192 11.6123V13.5985ZM4.88828 11.8251C5.41083 11.8251 5.83407 11.4019 5.83407 10.8793C5.83407 10.3568 5.41083 9.93352 4.88828 9.93352C4.36572 9.93352 3.94248 10.3568 3.94248 10.8793C3.94248 11.4019 4.36572 11.8251 4.88828 11.8251ZM17.6565 7.02519L15.9375 2.29858L15.9257 2.26784L15.9163 2.2371C15.8903 2.15907 15.8193 2.10705 15.7366 2.10705L5.626 2.10705L3.84317 7.02519L17.6565 7.02519Z" fill="black"/>
</svg>
