<svg id="Component_1_1" data-name="Component 1 – 1" xmlns="http://www.w3.org/2000/svg" width="22" height="21.25" viewBox="0 0 52 41.25">
  <path id="Path_95" data-name="Path 95" d="M47.521,22.809,46.3,19.79l-2.159-5.353A12.074,12.074,0,0,0,32.879,6.875H19.121A12.075,12.075,0,0,0,7.855,14.438L5.7,19.79,4.478,22.809A6.863,6.863,0,0,0,0,29.219v5.156a6.787,6.787,0,0,0,1.733,4.5v5.808A3.453,3.453,0,0,0,5.2,48.125H8.667a3.453,3.453,0,0,0,3.467-3.437V41.25H39.867v3.438a3.453,3.453,0,0,0,3.467,3.438H46.8a3.453,3.453,0,0,0,3.467-3.437V38.879A6.782,6.782,0,0,0,52,34.375V29.219a6.863,6.863,0,0,0-4.479-6.41ZM14.292,16.991a5.2,5.2,0,0,1,4.828-3.241H32.879a5.2,5.2,0,0,1,4.828,3.241l2.159,5.353H12.133ZM8.667,34.354A3.256,3.256,0,0,1,5.2,30.927,3.257,3.257,0,0,1,8.667,27.5c2.08,0,5.2,3.084,5.2,5.14S10.747,34.354,8.667,34.354Zm34.667,0c-2.08,0-5.2.343-5.2-1.713s3.12-5.14,5.2-5.14A3.257,3.257,0,0,1,46.8,30.927a3.257,3.257,0,0,1-3.467,3.427Z" transform="translate(0 -6.875)"/>
</svg>
