<svg width="50" height="50" viewBox="0 0 50 50" fill="none" xmlns="http://www.w3.org/2000/svg">
<g clip-path="url(#clip0_2464_10308)">
<path d="M24.9995 45.4546C36.2963 45.4546 45.4541 36.2968 45.4541 25C45.4541 13.7032 36.2963 4.54541 24.9995 4.54541C13.7028 4.54541 4.54492 13.7032 4.54492 25C4.54492 36.2968 13.7028 45.4546 24.9995 45.4546Z" fill="#ECF0F9"/>
<path d="M21.5511 25.4969L26.0297 44.8641L31.1919 25.6679L26.7135 6.30066L21.5511 25.4969Z" fill="#D5E3EF"/>
<path d="M25 0C11.1363 0 0 11.1363 0 25C0 38.8637 11.1363 50 25 50C38.8637 50 50 38.8637 50 25C50 11.1363 38.8637 0 25 0ZM25 45.4546C13.75 45.4546 4.54541 36.25 4.54541 25C4.54541 13.75 13.75 4.54541 25 4.54541C36.25 4.54541 45.4546 13.75 45.4546 25C45.4546 36.25 36.25 45.4546 25 45.4546Z" fill="#595A66"/>
<path d="M6.24951 26.7046C6.24951 15.4546 15.4541 6.25 26.7041 6.25C31.9313 6.25 36.7041 8.18184 40.2269 11.4772C36.4768 7.15908 31.1358 4.54541 24.9995 4.54541C13.7495 4.54541 4.54492 13.75 4.54492 25C4.54492 31.1363 7.15859 36.4772 11.4768 40.2272C8.18135 36.7046 6.24951 31.9318 6.24951 26.7046Z" fill="#D5E3EF"/>
<path d="M5.68184 26.1364H1.13633C0.45459 26.1364 0 25.6819 0 25.0001C0 24.3183 0.45459 23.8638 1.13633 23.8638H5.68174C6.36357 23.8638 6.81807 24.3184 6.81807 25.0001C6.81816 25.6819 6.36367 26.1364 5.68184 26.1364Z" fill="#595A66"/>
<path d="M4.65859 23.8638C4.54492 24.2047 4.54492 24.6592 4.54492 25.0001C4.54492 25.341 4.54492 25.7955 4.65859 26.1364H5.68135C5.90859 26.1364 6.13594 26.0228 6.24951 25.9092C6.24951 25.341 6.36318 24.6592 6.36318 24.091C6.24951 23.9773 6.02227 23.8638 5.68135 23.8638H4.65859Z" fill="#494A52"/>
<path d="M48.8634 26.1364H44.318C43.6361 26.1364 43.1816 25.6818 43.1816 25.0001C43.1816 24.3183 43.6362 23.8638 44.318 23.8638H48.8634C49.5452 23.8638 49.9997 24.3184 49.9997 25.0001C49.9997 25.6819 49.5451 26.1364 48.8634 26.1364Z" fill="#595A66"/>
<path d="M23.8633 5.68184V1.13633C23.8633 0.45459 24.3178 0 24.9996 0C25.6814 0 26.1359 0.45459 26.1359 1.13633V5.68174C26.1359 6.36357 25.6813 6.81807 24.9996 6.81807C24.3178 6.81816 23.8633 6.36367 23.8633 5.68184Z" fill="#595A66"/>
<path d="M24.9996 4.54541C24.6587 4.54541 24.2042 4.54541 23.8633 4.65908V5.68184C23.8633 6.02275 23.977 6.25 24.2042 6.47725C24.7724 6.36357 25.3405 6.36357 26.0224 6.36357C26.0224 6.13633 26.136 5.90898 26.136 5.68174V4.65908C25.795 4.54541 25.3405 4.54541 24.9996 4.54541Z" fill="#494A52"/>
<path d="M23.8633 48.8636V44.3182C23.8633 43.6364 24.3179 43.1819 24.9996 43.1819C25.6814 43.1819 26.1359 43.6365 26.1359 44.3182V48.8636C26.1359 49.5455 25.6813 49.9999 24.9996 49.9999C24.3178 49.9999 23.8633 49.5454 23.8633 48.8636Z" fill="#595A66"/>
<path d="M24.9996 37.5C24.3178 37.5 23.8633 37.0454 23.8633 36.3637V13.6363C23.8633 12.9545 24.3179 12.5 24.9996 12.5C25.6814 12.5 26.1359 12.9546 26.1359 13.6363V36.3636C26.1359 37.0454 25.6814 37.5 24.9996 37.5Z" fill="#B0C4D9"/>
<path d="M23.8633 32.8409L26.1359 31.4772V20.7954L23.8633 22.0454V32.8409Z" fill="#89ABC6"/>
<path d="M24.7482 32.8957C24.1055 32.8799 23.6355 32.3862 23.6512 31.7435L23.9864 18.0876C24.0021 17.4449 24.4959 16.9748 25.1386 16.9906C25.7813 17.0063 26.2513 17.5001 26.2356 18.1428L25.9004 31.7987C25.8847 32.4414 25.3086 32.9898 24.7482 32.8957Z" fill="#B0C4D9"/>
<path d="M12.5 25.0001C12.5 24.3183 12.9546 23.8638 13.6363 23.8638H36.3636C37.0454 23.8638 37.4999 24.3184 37.4999 25.0001C37.4999 25.6819 37.0453 26.1364 36.3636 26.1364H13.6363C12.9546 26.1364 12.5 25.6819 12.5 25.0001Z" fill="#B0C4D9"/>
<path d="M29.585 25.6394L19.9442 25.4685L25.1065 6.27228L29.585 25.6394Z" fill="#F04B4D"/>
<path d="M19.9448 25.4686L29.5856 25.6396L24.4233 44.8358L19.9448 25.4686Z" fill="#4C9CD6"/>
<path d="M19.9448 25.4686L24.4233 44.8358L24.7652 25.5541L19.9448 25.4686Z" fill="#70B7E5"/>
<path d="M24.7646 25.5539L25.1065 6.27228L19.9442 25.4685L24.7646 25.5539Z" fill="#F26A56"/>
<path d="M26.3428 27.1894C27.2459 26.3177 27.2714 24.8789 26.3998 23.9757C25.5281 23.0726 24.0893 23.047 23.1861 23.9187C22.2829 24.7904 22.2574 26.2292 23.1291 27.1324C24.0008 28.0356 25.4396 28.0611 26.3428 27.1894Z" fill="#595A66"/>
<path d="M23.999 23.4508C24.3175 23.6172 24.557 23.7018 24.7938 23.9471C25.6619 24.8466 25.6362 26.2927 24.7368 27.1608C24.4915 27.3976 24.1673 27.5525 23.9249 27.6286C24.7226 27.9642 25.6895 27.8207 26.3436 27.1894C27.2431 26.3213 27.2687 24.8751 26.4006 23.9757C25.7693 23.3215 24.808 23.1436 23.999 23.4508Z" fill="#494A52"/>
<path d="M25 0C11.1363 0 0 11.1363 0 25C1.25 25 2.27275 24.0909 2.38633 22.8409C2.95459 17.3863 5.34092 12.3863 9.09092 8.75C12.7272 5.22725 17.5 2.84092 22.8409 2.38633C24.0909 2.27275 25 1.25 25 0Z" fill="#6F707E"/>
<path d="M25 50C38.8637 50 50 38.8637 50 25C48.75 25 47.7272 25.9091 47.6137 27.1591C47.1591 32.5 44.7728 37.2728 41.25 40.9091C37.6137 44.6591 32.7272 47.0454 27.1591 47.6137C25.9091 47.7272 25 48.75 25 50Z" fill="#494A52"/>
<path d="M24.3561 25.9487C24.5819 25.7308 24.5883 25.3711 24.3704 25.1453C24.1525 24.9195 23.7928 24.9132 23.567 25.1311C23.3412 25.349 23.3349 25.7087 23.5528 25.9344C23.7707 26.1602 24.1304 26.1666 24.3561 25.9487Z" fill="#6F707E"/>
</g>
<defs>
<clipPath id="clip0_2464_10308">
<rect width="50" height="50" fill="white"/>
</clipPath>
</defs>
</svg>
