<svg width="37" height="37" viewBox="0 0 37 37" fill="none" xmlns="http://www.w3.org/2000/svg">
<path d="M36.492 2.96076C37.1693 2.28345 37.1693 1.18529 36.492 0.507982C35.8147 -0.169327 34.7167 -0.169327 34.0394 0.507982L28.3834 6.1639C24.75 3.67991 19.7509 4.05067 16.5253 7.2762L15.8316 7.96995C14.486 9.3155 14.486 11.4971 15.8316 12.8426L24.1566 21.1677C25.5021 22.5131 27.6837 22.5131 29.0293 21.1677L29.7231 20.474C32.9483 17.2487 33.3192 12.25 30.8361 8.61685L36.492 2.96076ZM12.8435 15.8324C11.4979 14.4868 9.31636 14.4868 7.97078 15.8324L7.27705 16.5261C4.0518 19.7513 3.68081 24.75 6.16407 28.3832L0.507982 34.0394C-0.169327 34.7167 -0.169327 35.8147 0.507982 36.492C1.18529 37.1693 2.28345 37.1693 2.96076 36.492L8.61668 30.8361C12.25 33.3202 17.2492 32.9495 20.4747 29.7238L21.1684 29.03C22.5141 27.6846 22.5141 25.503 21.1684 24.1573L12.8435 15.8324Z" fill="white"/>
</svg>
