<svg width="88" height="88" viewBox="0 0 88 88" fill="none" xmlns="http://www.w3.org/2000/svg">
<g clip-path="url(#clip0_88_161)">
<path d="M51.6856 84.8116C50.6763 85.8209 49.4782 86.6215 48.1595 87.1677C46.8408 87.7139 45.4274 87.9951 44.0001 87.9951C42.5727 87.9951 41.1593 87.7139 39.8407 87.1677C38.522 86.6215 37.3238 85.8209 36.3145 84.8116L3.18587 51.6854C2.17658 50.6761 1.37597 49.4779 0.829745 48.1592C0.28352 46.8405 0.00238037 45.4272 0.00238037 43.9998C0.00238037 42.5725 0.28352 41.1591 0.829745 39.8404C1.37597 38.5217 2.17658 37.3235 3.18587 36.3142L36.3145 3.17355C37.3238 2.16425 38.522 1.36364 39.8407 0.817416C41.1593 0.27119 42.5727 -0.00994873 44.0001 -0.00994873C45.4274 -0.00994873 46.8408 0.27119 48.1595 0.817416C49.4782 1.36364 50.6763 2.16425 51.6856 3.17355L84.8167 36.3142C85.826 37.3235 86.6266 38.5217 87.1728 39.8404C87.719 41.1591 88.0002 42.5725 88.0002 43.9998C88.0002 45.4272 87.719 46.8405 87.1728 48.1592C86.6266 49.4779 85.826 50.6761 84.8167 51.6854L51.6856 84.8116Z" fill="url(#paint0_radial_88_161)"/>
<path d="M51.1689 82.4522C49.2436 84.3764 46.6329 85.4573 43.9109 85.4573C41.1888 85.4573 38.5782 84.3764 36.6528 82.4522L5.36953 51.1689C4.41618 50.2159 3.65993 49.0844 3.14396 47.8391C2.628 46.5937 2.36243 45.2589 2.36243 43.9109C2.36243 42.5629 2.628 41.2281 3.14396 39.9827C3.65993 38.7374 4.41618 37.6059 5.36953 36.6528L36.6528 5.36952C37.6059 4.41618 38.7374 3.65992 39.9827 3.14396C41.2281 2.62799 42.5629 2.36243 43.9109 2.36243C45.2589 2.36243 46.5937 2.62799 47.8391 3.14396C49.0844 3.65992 50.2159 4.41618 51.1689 5.36952L82.4547 36.6577C84.3789 38.583 85.4598 41.1937 85.4598 43.9157C85.4598 46.6378 84.3789 49.2484 82.4547 51.1738L51.1689 82.4522Z" fill="url(#paint1_linear_88_161)"/>
<path d="M79.5633 36.4545L51.5455 8.43675C50.5568 7.44286 49.3809 6.65488 48.0858 6.1184C46.7906 5.58193 45.4019 5.30761 44 5.31132C42.5982 5.30788 41.2096 5.58232 39.9144 6.11878C38.6193 6.65523 37.4434 7.44307 36.4545 8.43675L8.43676 36.4545C6.43793 38.457 5.31531 41.1707 5.31531 44C5.31531 46.8293 6.43793 49.5431 8.43676 51.5455L36.4545 79.5633C37.4434 80.557 38.6193 81.3448 39.9144 81.8813C41.2096 82.4177 42.5982 82.6921 44 82.6887C45.4019 82.6926 46.7906 82.4183 48.0858 81.8818C49.381 81.3453 50.5569 80.5573 51.5455 79.5633L79.5633 51.5455C81.5621 49.5431 82.6847 46.8293 82.6847 44C82.6847 41.1707 81.5621 38.457 79.5633 36.4545ZM77.4716 49.4538L49.4538 77.4716C48.7401 78.1917 47.8905 78.763 46.9543 79.1523C46.0181 79.5416 45.0139 79.7412 44 79.7396C42.9868 79.7422 41.9832 79.544 41.047 79.1564C40.1109 78.7688 39.2609 78.1994 38.5462 77.4813L10.5284 49.4635C9.08595 48.0149 8.27607 46.0539 8.27607 44.0097C8.27607 41.9654 9.08595 40.0044 10.5284 38.5559L38.5462 10.5381C39.2601 9.81819 40.1098 9.24706 41.0459 8.85776C41.9821 8.46845 42.9862 8.26871 44 8.27009C45.0133 8.26718 46.017 8.46528 46.9532 8.85292C47.8893 9.24057 48.7393 9.81006 49.4538 10.5284L77.4716 38.5462C78.9141 39.9947 79.724 41.9558 79.724 44C79.724 46.0443 78.9141 48.0053 77.4716 49.4538Z" fill="#1F140F"/>
<path d="M45.1811 9.69512C45.5781 9.8689 45.937 10.1194 46.237 10.4321C46.537 10.7449 46.7723 11.1139 46.9294 11.5178C47.0865 11.9217 47.1622 12.3527 47.1524 12.786C47.1425 13.2193 47.0472 13.6464 46.8718 14.0427C46.5207 14.8385 45.8689 15.463 45.0589 15.7798C44.2488 16.0966 43.3462 16.0799 42.5484 15.7334C41.7478 15.3809 41.12 14.7249 40.803 13.9097C40.4859 13.0944 40.5056 12.1866 40.8577 11.3859C41.2098 10.5909 41.8617 9.96722 42.6714 9.65057C43.4811 9.33392 44.3831 9.34993 45.1811 9.69512Z" fill="url(#paint2_linear_88_161)"/>
<path d="M44.9661 10.2458C45.2917 10.3871 45.5862 10.5911 45.8328 10.8464C46.0794 11.1017 46.2732 11.403 46.4031 11.7333C46.533 12.0636 46.5964 12.4162 46.5898 12.7711C46.5832 13.1259 46.5067 13.476 46.3646 13.8012C46.2229 14.1263 46.0185 14.4204 45.7631 14.6665C45.5077 14.9127 45.2063 15.1061 44.8761 15.2358C44.5459 15.3654 44.1935 15.4287 43.8388 15.4221C43.4842 15.4155 43.1343 15.3391 42.8092 15.1972C42.4841 15.0558 42.1901 14.8516 41.944 14.5964C41.6979 14.3413 41.5045 14.0401 41.3748 13.7101C41.2452 13.3801 41.1818 13.0278 41.1884 12.6734C41.195 12.3189 41.2713 11.9692 41.4132 11.6443C41.5542 11.3188 41.758 11.0243 42.013 10.7778C42.2681 10.5312 42.5693 10.3374 42.8993 10.2075C43.2294 10.0776 43.5819 10.0141 43.9365 10.0207C44.2912 10.0272 44.6411 10.1038 44.9661 10.2458Z" fill="url(#paint3_linear_88_161)"/>
<path d="M44.7512 10.741C45.2753 10.9708 45.6867 11.3994 45.895 11.9324C46.1034 12.4655 46.0916 13.0595 45.8622 13.5838C45.6302 14.1062 45.2018 14.5162 44.6698 14.7251C44.1377 14.9339 43.5448 14.9248 43.0194 14.6997C42.4974 14.4708 42.0874 14.0443 41.8792 13.5138C41.6709 12.9832 41.6814 12.3918 41.9083 11.8689C42.0198 11.6073 42.182 11.3703 42.3856 11.1718C42.5892 10.9732 42.8301 10.817 43.0945 10.7121C43.3588 10.6072 43.6414 10.5557 43.9257 10.5607C44.2101 10.5657 44.4906 10.6269 44.7512 10.741Z" fill="url(#paint4_radial_88_161)"/>
<path d="M45.3792 13.1587L45.2246 13.5186L42.3069 12.2481L42.4663 11.8882L45.3792 13.1587ZM44.6546 11.3206L44.2947 11.1636L43.7368 12.4462L44.0991 12.6008L44.6546 11.3206ZM43.93 12.9582L43.5701 12.8036L43.0097 14.0789L43.372 14.2383L43.93 12.9582Z" fill="#5C5B5F"/>
<path d="M45.1811 70.728C45.9799 71.079 46.6067 71.7329 46.9238 72.5458C47.2408 73.3588 47.2221 74.2643 46.8718 75.0635C46.5239 75.8636 45.8725 76.4927 45.0608 76.8124C44.2491 77.1322 43.3436 77.1165 42.5435 76.7687C41.7462 76.4166 41.1207 75.7631 40.8038 74.9511C40.487 74.1391 40.5046 73.2347 40.8528 72.4356C41.2007 71.6356 41.852 71.0063 42.6636 70.6861C43.4751 70.366 44.3806 70.381 45.1811 70.728Z" fill="url(#paint5_linear_88_161)"/>
<path d="M44.9662 71.286C45.2918 71.4274 45.5864 71.6318 45.833 71.8873C46.0796 72.1427 46.2734 72.4443 46.4033 72.7748C46.5332 73.1053 46.5967 73.4581 46.59 73.8131C46.5834 74.1681 46.5068 74.5184 46.3646 74.8437C46.2229 75.1689 46.0185 75.4629 45.7631 75.709C45.5076 75.9551 45.2062 76.1484 44.8759 76.2778C44.5457 76.4072 44.1932 76.4703 43.8386 76.4634C43.484 76.4564 43.1342 76.3796 42.8093 76.2374C42.4843 76.0961 42.1903 75.8922 41.9442 75.6373C41.6981 75.3823 41.5047 75.0813 41.3751 74.7516C41.2454 74.4218 41.182 74.0697 41.1886 73.7154C41.1951 73.3611 41.2715 73.0116 41.4132 72.6868C41.554 72.3611 41.7577 72.0664 42.0126 71.8196C42.2675 71.5728 42.5687 71.3788 42.8988 71.2486C43.2289 71.1185 43.5814 71.0548 43.9362 71.0612C44.291 71.0676 44.641 71.144 44.9662 71.286Z" fill="url(#paint6_linear_88_161)"/>
<path d="M44.7512 71.769C45.2745 72.0019 45.6848 72.4319 45.8928 72.9656C46.1009 73.4993 46.0899 74.0935 45.8622 74.6191C45.6307 75.142 45.2025 75.5525 44.6704 75.7618C44.1382 75.9712 43.5451 75.9624 43.0194 75.7374C42.7587 75.6245 42.5229 75.4613 42.3255 75.257C42.1281 75.0528 41.973 74.8115 41.8691 74.5471C41.7652 74.2828 41.7145 74.0005 41.72 73.7165C41.7255 73.4325 41.787 73.1523 41.9011 72.8922C42.0135 72.6305 42.1766 72.3936 42.381 72.1953C42.5855 71.997 42.8271 71.8412 43.0921 71.7367C43.3571 71.6323 43.6401 71.5814 43.9249 71.587C44.2096 71.5925 44.4905 71.6544 44.7512 71.769Z" fill="url(#paint7_radial_88_161)"/>
<path d="M45.3792 74.1844L45.2246 74.5442L42.3069 73.2762L42.4663 72.9139L45.3792 74.1844ZM44.6546 72.3463L44.2947 72.1917L43.7368 73.4718L44.0991 73.6264L44.6546 72.3463ZM43.93 73.9863L43.5701 73.8293L43.0097 75.107L43.372 75.264L43.93 73.9863Z" fill="#5C5B5F"/>
<path d="M54.5075 28.1227L51.8549 30.1117L52.9394 31.0746L54.5075 28.1227ZM36.3467 30.1117L33.694 28.1227L35.2621 31.0746L36.3467 30.1117ZM48.5803 24.5554L46.7236 28.3254L48.101 28.7445L48.5803 24.5554ZM41.4779 28.3254L39.6212 24.5554L40.1006 28.7445L41.4779 28.3254Z" fill="black"/>
<path d="M31.7127 57.4689C32.3301 57.4689 32.8306 56.9561 32.8306 56.3235C32.8306 55.691 32.3301 55.1782 31.7127 55.1782C31.0952 55.1782 30.5947 55.691 30.5947 56.3235C30.5947 56.9561 31.0952 57.4689 31.7127 57.4689Z" fill="black"/>
<path d="M56.2867 57.4689C56.9041 57.4689 57.4047 56.9561 57.4047 56.3235C57.4047 55.691 56.9041 55.1782 56.2867 55.1782C55.6693 55.1782 55.1688 55.691 55.1688 56.3235C55.1688 56.9561 55.6693 57.4689 56.2867 57.4689Z" fill="black"/>
<path d="M61.1568 54.127L61.0113 54.1365C61.1628 51.5751 61.2617 48.2672 60.7925 47.9172C59.3186 46.8195 58.2525 45.6222 57.4643 44.4262C58.5954 44.4238 59.9971 44.3141 60.5743 43.8276C61.2641 43.2462 61.7733 41.7258 61.1282 41.0968C60.3525 40.3431 57.757 40.8255 57.0153 41.4718C56.7697 41.6853 56.561 42.0543 56.3899 42.4568C54.9046 39.1059 55.1694 36.2267 54.2213 36.2267C54.2213 36.2267 53.8368 36.1927 53.1267 36.1456V35.2781H54.9517V32.5479H33.0489V35.2781H34.8746V36.1456C34.1639 36.1927 33.7787 36.2267 33.7787 36.2267C32.9601 36.2267 33.1049 39.227 31.6424 42.5355C31.4653 42.102 31.2471 41.6996 30.9853 41.4718C30.2442 40.8255 27.6458 40.3431 26.8719 41.0968C26.2267 41.7258 26.7365 43.2462 27.427 43.8276C28.0184 44.326 29.4768 44.4298 30.621 44.4268C29.7257 45.8047 28.5656 46.9911 27.2081 47.9172C26.7377 48.2397 26.8379 51.5644 26.9893 54.1365L26.8427 54.127C26.4396 54.127 26.1129 54.3464 26.1129 54.6159V57.5506C26.1129 57.8207 26.4396 58.0395 26.8427 58.0395C26.8427 58.0395 27.4097 58.0771 28.4275 58.1295V59.511C28.4275 59.9636 28.7542 60.3297 29.1578 60.3297H34.2676C34.6719 60.3297 34.9986 59.9636 34.9986 59.5116V58.3901L35.7552 58.411V58.6721C35.7552 59.2892 36.2555 59.7901 36.8732 59.7901H37.0127C37.4414 59.7901 37.8093 59.5462 37.9965 59.192H50.003C50.0969 59.3719 50.2381 59.5227 50.4115 59.6281C50.5849 59.7335 50.7838 59.7895 50.9867 59.7901H51.1263C51.7434 59.7901 52.2442 59.2892 52.2442 58.6721V58.411L53.0003 58.3907V59.5116C53.0003 59.9636 53.3276 60.3297 53.7306 60.3297H58.8416C59.2453 60.3297 59.572 59.9636 59.572 59.5116V58.1307C60.5939 58.0771 61.1568 58.0401 61.1568 58.0401C61.5611 58.0401 61.8872 57.8213 61.8872 57.5512V54.6165C61.8872 54.3464 61.5611 54.127 61.1568 54.127ZM58.1052 49.112L59.0038 49.0172C59.408 49.0172 59.7348 49.3356 59.7348 49.7285V51.8619C59.7348 52.2548 59.408 52.5732 59.0038 52.5732L58.1052 52.668V49.112ZM57.5013 49.1752V52.7318L53.7813 53.1235C53.3777 53.1235 53.0509 52.8057 53.0509 52.4134V50.2795C53.0509 49.8871 53.3777 49.5687 53.7813 49.5687L57.5013 49.1752ZM53.7402 48.8676L51.6742 48.1491C53.0778 45.5775 56.1204 43.8663 56.1204 43.8663C53.9906 47.0896 53.7402 48.8676 53.7402 48.8676ZM37.0127 52.3144H36.8732C36.6234 52.3144 36.3944 52.3997 36.2084 52.538V51.1512C36.2084 50.7141 36.5113 50.3594 36.8857 50.3594H51.1143C51.4882 50.3594 51.7911 50.7141 51.7911 51.1512V52.5374C51.5998 52.3932 51.367 52.315 51.1275 52.3144H50.9879C50.3708 52.3144 49.87 52.8153 49.87 53.4324V54.0823C49.6196 54.2755 49.4163 54.5241 49.2833 54.8151H38.7191C38.5855 54.5267 38.3837 54.2753 38.1312 54.0823V53.433C38.1311 53.1364 38.0132 52.852 37.8035 52.6422C37.5937 52.4325 37.3093 52.3146 37.0127 52.3144ZM48.2458 33.1436H54.3549V34.6813H48.2458V33.1436ZM33.6451 34.6813V33.1436H39.753V34.6813H33.6451ZM34.874 37.5736C34.874 37.5736 38.7978 37.322 44 37.322C49.2016 37.322 53.1267 37.5736 53.1267 37.5736L54.5857 43.2629C54.5857 43.2629 49.5671 43.0119 44 43.0119C38.4335 43.0119 33.4132 43.2629 33.4132 43.2629L34.874 37.5736ZM36.3252 48.1491L34.2593 48.8676C34.2593 48.8676 34.0083 47.0896 31.8785 43.8663C31.8785 43.8669 34.9211 45.5781 36.3252 48.1491ZM30.4994 49.1752L34.2175 49.5676C34.6218 49.5676 34.9485 49.8853 34.9485 50.2777V52.4122C34.9485 52.8051 34.6218 53.1229 34.2175 53.1229L30.4994 52.7306V49.1752ZM28.2647 49.7279C28.2647 49.335 28.5908 49.0172 28.9951 49.0172L29.8954 49.112V52.6674L28.9951 52.5726C28.5908 52.5726 28.2647 52.2548 28.2647 51.8625V49.7279ZM35.7552 57.8141C30.4111 57.674 26.9315 57.448 26.8814 57.4445L26.8623 57.4433H26.8427C26.7974 57.4436 26.7523 57.437 26.7091 57.4236V54.7429C26.7471 54.7308 26.7867 54.7242 26.8266 54.7232C27.1318 54.7429 30.2883 54.9409 35.0749 55.0768C35.0191 55.255 34.9894 55.4404 34.9867 55.6271C34.9867 56.258 35.2914 56.8136 35.7552 57.1714V57.8141ZM36.9429 56.9812C36.7552 56.9879 36.5681 56.9567 36.3927 56.8894C36.2174 56.8222 36.0573 56.7203 35.9222 56.5899C35.7871 56.4594 35.6796 56.3031 35.6062 56.1302C35.5328 55.9573 35.495 55.7714 35.4951 55.5836C35.4951 55.3958 35.533 55.2099 35.6064 55.037C35.6799 54.8642 35.7874 54.7079 35.9226 54.5775C36.0578 54.4471 36.2179 54.3453 36.3933 54.2781C36.5687 54.211 36.7558 54.1799 36.9435 54.1866C37.3055 54.1996 37.6482 54.3526 37.8996 54.6133C38.151 54.874 38.2915 55.222 38.2914 55.5842C38.2913 55.9464 38.1507 56.2944 37.8992 56.5549C37.6477 56.8155 37.3049 56.9683 36.9429 56.9812ZM39.5282 57.8911C39.053 57.8839 38.5874 57.8767 38.1306 57.8678V57.1714C38.3689 56.9903 38.5622 56.7567 38.6955 56.4888C38.8288 56.2209 38.8985 55.9258 38.8992 55.6265C38.8992 55.465 38.8748 55.3111 38.8372 55.1609C39.2069 55.1674 39.5276 55.1776 39.5276 55.1776V57.8911H39.5282ZM49.8694 57.8678C49.4133 57.8767 48.9476 57.8839 48.4718 57.8911V55.1776C48.4718 55.1776 48.7932 55.1668 49.1629 55.1609C49.1234 55.313 49.1026 55.4694 49.1008 55.6265C49.1008 56.258 49.4055 56.8131 49.8694 57.1708V57.8678ZM51.0571 57.0241C50.8694 57.0308 50.6823 56.9996 50.5069 56.9324C50.3315 56.8651 50.1715 56.7632 50.0364 56.6328C49.9012 56.5024 49.7938 56.346 49.7204 56.1731C49.647 56.0002 49.6092 55.8143 49.6092 55.6265C49.6093 55.4387 49.6471 55.2528 49.7206 55.08C49.7941 54.9071 49.9016 54.7508 50.0368 54.6204C50.172 54.49 50.3321 54.3882 50.5075 54.3211C50.6829 54.2539 50.87 54.2228 51.0577 54.2295C51.4196 54.2426 51.7624 54.3955 52.0138 54.6562C52.2652 54.9169 52.4057 55.265 52.4056 55.6271C52.4055 55.9893 52.2649 56.3373 52.0134 56.5979C51.7619 56.8584 51.419 57.0112 51.0571 57.0241ZM61.291 57.4236C61.2476 57.4373 61.2023 57.444 61.1568 57.4433H61.1371L61.1174 57.4445C61.068 57.448 57.5889 57.674 52.2448 57.8141V57.172C52.4831 56.9908 52.6763 56.7571 52.8096 56.489C52.9429 56.221 53.0126 55.9259 53.0134 55.6265C53.0134 55.4345 52.977 55.2521 52.9263 55.0762C57.7117 54.9403 60.8676 54.7423 61.1729 54.7226C61.2224 54.7244 61.2623 54.7334 61.291 54.7423V57.4236Z" fill="black"/>
<path d="M38.7596 51.1768H49.2403V51.6133H38.7596V51.1768ZM38.7596 52.3681H49.2403V52.804H38.7596V52.3681ZM38.7596 53.5594H49.2403V53.9958H38.7596V53.5594Z" fill="black"/>
<path d="M32.8545 52.73C33.7123 52.73 34.4077 52.0346 34.4077 51.1768C34.4077 50.319 33.7123 49.6236 32.8545 49.6236C31.9967 49.6236 31.3013 50.319 31.3013 51.1768C31.3013 52.0346 31.9967 52.73 32.8545 52.73Z" fill="black"/>
<path d="M55.1443 52.73C56.0021 52.73 56.6975 52.0346 56.6975 51.1768C56.6975 50.319 56.0021 49.6236 55.1443 49.6236C54.2865 49.6236 53.5911 50.319 53.5911 51.1768C53.5911 52.0346 54.2865 52.73 55.1443 52.73Z" fill="black"/>
</g>
<defs>
<radialGradient id="paint0_radial_88_161" cx="0" cy="0" r="1" gradientUnits="userSpaceOnUse" gradientTransform="translate(44.0001 43.9998) scale(44 44)">
<stop stop-color="#FF0000"/>
<stop offset="0.17" stop-color="#FE0000"/>
<stop offset="0.39" stop-color="#FB0000"/>
<stop offset="0.65" stop-color="#F72C00"/>
<stop offset="0.92" stop-color="#F20303"/>
<stop offset="1" stop-color="#EE0000"/>
</radialGradient>
<linearGradient id="paint1_linear_88_161" x1="43.9109" y1="85.4569" x2="43.9109" y2="2.36245" gradientUnits="userSpaceOnUse">
<stop stop-color="white"/>
<stop offset="0.05" stop-color="white"/>
<stop offset="0.37" stop-color="white"/>
<stop offset="0.7" stop-color="white"/>
<stop offset="0.76" stop-color="white"/>
<stop offset="0.97" stop-color="white"/>
<stop offset="1" stop-color="white"/>
</linearGradient>
<linearGradient id="paint2_linear_88_161" x1="41.958" y1="16.5234" x2="44.5832" y2="10.5001" gradientUnits="userSpaceOnUse">
<stop stop-color="#1F140F"/>
<stop offset="0.22" stop-color="#483F3B"/>
<stop offset="0.71" stop-color="#ADAAAA"/>
<stop offset="1" stop-color="#EDEEF0"/>
</linearGradient>
<linearGradient id="paint3_linear_88_161" x1="42.8247" y1="16.5804" x2="44.978" y2="11.6356" gradientUnits="userSpaceOnUse">
<stop stop-color="#EDEEF0"/>
<stop offset="0.29" stop-color="#ADAAAA"/>
<stop offset="0.78" stop-color="#483F3B"/>
<stop offset="1" stop-color="#1F140F"/>
</linearGradient>
<radialGradient id="paint4_radial_88_161" cx="0" cy="0" r="1" gradientUnits="userSpaceOnUse" gradientTransform="translate(44.3089 12.3871) rotate(-66.44) scale(2.16184)">
<stop stop-color="#D8DADE"/>
<stop offset="0.57" stop-color="#9C9CA0"/>
<stop offset="1" stop-color="#737377"/>
</radialGradient>
<linearGradient id="paint5_linear_88_161" x1="41.9537" y1="77.5861" x2="44.5892" y2="71.5392" gradientUnits="userSpaceOnUse">
<stop stop-color="#1F140F"/>
<stop offset="0.22" stop-color="#483F3B"/>
<stop offset="0.71" stop-color="#ADAAAA"/>
<stop offset="1" stop-color="#EDEEF0"/>
</linearGradient>
<linearGradient id="paint6_linear_88_161" x1="42.8455" y1="77.6378" x2="45.0073" y2="72.6736" gradientUnits="userSpaceOnUse">
<stop stop-color="#EDEEF0"/>
<stop offset="0.29" stop-color="#ADAAAA"/>
<stop offset="0.78" stop-color="#483F3B"/>
<stop offset="1" stop-color="#1F140F"/>
</linearGradient>
<radialGradient id="paint7_radial_88_161" cx="0" cy="0" r="1" gradientUnits="userSpaceOnUse" gradientTransform="translate(44.2993 73.3877) rotate(-66.44) scale(2.16184)">
<stop stop-color="#D8DADE"/>
<stop offset="0.57" stop-color="#9C9CA0"/>
<stop offset="1" stop-color="#737377"/>
</radialGradient>
<clipPath id="clip0_88_161">
<rect width="88" height="88" fill="white"/>
</clipPath>
</defs>
</svg>
