<svg width="24" height="19" viewBox="0 0 24 19" fill="none" xmlns="http://www.w3.org/2000/svg">
<path d="M23.4714 14.9268L23.3771 14.933C23.4752 13.2739 23.5394 11.1312 23.2354 10.9045C22.2807 10.1936 21.5902 9.41806 21.0796 8.64334C21.8123 8.6418 22.7202 8.57074 23.0941 8.2556C23.5409 7.87906 23.8707 6.89424 23.4528 6.4868C22.9504 5.99864 21.2693 6.31108 20.7888 6.72972C20.6297 6.86798 20.4945 7.10704 20.3837 7.36772C19.4217 5.19728 19.5932 3.33232 18.9791 3.33232C18.9791 3.33232 18.73 3.3103 18.27 3.27979V2.71787H19.4522V0.949463H5.26513V2.71787H6.44767V3.27979C5.98732 3.3103 5.73784 3.33232 5.73784 3.33232C5.20758 3.33232 5.30143 5.27568 4.35408 7.4187C4.23938 7.13794 4.09803 6.87725 3.92849 6.72972C3.44844 6.31108 1.76538 5.99864 1.26409 6.4868C0.846225 6.89424 1.17643 7.87906 1.62365 8.2556C2.00676 8.57846 2.9514 8.64566 3.69252 8.64373C3.11261 9.53627 2.3612 10.3047 1.48191 10.9045C1.1772 11.1135 1.24208 13.2669 1.34018 14.933L1.24517 14.9268C0.984099 14.9268 0.772461 15.0689 0.772461 15.2435V17.1444C0.772461 17.3193 0.984099 17.4611 1.24517 17.4611C1.24517 17.4611 1.61245 17.4854 2.27169 17.5194V18.4142C2.27169 18.7073 2.48333 18.9445 2.74479 18.9445H6.05452C6.31637 18.9445 6.528 18.7073 6.528 18.4146V17.6882L7.01809 17.7017V17.8708C7.01809 18.2705 7.34211 18.595 7.74222 18.595H7.83259C8.11027 18.595 8.34855 18.437 8.46982 18.2076H16.2467C16.3076 18.3241 16.3991 18.4218 16.5114 18.4901C16.6237 18.5583 16.7525 18.5946 16.884 18.595H16.9743C17.3741 18.595 17.6985 18.2705 17.6985 17.8708V17.7017L18.1882 17.6885V18.4146C18.1882 18.7073 18.4002 18.9445 18.6613 18.9445H21.9718C22.2332 18.9445 22.4449 18.7073 22.4449 18.4146V17.5202C23.1068 17.4854 23.4714 17.4615 23.4714 17.4615C23.7332 17.4615 23.9445 17.3197 23.9445 17.1448V15.2439C23.9445 15.0689 23.7332 14.9268 23.4714 14.9268ZM21.4948 11.6785L22.0768 11.6171C22.3387 11.6171 22.5503 11.8233 22.5503 12.0778V13.4596C22.5503 13.7142 22.3387 13.9204 22.0768 13.9204L21.4948 13.9818V11.6785ZM21.1036 11.7194V14.0231L18.6941 14.2768C18.4326 14.2768 18.221 14.071 18.221 13.8169V12.4347C18.221 12.1806 18.4326 11.9743 18.6941 11.9743L21.1036 11.7194ZM18.6674 11.5202L17.3293 11.0548C18.2384 9.3891 20.2091 8.2807 20.2091 8.2807C18.8296 10.3685 18.6674 11.5202 18.6674 11.5202ZM7.83259 13.7528H7.74222C7.5804 13.7528 7.4321 13.808 7.3116 13.8976V12.9993C7.3116 12.7162 7.50779 12.4864 7.75033 12.4864H16.9666C17.2088 12.4864 17.4049 12.7162 17.4049 12.9993V13.8972C17.2811 13.8038 17.1302 13.7531 16.9751 13.7528H16.8847C16.485 13.7528 16.1606 14.0772 16.1606 14.4769V14.8979C15.9984 15.023 15.8667 15.184 15.7806 15.3725H8.93789C8.85132 15.1858 8.72063 15.0229 8.5571 14.8979V14.4773C8.557 14.2852 8.48063 14.1009 8.34478 13.9651C8.20893 13.8292 8.02471 13.7529 7.83259 13.7528ZM15.1086 1.33528H19.0656V2.33129H15.1086V1.33528ZM5.65133 2.33129V1.33528H9.60756V2.33129H5.65133ZM6.44729 4.20474C6.44729 4.20474 8.98887 4.04177 12.3585 4.04177C15.7277 4.04177 18.27 4.20474 18.27 4.20474L19.2151 7.88987C19.2151 7.88987 15.9644 7.72728 12.3585 7.72728C8.7529 7.72728 5.5011 7.88987 5.5011 7.88987L6.44729 4.20474ZM7.3873 11.0548L6.04912 11.5202C6.04912 11.5202 5.88652 10.3685 4.50702 8.2807C4.50702 8.28109 6.4778 9.38948 7.3873 11.0548ZM3.61374 11.7194L6.02208 11.9735C6.28393 11.9735 6.49556 12.1794 6.49556 12.4335V13.8161C6.49556 14.0706 6.28393 14.2765 6.02208 14.2765L3.61374 14.0223V11.7194ZM2.16626 12.0774C2.16626 11.8229 2.37751 11.6171 2.63935 11.6171L3.22252 11.6785V13.9814L2.63935 13.92C2.37751 13.92 2.16626 13.7142 2.16626 13.46V12.0774ZM7.01809 17.3151C3.55658 17.2243 1.30271 17.078 1.27027 17.0756L1.25791 17.0749H1.24517C1.21585 17.0751 1.18667 17.0708 1.15866 17.0621V15.3258C1.18329 15.3179 1.20891 15.3137 1.23474 15.313C1.43248 15.3258 3.47702 15.454 6.57744 15.542C6.54129 15.6575 6.52204 15.7775 6.52028 15.8985C6.52028 16.3071 6.71763 16.667 7.01809 16.8988V17.3151ZM7.7874 16.7756C7.66582 16.7799 7.54462 16.7597 7.43102 16.7161C7.31743 16.6726 7.21377 16.6066 7.12624 16.5221C7.03871 16.4376 6.9691 16.3363 6.92156 16.2244C6.87403 16.1124 6.84954 15.992 6.84957 15.8703C6.84959 15.7486 6.87413 15.6282 6.92171 15.5163C6.9693 15.4043 7.03895 15.3031 7.12652 15.2186C7.21409 15.1342 7.31777 15.0682 7.43138 15.0247C7.545 14.9812 7.66621 14.9611 7.78779 14.9654C8.02222 14.9739 8.24423 15.073 8.40708 15.2418C8.56992 15.4107 8.6609 15.6361 8.66085 15.8707C8.6608 16.1053 8.56973 16.3307 8.40681 16.4995C8.24389 16.6682 8.02184 16.7672 7.7874 16.7756ZM9.46197 17.3649C9.15417 17.3603 8.85254 17.3556 8.55671 17.3498V16.8988C8.71104 16.7815 8.83624 16.6302 8.92258 16.4566C9.00892 16.2831 9.05407 16.092 9.05453 15.8981C9.05453 15.7935 9.03869 15.6938 9.01436 15.5965C9.2538 15.6007 9.46158 15.6073 9.46158 15.6073V17.3649H9.46197ZM16.1602 17.3498C15.8648 17.3556 15.5632 17.3603 15.255 17.3649V15.6073C15.255 15.6073 15.4631 15.6004 15.7026 15.5965C15.677 15.695 15.6635 15.7963 15.6624 15.8981C15.6624 16.3071 15.8598 16.6667 16.1602 16.8984V17.3498ZM16.9295 16.8034C16.808 16.8077 16.6868 16.7875 16.5732 16.7439C16.4596 16.7004 16.3559 16.6344 16.2684 16.5499C16.1808 16.4654 16.1112 16.3642 16.0637 16.2522C16.0162 16.1402 15.9917 16.0198 15.9917 15.8981C15.9917 15.7765 16.0163 15.656 16.0638 15.5441C16.1114 15.4321 16.1811 15.3309 16.2687 15.2464C16.3562 15.162 16.4599 15.096 16.5735 15.0525C16.6871 15.009 16.8083 14.9889 16.9299 14.9932C17.1644 15.0017 17.3864 15.1008 17.5492 15.2696C17.7121 15.4385 17.803 15.6639 17.803 15.8985C17.8029 16.1331 17.7119 16.3585 17.5489 16.5273C17.386 16.6961 17.164 16.795 16.9295 16.8034ZM23.5583 17.0621C23.5302 17.071 23.5008 17.0753 23.4714 17.0749H23.4586L23.4459 17.0756C23.4138 17.078 21.1604 17.2243 17.6988 17.3151V16.8991C17.8532 16.7818 17.9783 16.6304 18.0647 16.4568C18.151 16.2832 18.1962 16.092 18.1967 15.8981C18.1967 15.7738 18.1731 15.6556 18.1403 15.5417C21.2399 15.4536 23.2841 15.3254 23.4818 15.3126C23.5139 15.3138 23.5397 15.3196 23.5583 15.3254V17.0621Z" fill="#EF0101"/>
</svg>
