<svg width="18" height="12" viewBox="0 0 18 12" fill="none" xmlns="http://www.w3.org/2000/svg">
<path d="M9.01565 2.5C8.6713 2.53125 8.32696 2.5625 8.01391 2.65625C8.17043 2.90625 8.23304 3.21875 8.26435 3.5C8.26435 4.46875 7.45043 5.25 6.5113 5.25C6.19826 5.25 5.88522 5.1875 5.66609 5.03125C5.57217 5.34375 5.50957 5.65625 5.50957 6C5.50957 7.9375 7.07478 9.5 9.01565 9.5C10.9565 9.5 12.5217 7.9375 12.5217 6C12.5217 4.09375 10.9565 2.53125 9.01565 2.53125V2.5ZM17.9061 5.5625C16.2157 2.25 12.8348 0 9.01565 0C5.16522 0 1.78435 2.25 0.093913 5.5625C0.0313043 5.6875 0 5.84375 0 6C0 6.1875 0.0313043 6.34375 0.093913 6.46875C1.78435 9.78125 5.16522 12 9.01565 12C12.8348 12 16.2157 9.78125 17.9061 6.46875C17.9687 6.34375 18 6.1875 18 6.03125C18 5.84375 17.9687 5.6875 17.9061 5.5625ZM9.01565 10.5C5.91652 10.5 3.06783 8.78125 1.56522 6C3.06783 3.21875 5.91652 1.5 9.01565 1.5C12.0835 1.5 14.9322 3.21875 16.4348 6C14.9322 8.78125 12.0835 10.5 9.01565 10.5Z" fill="#1C1B1F"/>
</svg>
