<svg width="16" height="16" viewBox="0 0 16 16" fill="none" xmlns="http://www.w3.org/2000/svg">
<path d="M8.69995 0.300017L15.3 6.90002C15.4 7.00002 15.471 7.10835 15.513 7.22502C15.5543 7.34168 15.575 7.46668 15.575 7.60002C15.575 7.73335 15.5543 7.85835 15.513 7.97502C15.471 8.09168 15.4 8.20002 15.3 8.30001L8.69995 14.9C8.51662 15.0833 8.28762 15.1793 8.01295 15.188C7.73762 15.196 7.49995 15.1 7.29995 14.9C7.09995 14.7167 6.99562 14.4877 6.98695 14.213C6.97895 13.9377 7.07495 13.7 7.27495 13.5L12.175 8.60002L0.99995 8.60002C0.716616 8.60002 0.478951 8.50435 0.28695 8.31302C0.0956167 8.12102 -5.02297e-05 7.88335 -5.02545e-05 7.60002C-5.02792e-05 7.31668 0.0956166 7.07935 0.28695 6.88802C0.478951 6.69602 0.716616 6.60002 0.99995 6.60002L12.175 6.60002L7.27495 1.70002C7.09162 1.51668 6.99562 1.28335 6.98695 1.00002C6.97895 0.716682 7.07495 0.483351 7.27495 0.300017C7.45828 0.100017 7.69162 1.5948e-05 7.97495 1.59232e-05C8.25828 1.58984e-05 8.49995 0.100017 8.69995 0.300017Z" fill="white"/>
</svg>
