<svg width="80" height="75" viewBox="0 0 80 75" fill="none" xmlns="http://www.w3.org/2000/svg">
<path d="M77.8438 65.3614H0.452187C0.202451 65.3614 0 65.5639 0 65.8136C0 66.0633 0.20245 66.2658 0.452185 66.2658H77.8438C78.0935 66.2658 78.296 66.0633 78.296 65.8136C78.296 65.5639 78.0935 65.3614 77.8438 65.3614Z" fill="#D0D0D0"/>
<path d="M80 68.7955H73.8801V68.8489H80V68.7955Z" fill="#EBEBEB"/>
<path d="M58.0704 69.3761H56.4647V69.4294H58.0704V69.3761Z" fill="#EBEBEB"/>
<path d="M73.6953 66.8149H70.1494V66.8682H73.6953V66.8149Z" fill="#EBEBEB"/>
<path d="M14.5422 67.1735H6.56165V67.2268H14.5422V67.1735Z" fill="#EBEBEB"/>
<path d="M17.3582 67.1735H16.1886V67.2268H17.3582V67.1735Z" fill="#EBEBEB"/>
<path d="M38.4711 68.0741H21.161V68.1275H38.4711V68.0741Z" fill="#EBEBEB"/>
<path d="M69.5009 0H15.5844V29.1377H69.5009V0Z" fill="#E6E6E6"/>
<path d="M70.312 0H15.9631V29.1377H70.312V0Z" fill="#F0F0F0"/>
<path d="M69.5009 29.1377H15.5844V30.6232H69.5009V29.1377Z" fill="#E6E6E6"/>
<path d="M71.6647 29.1377H17.3158V30.6232H71.6647V29.1377Z" fill="#F0F0F0"/>
<path d="M69.1757 27.8251V1.31473L17.1014 1.31473V27.8251L69.1757 27.8251Z" fill="#FAFAFA"/>
<path d="M22.6873 27.8251L25.8525 1.31473H30.7916L27.6264 27.8251H22.6873Z" fill="white"/>
<path d="M17.6262 26.5168C17.6047 26.5168 17.584 26.5069 17.5687 26.4893C17.5535 26.4717 17.5449 26.4478 17.5449 26.4229V2.16847C17.5449 2.14356 17.5535 2.11967 17.5687 2.10206C17.584 2.08445 17.6047 2.07455 17.6262 2.07455C17.6369 2.07455 17.6475 2.07698 17.6573 2.0817C17.6672 2.08642 17.6762 2.09334 17.6837 2.10206C17.6913 2.11078 17.6973 2.12113 17.7013 2.13253C17.7054 2.14392 17.7075 2.15613 17.7075 2.16847V26.4314C17.7061 26.455 17.6969 26.477 17.6817 26.4929C17.6666 26.5089 17.6467 26.5174 17.6262 26.5168Z" fill="#F0F0F0"/>
<path d="M28.687 27.8251L31.8523 1.31473H33.7777L30.6124 27.8251H28.687Z" fill="white"/>
<path d="M69.1757 27.8251V1.31473H69.0315V27.8251H69.1757Z" fill="#E6E6E6"/>
<path opacity="0.6" d="M70.58 3.29538H16.6654L16.5601 1.82483H70.4766L70.58 3.29538Z" fill="#EBEBEB"/>
<path opacity="0.6" d="M70.58 5.70504H16.6654L16.5601 4.2345H70.4766L70.58 5.70504Z" fill="#EBEBEB"/>
<path opacity="0.6" d="M70.58 8.11682H16.6654L16.5601 6.64627H70.4766L70.58 8.11682Z" fill="#EBEBEB"/>
<path opacity="0.6" d="M70.58 10.5265H16.6654L16.5601 9.05591H70.4766L70.58 10.5265Z" fill="#EBEBEB"/>
<path opacity="0.6" d="M70.58 12.9383H16.6654L16.5601 11.4677H70.4766L70.58 12.9383Z" fill="#EBEBEB"/>
<path opacity="0.6" d="M70.58 15.3479H16.6654L16.5601 13.8773H70.4766L70.58 15.3479Z" fill="#EBEBEB"/>
<path d="M77.9859 36.4627H69.7577V65.3614H77.9859V36.4627Z" fill="#E6E6E6"/>
<path d="M75.7889 65.3614H77.9859V61.3724H73.4847L75.7889 65.3614Z" fill="#FAFAFA"/>
<path d="M55.5519 36.4627H47.3237V65.3614H55.5519V36.4627Z" fill="#E6E6E6"/>
<path d="M77.9859 36.4627H53.6339V63.989H77.9859V36.4627Z" fill="#FAFAFA"/>
<path d="M55.8309 65.3614H53.6339V61.3724H58.1351L55.8309 65.3614Z" fill="#FAFAFA"/>
<path d="M76.2804 46.7202H55.3376V53.6077H76.2804V46.7202Z" fill="#F0F0F0"/>
<path d="M76.2804 55.0804H55.3376V61.9678H76.2804V55.0804Z" fill="#F0F0F0"/>
<path d="M58.6285 46.1227H72.9969V46.4577C72.9969 46.7221 72.906 46.9756 72.7442 47.1625C72.5823 47.3495 72.3629 47.4545 72.134 47.4545H59.4933C59.2644 47.4545 59.045 47.3495 58.8831 47.1625C58.7213 46.9756 58.6304 46.7221 58.6304 46.4577V46.1227H58.6285Z" fill="#FAFAFA"/>
<path d="M76.2804 38.358H55.3376V45.2454H76.2804V38.358Z" fill="#F0F0F0"/>
<path d="M58.6285 37.7625H72.9969V38.0976C72.9969 38.362 72.906 38.6155 72.7442 38.8024C72.5823 38.9893 72.3629 39.0943 72.134 39.0943H59.4933C59.2644 39.0943 59.045 38.9893 58.8831 38.8024C58.7213 38.6155 58.6304 38.362 58.6304 38.0976V37.7625H58.6285Z" fill="#FAFAFA"/>
<path d="M58.6285 54.4828H72.9969V54.8179C72.9969 55.0822 72.906 55.3357 72.7442 55.5227C72.5823 55.7096 72.3629 55.8146 72.134 55.8146H59.4933C59.2644 55.8146 59.045 55.7096 58.8831 55.5227C58.7213 55.3357 58.6304 55.0822 58.6304 54.8179V54.4828H58.6285Z" fill="#FAFAFA"/>
<path d="M6.73904 42.6245C7.19729 41.1027 10.8042 43.1709 12.2824 45.6894C13.2599 47.367 13.8567 49.1576 14.1302 51.563C14.0969 48.8183 14.06 45.8708 14.023 43.0876C13.7255 42.394 13.0474 40.7932 12.5614 39.5255C10.9354 35.2952 7.06979 33.7201 5.7246 31.0501C3.97475 27.5498 3.98584 22.2994 5.47515 20.4084C6.7686 18.7607 11.0555 29.8911 11.5396 31.1354C13.2026 35.4041 13.683 38.5864 13.9934 41.6619C13.9583 39.0474 13.9251 36.6484 13.8974 34.7958C13.8068 28.7557 13.6923 26.8134 13.6405 26.2158C13.4557 25.9234 13.2506 25.5755 13.1268 25.4005C12.0902 23.8574 9.78788 22.0219 8.63856 19.7787C6.95892 16.5047 7.23055 12.5861 8.40759 11.1262C9.6493 9.60016 11.8352 13.1986 12.9827 16.78C14.1302 20.3614 13.6442 23.772 13.9694 26.7409C14.0378 27.3214 14.1062 29.5326 14.1727 32.5996C14.5238 29.2999 15.2222 27.0888 16.5157 25.0292C18.1085 22.4957 19.4832 19.4116 20.7951 19.8107C22.1071 20.2099 21.4012 24.2928 20.3628 27.1571C19.4389 29.7076 14.8785 32.2538 14.2059 34.3049C14.2854 38.4626 14.3556 43.7279 14.4073 48.6305C14.7658 46.097 14.5182 45.8857 15.9927 42.0141C16.8686 39.709 20.4588 36.8682 20.8875 38.4519C21.3162 40.0356 20.6639 43.0279 19.3095 45.1238C18.2156 46.8163 15.7987 46.8142 15.2278 47.8621C15.0966 48.1076 14.6734 49.0467 14.4166 49.5845C14.4739 55.5713 14.5016 60.8537 14.472 62.6551L14.2355 62.6743C14.2484 62.209 14.2189 59.1633 14.1727 55.1337C13.5832 52.9994 9.61789 51.7402 8.3928 49.5098C7.11044 47.1706 6.1884 44.4472 6.73904 42.6245Z" fill="#E6E6E6"/>
<path d="M10.4679 65.3614H18.0808C18.2825 65.3612 18.4779 65.2806 18.6341 65.1333C18.7904 64.9859 18.8977 64.7808 18.9382 64.5525L19.4777 61.4748H9.0636L9.61793 64.5525C9.6581 64.7793 9.76439 64.9834 9.91908 65.1306C10.0738 65.2778 10.2675 65.3593 10.4679 65.3614Z" fill="#F0F0F0"/>
<path d="M8.85288 62.6679H19.6957C19.8214 62.6678 19.9427 62.6142 20.0365 62.5173C20.1302 62.4205 20.1898 62.2872 20.2038 62.1429L20.4256 59.8677C20.4333 59.7852 20.426 59.7017 20.404 59.6227C20.382 59.5437 20.3459 59.471 20.298 59.4092C20.25 59.3474 20.1914 59.2979 20.1258 59.264C20.0603 59.2301 19.9893 59.2125 19.9174 59.2124H8.63115C8.55931 59.2125 8.4883 59.2301 8.42274 59.264C8.35717 59.2979 8.29851 59.3474 8.25058 59.4092C8.20266 59.471 8.16653 59.5437 8.14455 59.6227C8.12256 59.7017 8.11523 59.7852 8.12301 59.8677L8.34474 62.1429C8.35881 62.2872 8.41839 62.4205 8.51211 62.5173C8.60583 62.6142 8.72713 62.6678 8.85288 62.6679Z" fill="#F0F0F0"/>
<path d="M29.7292 51.5353H23.2231V65.3614H29.7292V51.5353Z" fill="#E0E0E0"/>
<path d="M46.3112 65.3614H24.5277L22.2383 46.6007H44.0218L46.3112 65.3614Z" fill="#E6E6E6"/>
<path d="M49.4894 65.3614H25.3924L23.1049 46.6007H47.2L49.4894 65.3614Z" fill="#F0F0F0"/>
<path d="M27.7502 62.4289L25.823 49.5333H44.8422L46.7695 62.4289H27.7502Z" fill="white"/>
<path d="M35.9229 62.4289L29.4594 49.5333H31.4864L37.9518 62.4289H35.9229Z" fill="#FAFAFA"/>
<path d="M38.811 62.4289L32.3456 49.5333H35.8046L42.2682 62.4289H38.811Z" fill="#FAFAFA"/>
<path d="M43.0628 75C62.8493 75 78.8895 73.9183 78.8895 72.584C78.8895 71.2496 62.8493 70.1679 43.0628 70.1679C23.2762 70.1679 7.23608 71.2496 7.23608 72.584C7.23608 73.9183 23.2762 75 43.0628 75Z" fill="#F5F5F5"/>
<path d="M74 48.5696C74 54.5648 63 66 63 66C63 66 52 54.5648 52 48.5696C52 42.5744 56.9249 37.7143 63 37.7143C69.0751 37.7143 74 42.5744 74 48.5696Z" fill="#FFCD7B"/>
<path d="M63.8125 44.375C64.5234 44.375 65.125 43.8008 65.125 43.0625C65.125 42.3516 64.5234 41.75 63.8125 41.75C63.0742 41.75 62.5 42.3516 62.5 43.0625C62.5 43.8008 63.0742 44.375 63.8125 44.375ZM66.3828 48.4766L65.7539 48.1484L65.4805 47.3281C65.0703 46.125 63.9492 45.2773 62.6914 45.25C61.707 45.25 61.1602 45.5508 60.1484 45.9609C59.5469 46.1797 59.0547 46.6445 58.7812 47.2188L58.5898 47.5742C58.3711 48.0117 58.5625 48.5312 58.9727 48.75C59.4102 48.9688 59.9297 48.8047 60.1484 48.3672L60.3398 47.9844C60.4219 47.793 60.5859 47.6562 60.7773 47.5742L61.5156 47.2734L61.1055 48.9414C60.9414 49.5156 61.1055 50.1172 61.5156 50.5547L63.1289 52.332C63.3477 52.5508 63.4844 52.8242 63.5391 53.0977L64.0586 55.0938C64.168 55.5586 64.6328 55.8594 65.0977 55.7227C65.5898 55.6133 65.8633 55.1484 65.7539 54.6836L65.1523 52.25C65.0703 51.9492 64.9336 51.7031 64.7422 51.4844L63.4844 50.1172L63.9492 48.2578L64.1133 48.6953C64.25 49.1328 64.5781 49.4883 64.9883 49.707L65.6172 50.0352C66.0273 50.2539 66.5469 50.0625 66.7656 49.6523C66.9844 49.2148 66.8203 48.668 66.3828 48.4766ZM60.1211 52.3047C60.0391 52.5234 59.9023 52.7422 59.7383 52.9062L58.3711 54.2734C58.0156 54.6016 58.0156 55.1758 58.3711 55.5039C58.6992 55.8594 59.2734 55.8594 59.6016 55.5039L61.2422 53.8906C61.4062 53.7266 61.5156 53.5078 61.625 53.2891L61.9805 52.3594C60.4766 50.7188 60.9414 51.2383 60.6953 50.9102L60.1211 52.3047Z" fill="white"/>
<path d="M11.146 31.0266C11.1262 31.0267 11.107 31.0182 11.0923 31.0028C11.0776 30.9874 11.0684 30.9662 11.0666 30.9434L10.6564 25.2448C10.6553 25.2217 10.662 25.199 10.6751 25.1815C10.6882 25.164 10.7066 25.153 10.7266 25.1509C10.7474 25.1491 10.7679 25.1568 10.7838 25.1724C10.7997 25.1879 10.8097 25.2101 10.8116 25.2341L11.2218 30.9327C11.2233 30.9567 11.2166 30.9805 11.2031 30.9989C11.1897 31.0172 11.1705 31.0287 11.1497 31.0309L11.146 31.0266Z" fill="#FFE7C0"/>
<path d="M11.3899 34.4117C11.3701 34.4118 11.3509 34.4033 11.3362 34.3879C11.3215 34.3725 11.3123 34.3512 11.3105 34.3284L11.1866 32.6039C11.1856 32.5919 11.1867 32.5799 11.1898 32.5684C11.1929 32.557 11.198 32.5463 11.2047 32.5372C11.2114 32.528 11.2197 32.5205 11.2289 32.5151C11.2382 32.5097 11.2483 32.5065 11.2587 32.5057C11.2691 32.5045 11.2795 32.5058 11.2894 32.5094C11.2993 32.5129 11.3085 32.5188 11.3165 32.5265C11.3244 32.5343 11.3309 32.5438 11.3356 32.5546C11.3402 32.5653 11.343 32.577 11.3437 32.5889L11.4675 34.3135C11.4691 34.3375 11.4624 34.3612 11.4489 34.3796C11.4354 34.398 11.4162 34.4095 11.3954 34.4117H11.3899Z" fill="#FFE7C0"/>
<path d="M52.9595 50.6282H14.8064C14.3257 50.6173 13.8652 50.4032 13.512 50.0264C13.1589 49.6495 12.9377 49.1362 12.8903 48.5835L10.7413 18.7479C10.7183 18.4873 10.7434 18.224 10.8147 17.9754C10.8861 17.7267 11.0022 17.4984 11.1555 17.3053C11.3087 17.1122 11.4956 16.9587 11.7038 16.8549C11.912 16.7511 12.1369 16.6994 12.3636 16.7032H50.5149C50.9957 16.714 51.4565 16.9281 51.81 17.3049C52.1634 17.6817 52.385 18.1951 52.4329 18.7479L54.5818 48.5793C54.605 48.8401 54.5802 49.1037 54.509 49.3527C54.4377 49.6017 54.3217 49.8305 54.1685 50.024C54.0152 50.2175 53.8283 50.3714 53.6199 50.4755C53.4116 50.5797 53.1865 50.6317 52.9595 50.6282Z" fill="white"/>
<path d="M52.9595 50.7136H14.8065C14.307 50.7042 13.8281 50.4827 13.461 50.0914C13.0939 49.7001 12.8645 49.1664 12.8164 48.5921L10.6674 18.7586C10.6457 18.4864 10.6735 18.2119 10.7489 17.9528C10.8243 17.6937 10.9457 17.4556 11.1054 17.2539C11.2642 17.0507 11.4584 16.8887 11.6753 16.7784C11.8921 16.668 12.1267 16.6118 12.3637 16.6136H50.5149C51.0164 16.6228 51.4973 16.8458 51.865 17.2398C52.2327 17.6338 52.4613 18.1709 52.5068 18.7479L54.654 48.5793C54.6777 48.8513 54.6513 49.1261 54.5767 49.3856C54.502 49.6451 54.3807 49.8834 54.2207 50.0849C54.0607 50.2864 53.8657 50.4466 53.6483 50.555C53.431 50.6633 53.1962 50.7174 52.9595 50.7136ZM12.3637 16.7928C12.1468 16.7888 11.9316 16.8379 11.7324 16.937C11.5331 17.036 11.3544 17.1828 11.2078 17.3676C11.0613 17.5523 10.9504 17.7709 10.8824 18.0089C10.8144 18.2468 10.7909 18.4987 10.8134 18.7479L12.9624 48.5771C13.0081 49.1095 13.2216 49.6039 13.5623 49.9663C13.903 50.3288 14.3471 50.5339 14.8102 50.5428H52.9595C53.1759 50.5465 53.3906 50.4973 53.5893 50.3983C53.788 50.2994 53.9664 50.153 54.1127 49.9687C54.2589 49.7845 54.3697 49.5665 54.4379 49.3293C54.506 49.092 54.5299 48.8408 54.508 48.5921L52.359 18.7586C52.3137 18.226 52.1003 17.7313 51.7595 17.3688C51.4188 17.0063 50.9744 16.8013 50.5112 16.7928H12.3637Z" fill="#FFE7C0"/>
<path d="M50.515 16.7075H12.3638C12.1374 16.7038 11.9128 16.7554 11.7049 16.8589C11.4969 16.9624 11.3103 17.1155 11.1571 17.3081C11.0039 17.5007 10.8877 17.7286 10.8161 17.9767C10.7445 18.2248 10.719 18.4876 10.7414 18.7479H52.433C52.3843 18.1958 52.1623 17.6835 51.809 17.3075C51.4556 16.9316 50.9953 16.7182 50.515 16.7075Z" fill="#FFE7C0"/>
<path d="M13.2562 17.7298C13.2615 17.7861 13.2563 17.843 13.2411 17.8967C13.2259 17.9505 13.2009 17.9999 13.1679 18.0417C13.1349 18.0834 13.0945 18.1166 13.0495 18.139C13.0046 18.1614 12.956 18.1726 12.907 18.1716C12.8032 18.1691 12.7038 18.1228 12.6275 18.0414C12.5513 17.96 12.5035 17.8491 12.4931 17.7298C12.4882 17.6736 12.4935 17.6169 12.5089 17.5633C12.5242 17.5097 12.5492 17.4604 12.5822 17.4187C12.6151 17.377 12.6554 17.3438 12.7002 17.3213C12.745 17.2988 12.7935 17.2874 12.8423 17.288C12.9464 17.2896 13.0462 17.3356 13.1227 17.4172C13.1991 17.4988 13.2467 17.6101 13.2562 17.7298Z" fill="white"/>
<path d="M14.8083 17.7298C14.8135 17.7861 14.8084 17.843 14.7931 17.8967C14.7779 17.9505 14.753 17.9999 14.7199 18.0417C14.6869 18.0834 14.6466 18.1166 14.6016 18.139C14.5566 18.1614 14.508 18.1726 14.4591 18.1716C14.3566 18.1671 14.2589 18.1198 14.1842 18.0386C14.1095 17.9574 14.0627 17.8477 14.0526 17.7298C14.0476 17.6736 14.053 17.6169 14.0683 17.5633C14.0837 17.5097 14.1087 17.4604 14.1416 17.4187C14.1746 17.377 14.2148 17.3438 14.2596 17.3213C14.3045 17.2988 14.3529 17.2874 14.4018 17.288C14.5046 17.2917 14.6026 17.3386 14.6775 17.42C14.7524 17.5014 14.7989 17.6116 14.8083 17.7298Z" fill="white"/>
<path d="M16.3605 17.7298C16.3657 17.7861 16.3606 17.843 16.3453 17.8967C16.3301 17.9505 16.3051 17.9999 16.2721 18.0417C16.2391 18.0834 16.1988 18.1166 16.1538 18.139C16.1088 18.1614 16.0602 18.1726 16.0113 18.1716C15.9075 18.1691 15.808 18.1228 15.7318 18.0414C15.6555 17.96 15.6077 17.8491 15.5974 17.7298C15.5924 17.6736 15.5978 17.6169 15.6131 17.5633C15.6285 17.5097 15.6535 17.4604 15.6864 17.4187C15.7194 17.377 15.7596 17.3438 15.8044 17.3213C15.8493 17.2988 15.8977 17.2874 15.9466 17.288C16.0506 17.2896 16.1505 17.3356 16.2269 17.4172C16.3033 17.4988 16.3509 17.6101 16.3605 17.7298Z" fill="white"/>
<path d="M49.6483 46.7181H17.5634C17.1812 46.7099 16.8149 46.54 16.534 46.2406C16.253 45.9413 16.0769 45.5333 16.039 45.0939L14.5312 24.2971C14.5132 24.0897 14.5333 23.8802 14.5904 23.6825C14.6475 23.4847 14.7402 23.3032 14.8624 23.1498C14.9845 22.9963 15.1334 22.8745 15.2993 22.7923C15.4651 22.7102 15.6442 22.6694 15.8246 22.6729H47.9151C48.2973 22.6812 48.6635 22.8511 48.9445 23.1504C49.2255 23.4498 49.4016 23.8578 49.4395 24.2971L50.9381 45.1046C50.9547 45.3108 50.9335 45.5187 50.876 45.7149C50.8186 45.9111 50.726 46.0911 50.6044 46.2432C50.4827 46.3954 50.3348 46.5163 50.1701 46.5981C50.0054 46.6799 49.8276 46.7208 49.6483 46.7181Z" fill="#F0F0F0"/>
<path opacity="0.1" d="M39.722 26.3055L29.7809 40.1316C29.4685 40.5658 29.2582 41.0856 29.1703 41.641C29.0825 42.1964 29.12 42.7685 29.2794 43.3023C29.4387 43.836 29.7145 44.3133 30.0801 44.688C30.4456 45.0628 30.8886 45.3224 31.3663 45.4418L47.4975 49.4693C48.002 49.5957 48.5268 49.5611 49.0156 49.3691C49.5044 49.1772 49.9387 48.8352 50.272 48.3798C50.6053 47.9244 50.825 47.3728 50.9075 46.7842C50.99 46.1955 50.9322 45.592 50.7404 45.0384L44.5558 27.1827C44.3731 26.6529 44.0741 26.1872 43.6883 25.8313C43.3025 25.4755 42.8431 25.2418 42.3553 25.1533C41.8676 25.0648 41.3682 25.1245 40.9065 25.3265C40.4448 25.5285 40.0366 25.8659 39.722 26.3055Z" fill="#263238"/>
<path opacity="0.1" d="M17.5929 28.2435L14.1302 39.0239C14.0264 39.353 13.9966 39.7072 14.0433 40.0532C14.0901 40.3993 14.2119 40.726 14.3975 41.003C14.5831 41.28 14.8263 41.4983 15.1046 41.6374C15.3829 41.7765 15.6872 41.8319 15.989 41.7985L26.1019 40.6524C26.4238 40.6161 26.7311 40.4801 26.9916 40.2588C27.2521 40.0375 27.456 39.7391 27.5818 39.395C27.7076 39.051 27.7507 38.6741 27.7066 38.3041C27.6624 37.9341 27.5325 37.5848 27.3307 37.293L20.6787 27.6672C20.48 27.3807 20.219 27.1602 19.9224 27.0283C19.6257 26.8964 19.3041 26.8578 18.9904 26.9164C18.6766 26.975 18.3819 27.1287 18.1364 27.3618C17.8909 27.595 17.7033 27.8992 17.5929 28.2435Z" fill="#263238"/>
<path d="M43.1515 22.8244L33.8571 38.405C33.5668 38.8916 33.3895 39.4562 33.3422 40.0447C33.2948 40.6331 33.379 41.2258 33.5867 41.7659C33.7943 42.306 34.1185 42.7755 34.5282 43.1295C34.9379 43.4835 35.4194 43.7102 35.9267 43.7877L53.0113 46.4151C53.5486 46.4977 54.0952 46.4101 54.5928 46.1616C55.0903 45.913 55.5199 45.513 55.8358 45.0041C56.1516 44.4953 56.3417 43.8968 56.3858 43.2728C56.4299 42.6487 56.3263 42.0226 56.086 41.4613L48.2957 23.247C48.0645 22.7074 47.7152 22.2471 47.2823 21.9115C46.8495 21.576 46.3483 21.377 45.8284 21.3343C45.3084 21.2916 44.7879 21.4067 44.3183 21.668C43.8487 21.9294 43.4465 22.3281 43.1515 22.8244Z" fill="#FFE7C0"/>
<path d="M36.3313 42.3961C36.0227 42.3477 35.7293 42.2118 35.4772 42.0007C35.2251 41.7896 35.0221 41.5097 34.8863 41.186C34.7463 40.88 34.6805 40.536 34.6958 40.1904C34.7111 39.8448 34.8069 39.5103 34.9732 39.2224L44.2916 23.5949C44.46 23.3162 44.6931 23.0978 44.964 22.965C45.2349 22.8321 45.5327 22.7901 45.8234 22.8436C46.132 22.8917 46.4256 23.0274 46.6777 23.2386C46.9299 23.4498 47.1328 23.7299 47.2683 24.0538L55.0734 42.3129C55.2134 42.6189 55.2792 42.9629 55.2639 43.3085C55.2486 43.6541 55.1528 43.9886 54.9865 44.2765C54.8184 44.5558 54.5855 44.7747 54.3146 44.908C54.0436 45.0413 53.7456 45.0835 53.4547 45.0299L36.3313 42.3961Z" fill="white"/>
<path d="M45.0307 28.3673L46.1191 28.5337C46.4593 28.5892 46.77 28.7873 46.9919 29.0905C47.2137 29.3936 47.3312 29.7804 47.322 30.1772L47.2481 31.8163C47.2463 31.8758 47.2407 31.935 47.2314 31.9935L46.4572 36.9344C46.4018 37.275 46.2334 37.577 45.9881 37.7764C45.7427 37.9757 45.4396 38.0565 45.1434 38.0016C44.8291 37.95 44.539 37.777 44.3206 37.5107C44.1022 37.2445 43.9682 36.9007 43.9405 36.5353L43.6282 31.43C43.6246 31.371 43.6246 31.3118 43.6282 31.2529L43.7003 29.6116C43.7081 29.4251 43.7499 29.2427 43.823 29.0762C43.8961 28.9097 43.9988 28.7629 44.1244 28.6454C44.25 28.5279 44.3956 28.4424 44.5518 28.3945C44.708 28.3466 44.8712 28.3373 45.0307 28.3673ZM44.9439 39.3718L45.2395 39.4166C45.544 39.4663 45.8221 39.6436 46.0208 39.9148C46.2194 40.186 46.3248 40.5321 46.3168 40.8872C46.3103 41.0546 46.2732 41.2186 46.208 41.3683C46.1428 41.5181 46.0509 41.6502 45.9383 41.756C45.8258 41.8618 45.6951 41.939 45.5549 41.9823C45.4148 42.0257 45.2682 42.0344 45.125 42.0077L44.8293 41.9608C44.5249 41.9116 44.2469 41.7347 44.0482 41.4639C43.8495 41.193 43.7441 40.8472 43.7521 40.4923C43.7583 40.3248 43.7951 40.1606 43.8603 40.0107C43.9254 39.8608 44.0173 39.7286 44.1299 39.6227C44.2426 39.5168 44.3733 39.4397 44.5136 39.3965C44.6539 39.3532 44.8006 39.3448 44.9439 39.3718Z" fill="#FFE7C0"/>
<path d="M21.1666 25.2063L18.6148 36.3838C18.5378 36.7234 18.5368 37.0801 18.6117 37.4203C18.6866 37.7606 18.835 38.0733 19.0431 38.3292C19.2512 38.5852 19.5121 38.7759 19.8014 38.8836C20.0907 38.9913 20.399 39.0124 20.6972 38.945L30.5958 36.7146C30.9099 36.6422 31.2015 36.4742 31.4404 36.2279C31.6793 35.9816 31.8569 35.666 31.9547 35.3138C32.0526 34.9615 32.0671 34.5855 31.9967 34.2246C31.9264 33.8637 31.7739 33.5311 31.5548 33.2613L24.2154 24.3078C23.9953 24.0376 23.7165 23.8405 23.4081 23.7369C23.0997 23.6333 22.7729 23.6271 22.4617 23.7188C22.1504 23.8105 21.8662 23.9969 21.6384 24.2585C21.4107 24.5201 21.2477 24.8474 21.1666 25.2063Z" fill="#FFE7C0"/>
<path d="M20.6768 38.0443C20.4951 38.0823 20.308 38.0666 20.1329 37.9987C19.9578 37.9307 19.8004 37.8128 19.6753 37.6558C19.5463 37.5046 19.4531 37.3176 19.4045 37.1128C19.356 36.908 19.3538 36.6923 19.3982 36.4862L21.9555 25.2789C21.9999 25.0831 22.0915 24.9058 22.2198 24.7679C22.348 24.63 22.5076 24.537 22.6798 24.4999C22.8617 24.4623 23.0489 24.4784 23.224 24.5467C23.3991 24.615 23.5564 24.7332 23.6813 24.8904L31.0466 33.8546C31.1758 34.0057 31.2693 34.1926 31.3181 34.3974C31.367 34.6021 31.3696 34.8179 31.3256 35.0242C31.281 35.2196 31.1892 35.3964 31.061 35.5339C30.9327 35.6715 30.7733 35.7641 30.6013 35.8011L20.6768 38.0443Z" fill="white"/>
<path d="M23.1603 27.9105L23.7904 27.7675C23.9939 27.7296 24.2023 27.7799 24.3755 27.9087C24.5488 28.0376 24.6747 28.2358 24.7291 28.4654L24.9545 29.4408C24.9631 29.4766 24.9698 29.513 24.9749 29.5497L25.3758 32.621C25.4071 32.8277 25.3664 33.0404 25.2625 33.2127C25.1587 33.3849 25.0002 33.5029 24.8215 33.5408C24.6341 33.5768 24.4416 33.5375 24.2762 33.4296C24.1108 33.3216 23.9824 33.1515 23.9124 32.9475L22.8887 30.0278C22.8763 29.9937 22.8658 29.9588 22.8573 29.9232L22.6245 28.9457C22.5942 28.837 22.5843 28.7221 22.5956 28.6087C22.6068 28.4953 22.6388 28.3859 22.6895 28.288C22.7402 28.19 22.8085 28.1057 22.8897 28.0406C22.9708 27.9755 23.0631 27.9311 23.1603 27.9105ZM24.9434 34.3732L25.1153 34.3348C25.2975 34.2984 25.485 34.3421 25.6406 34.4575C25.7963 34.5729 25.9088 34.7515 25.956 34.958C25.9821 35.0542 25.9903 35.1557 25.9801 35.2558C25.9699 35.3558 25.9416 35.4523 25.8969 35.5389C25.8523 35.6255 25.7924 35.7003 25.721 35.7583C25.6497 35.8164 25.5686 35.8564 25.483 35.8758L25.3111 35.9142C25.1292 35.9508 24.9419 35.9073 24.7863 35.7923C24.6307 35.6774 24.518 35.4993 24.4704 35.2931C24.4444 35.1968 24.4362 35.0952 24.4463 34.995C24.4565 34.8948 24.4848 34.7982 24.5294 34.7114C24.574 34.6246 24.6339 34.5497 24.7053 34.4914C24.7766 34.4332 24.8578 34.3929 24.9434 34.3732Z" fill="#FFE7C0"/>
</svg>
