<svg width="88" height="88" viewBox="0 0 88 88" fill="none" xmlns="http://www.w3.org/2000/svg">
<g clip-path="url(#clip0_88_146)">
<path d="M51.6856 84.8118C50.6763 85.8211 49.4781 86.6217 48.1594 87.1679C46.8407 87.7142 45.4273 87.9953 44 87.9953C42.5727 87.9953 41.1593 87.7142 39.8406 87.1679C38.5219 86.6217 37.3237 85.8211 36.3144 84.8118L3.18581 51.6856C2.17652 50.6763 1.37591 49.4781 0.829684 48.1594C0.283459 46.8407 0.00231934 45.4274 0.00231934 44C0.00231934 42.5727 0.283459 41.1593 0.829684 39.8406C1.37591 38.5219 2.17652 37.3237 3.18581 36.3145L36.3144 3.17377C37.3237 2.16448 38.5219 1.36387 39.8406 0.817644C41.1593 0.271419 42.5727 -0.00971985 44 -0.00971985C45.4273 -0.00971985 46.8407 0.271419 48.1594 0.817644C49.4781 1.36387 50.6763 2.16448 51.6856 3.17377L84.8166 36.3145C85.8259 37.3237 86.6265 38.5219 87.1727 39.8406C87.719 41.1593 88.0001 42.5727 88.0001 44C88.0001 45.4274 87.719 46.8407 87.1727 48.1594C86.6265 49.4781 85.8259 50.6763 84.8166 51.6856L51.6856 84.8118Z" fill="url(#paint0_radial_88_146)"/>
<path d="M51.1689 82.4522C49.2436 84.3764 46.6329 85.4573 43.9109 85.4573C41.1888 85.4573 38.5782 84.3764 36.6528 82.4522L5.36953 51.1689C4.41618 50.2159 3.65993 49.0844 3.14396 47.839C2.628 46.5937 2.36243 45.2589 2.36243 43.9109C2.36243 42.5629 2.628 41.2281 3.14396 39.9827C3.65993 38.7373 4.41618 37.6058 5.36953 36.6528L36.6528 5.36951C37.6059 4.41616 38.7374 3.65991 39.9827 3.14394C41.2281 2.62798 42.5629 2.36241 43.9109 2.36241C45.2589 2.36241 46.5937 2.62798 47.8391 3.14394C49.0844 3.65991 50.2159 4.41616 51.1689 5.36951L82.4547 36.6576C84.3789 38.583 85.4598 41.1937 85.4598 43.9157C85.4598 46.6377 84.3789 49.2484 82.4547 51.1738L51.1689 82.4522Z" fill="url(#paint1_linear_88_146)"/>
<path d="M79.5633 36.4545L51.5455 8.43673C50.5568 7.44284 49.3809 6.65486 48.0858 6.11839C46.7906 5.58191 45.4019 5.30759 44 5.3113C42.5982 5.30786 41.2096 5.5823 39.9144 6.11876C38.6193 6.65522 37.4434 7.44306 36.4545 8.43673L8.43676 36.4545C6.43793 38.457 5.31531 41.1707 5.31531 44C5.31531 46.8293 6.43793 49.543 8.43676 51.5455L36.4545 79.5633C37.4434 80.5569 38.6193 81.3448 39.9144 81.8812C41.2096 82.4177 42.5982 82.6921 44 82.6887C45.4019 82.6925 46.7906 82.4183 48.0858 81.8818C49.381 81.3453 50.5569 80.5573 51.5455 79.5633L79.5633 51.5455C81.5621 49.543 82.6847 46.8293 82.6847 44C82.6847 41.1707 81.5621 38.457 79.5633 36.4545ZM77.4716 49.4538L49.4538 77.4716C48.7401 78.1917 47.8905 78.763 46.9543 79.1523C46.0181 79.5416 45.0139 79.7412 44 79.7396C42.9868 79.7422 41.9832 79.544 41.047 79.1564C40.1109 78.7687 39.2609 78.1994 38.5462 77.4812L10.5284 49.4635C9.08595 48.0149 8.27607 46.0539 8.27607 44.0097C8.27607 41.9654 9.08595 40.0044 10.5284 38.5559L38.5462 10.5381C39.2601 9.81817 40.1098 9.24704 41.0459 8.85774C41.9821 8.46844 42.9862 8.2687 44 8.27008C45.0133 8.26716 46.017 8.46526 46.9532 8.85291C47.8893 9.24055 48.7393 9.81004 49.4538 10.5284L77.4716 38.5462C78.9141 39.9947 79.724 41.9557 79.724 44C79.724 46.0443 78.9141 48.0053 77.4716 49.4538Z" fill="#1F140F"/>
<path d="M45.1811 9.69512C45.5781 9.8689 45.937 10.1194 46.237 10.4321C46.537 10.7449 46.7723 11.1139 46.9294 11.5178C47.0865 11.9217 47.1622 12.3527 47.1524 12.786C47.1425 13.2193 47.0472 13.6464 46.8718 14.0427C46.5207 14.8385 45.8689 15.463 45.0589 15.7798C44.2488 16.0966 43.3462 16.0799 42.5484 15.7334C41.7478 15.3809 41.12 14.7249 40.803 13.9097C40.4859 13.0944 40.5056 12.1866 40.8577 11.3859C41.2098 10.5909 41.8617 9.96722 42.6714 9.65057C43.4811 9.33392 44.3831 9.34993 45.1811 9.69512Z" fill="url(#paint2_linear_88_146)"/>
<path d="M44.9661 10.2458C45.2917 10.3871 45.5862 10.5911 45.8328 10.8464C46.0794 11.1017 46.2732 11.403 46.4031 11.7333C46.533 12.0636 46.5964 12.4162 46.5898 12.7711C46.5832 13.1259 46.5067 13.476 46.3646 13.8012C46.2229 14.1263 46.0185 14.4204 45.7631 14.6665C45.5077 14.9127 45.2063 15.1061 44.8761 15.2358C44.5459 15.3654 44.1935 15.4287 43.8388 15.4221C43.4842 15.4155 43.1343 15.3391 42.8092 15.1972C42.4841 15.0558 42.1901 14.8516 41.944 14.5964C41.6979 14.3413 41.5045 14.0401 41.3748 13.7101C41.2452 13.3801 41.1818 13.0278 41.1884 12.6734C41.195 12.3189 41.2713 11.9692 41.4132 11.6443C41.5542 11.3188 41.758 11.0243 42.013 10.7778C42.2681 10.5312 42.5693 10.3374 42.8993 10.2075C43.2294 10.0776 43.5819 10.0141 43.9365 10.0207C44.2912 10.0272 44.6411 10.1038 44.9661 10.2458Z" fill="url(#paint3_linear_88_146)"/>
<path d="M44.7512 10.741C45.2753 10.9708 45.6867 11.3994 45.895 11.9324C46.1034 12.4655 46.0916 13.0594 45.8622 13.5838C45.6302 14.1062 45.2018 14.5162 44.6698 14.7251C44.1377 14.9339 43.5448 14.9248 43.0194 14.6997C42.4974 14.4708 42.0874 14.0443 41.8792 13.5138C41.6709 12.9832 41.6814 12.3918 41.9083 11.8689C42.0198 11.6073 42.182 11.3703 42.3856 11.1717C42.5892 10.9732 42.8301 10.8169 43.0945 10.7121C43.3588 10.6072 43.6414 10.5557 43.9257 10.5607C44.2101 10.5656 44.4906 10.6269 44.7512 10.741Z" fill="url(#paint4_radial_88_146)"/>
<path d="M45.3792 13.1587L45.2246 13.5186L42.3069 12.2481L42.4663 11.8882L45.3792 13.1587ZM44.6546 11.3206L44.2947 11.1636L43.7368 12.4462L44.0991 12.6008L44.6546 11.3206ZM43.93 12.9582L43.5701 12.8036L43.0097 14.0789L43.372 14.2383L43.93 12.9582Z" fill="#5C5B5F"/>
<path d="M45.1811 70.728C45.9799 71.0791 46.6067 71.7329 46.9238 72.5458C47.2408 73.3588 47.2221 74.2643 46.8718 75.0635C46.5239 75.8636 45.8725 76.4927 45.0608 76.8125C44.2491 77.1323 43.3436 77.1165 42.5435 76.7687C41.7462 76.4167 41.1207 75.7632 40.8038 74.9512C40.487 74.1391 40.5046 73.2347 40.8528 72.4356C41.2007 71.6356 41.852 71.0064 42.6636 70.6862C43.4751 70.366 44.3806 70.381 45.1811 70.728Z" fill="url(#paint5_linear_88_146)"/>
<path d="M44.9662 71.286C45.2918 71.4274 45.5864 71.6318 45.833 71.8873C46.0796 72.1427 46.2734 72.4443 46.4033 72.7748C46.5332 73.1053 46.5967 73.4581 46.59 73.8131C46.5834 74.1681 46.5068 74.5184 46.3646 74.8437C46.2229 75.1689 46.0185 75.4629 45.7631 75.709C45.5076 75.9551 45.2062 76.1484 44.8759 76.2778C44.5457 76.4072 44.1932 76.4703 43.8386 76.4634C43.484 76.4564 43.1342 76.3796 42.8093 76.2374C42.4843 76.0961 42.1903 75.8922 41.9442 75.6373C41.6981 75.3823 41.5047 75.0813 41.3751 74.7516C41.2454 74.4218 41.182 74.0697 41.1886 73.7154C41.1951 73.3611 41.2715 73.0116 41.4132 72.6868C41.554 72.3611 41.7577 72.0664 42.0126 71.8196C42.2675 71.5728 42.5687 71.3788 42.8988 71.2486C43.2289 71.1185 43.5814 71.0548 43.9362 71.0612C44.291 71.0676 44.641 71.144 44.9662 71.286Z" fill="url(#paint6_linear_88_146)"/>
<path d="M44.7512 71.769C45.2745 72.0019 45.6848 72.4319 45.8928 72.9656C46.1009 73.4992 46.0899 74.0935 45.8622 74.6191C45.6307 75.1419 45.2025 75.5525 44.6704 75.7618C44.1382 75.9711 43.5451 75.9624 43.0194 75.7374C42.7587 75.6245 42.5229 75.4613 42.3255 75.257C42.1281 75.0527 41.973 74.8115 41.8691 74.5471C41.7652 74.2827 41.7145 74.0004 41.72 73.7164C41.7255 73.4324 41.787 73.1523 41.9011 72.8921C42.0135 72.6304 42.1766 72.3936 42.381 72.1953C42.5855 71.997 42.8271 71.8411 43.0921 71.7367C43.3571 71.6323 43.6401 71.5814 43.9249 71.5869C44.2096 71.5925 44.4905 71.6544 44.7512 71.769Z" fill="url(#paint7_radial_88_146)"/>
<path d="M45.3792 74.1844L45.2246 74.5442L42.3069 73.2762L42.4663 72.9139L45.3792 74.1844ZM44.6546 72.3463L44.2947 72.1917L43.7368 73.4718L44.0991 73.6264L44.6546 72.3463ZM43.93 73.9863L43.5701 73.8293L43.0097 75.107L43.372 75.264L43.93 73.9863Z" fill="#5C5B5F"/>
<path d="M28.0719 40.0113L28.937 38.5C28.9759 38.4334 29.0396 38.3848 29.1142 38.365C29.1887 38.3452 29.2681 38.3556 29.3349 38.3941L31.1857 39.4747L34.044 31.5824C34.1949 31.1115 34.4916 30.7007 34.8912 30.4094C35.2908 30.118 35.7726 29.9612 36.2671 29.9616H52.0845C53.3512 29.9616 54.4755 30.7793 54.8661 31.9876L57.5894 39.4783L59.4438 38.3978C59.5106 38.3593 59.59 38.3488 59.6646 38.3687C59.7391 38.3885 59.8028 38.437 59.8417 38.5036L60.7068 40.0113C60.7871 40.15 60.7397 40.3252 60.601 40.4055L58.3961 41.6905L58.9254 43.1507C58.9692 43.2675 58.9911 43.3916 58.9911 43.5157V56.2265C58.9911 56.7997 58.5604 57.2633 58.0311 57.2633H55.5634C55.1144 57.2633 54.7238 56.9238 54.6288 56.4492L54.3478 55.073H34.431L34.1499 56.4492C34.0513 56.9238 33.6644 57.2633 33.2154 57.2633H30.7477C30.2183 57.2633 29.7876 56.7997 29.7876 56.2265V43.5157C29.7876 43.3916 29.8095 43.2675 29.8533 43.1507L30.3826 41.6905L28.1814 40.4055C28.1151 40.3673 28.0665 40.3045 28.046 40.2308C28.0256 40.1571 28.0348 40.0782 28.0719 40.0113ZM53.4425 47.5896C54.2492 47.5896 54.9026 46.9362 54.9026 46.1294C54.9026 45.3227 54.2492 44.6692 53.4425 44.6692C52.6357 44.6692 51.9823 45.3227 51.9823 46.1294C51.9823 46.9362 52.6357 47.5896 53.4425 47.5896ZM39.2787 50.3274C39.2787 50.488 39.4102 50.6195 39.5708 50.6195H49.2079C49.3686 50.6195 49.5 50.488 49.5 50.3274V47.2611C49.5 47.1004 49.3686 46.969 49.2079 46.969H47.7478C47.5871 46.969 47.4557 47.1004 47.4557 47.2611V48.5752H41.323V47.2611C41.323 47.1004 41.1916 46.969 41.031 46.969H39.5708C39.4102 46.969 39.2787 47.1004 39.2787 47.2611V50.3274ZM35.3363 47.5896C36.143 47.5896 36.7964 46.9362 36.7964 46.1294C36.7964 45.3227 36.143 44.6692 35.3363 44.6692C34.5295 44.6692 33.8761 45.3227 33.8761 46.1294C33.8761 46.9362 34.5295 47.5896 35.3363 47.5896ZM55.0486 40.1792L52.3948 32.882L52.3765 32.8345L52.3619 32.7871C52.3218 32.6666 52.2123 32.5863 52.0845 32.5863H36.4752L33.7228 40.1792H55.0486Z" fill="black"/>
</g>
<defs>
<radialGradient id="paint0_radial_88_146" cx="0" cy="0" r="1" gradientUnits="userSpaceOnUse" gradientTransform="translate(44 44) scale(44 44)">
<stop stop-color="#FF0000"/>
<stop offset="0.17" stop-color="#FE0000"/>
<stop offset="0.39" stop-color="#FB0000"/>
<stop offset="0.65" stop-color="#F72C00"/>
<stop offset="0.92" stop-color="#F20303"/>
<stop offset="1" stop-color="#EE0000"/>
</radialGradient>
<linearGradient id="paint1_linear_88_146" x1="43.9109" y1="85.4569" x2="43.9109" y2="2.36243" gradientUnits="userSpaceOnUse">
<stop stop-color="white"/>
<stop offset="0.05" stop-color="white"/>
<stop offset="0.37" stop-color="white"/>
<stop offset="0.7" stop-color="white"/>
<stop offset="0.76" stop-color="white"/>
<stop offset="0.97" stop-color="white"/>
<stop offset="1" stop-color="white"/>
</linearGradient>
<linearGradient id="paint2_linear_88_146" x1="41.958" y1="16.5234" x2="44.5832" y2="10.5001" gradientUnits="userSpaceOnUse">
<stop stop-color="#1F140F"/>
<stop offset="0.22" stop-color="#483F3B"/>
<stop offset="0.71" stop-color="#ADAAAA"/>
<stop offset="1" stop-color="#EDEEF0"/>
</linearGradient>
<linearGradient id="paint3_linear_88_146" x1="42.8247" y1="16.5804" x2="44.978" y2="11.6356" gradientUnits="userSpaceOnUse">
<stop stop-color="#EDEEF0"/>
<stop offset="0.29" stop-color="#ADAAAA"/>
<stop offset="0.78" stop-color="#483F3B"/>
<stop offset="1" stop-color="#1F140F"/>
</linearGradient>
<radialGradient id="paint4_radial_88_146" cx="0" cy="0" r="1" gradientUnits="userSpaceOnUse" gradientTransform="translate(44.3089 12.3871) rotate(-66.44) scale(2.16184)">
<stop stop-color="#D8DADE"/>
<stop offset="0.57" stop-color="#9C9CA0"/>
<stop offset="1" stop-color="#737377"/>
</radialGradient>
<linearGradient id="paint5_linear_88_146" x1="41.9537" y1="77.5862" x2="44.5892" y2="71.5392" gradientUnits="userSpaceOnUse">
<stop stop-color="#1F140F"/>
<stop offset="0.22" stop-color="#483F3B"/>
<stop offset="0.71" stop-color="#ADAAAA"/>
<stop offset="1" stop-color="#EDEEF0"/>
</linearGradient>
<linearGradient id="paint6_linear_88_146" x1="42.8455" y1="77.6378" x2="45.0073" y2="72.6736" gradientUnits="userSpaceOnUse">
<stop stop-color="#EDEEF0"/>
<stop offset="0.29" stop-color="#ADAAAA"/>
<stop offset="0.78" stop-color="#483F3B"/>
<stop offset="1" stop-color="#1F140F"/>
</linearGradient>
<radialGradient id="paint7_radial_88_146" cx="0" cy="0" r="1" gradientUnits="userSpaceOnUse" gradientTransform="translate(44.2993 73.3877) rotate(-66.44) scale(2.16184)">
<stop stop-color="#D8DADE"/>
<stop offset="0.57" stop-color="#9C9CA0"/>
<stop offset="1" stop-color="#737377"/>
</radialGradient>
<clipPath id="clip0_88_146">
<rect width="88" height="88" fill="white"/>
</clipPath>
</defs>
</svg>
