<svg width="21" height="21" viewBox="0 0 21 21" fill="none" xmlns="http://www.w3.org/2000/svg">
<path d="M11.5228 4.75814C11.8788 4.23347 12.0655 3.61659 12.0619 2.97412C12.0583 2.32247 11.8676 1.70789 11.5106 1.19667L10.9725 1.5727C11.2531 1.97433 11.403 2.45995 11.4056 2.97806C11.4086 3.48731 11.2613 3.97556 10.9801 4.38998L11.5228 4.75814Z" fill="white"/>
<path d="M12.0888 0.835409C12.4976 1.46246 12.7152 2.20205 12.7178 2.97413C12.7207 3.74817 12.5055 4.49039 12.0953 5.12007L12.6453 5.47838C13.1257 4.74108 13.3777 3.87417 13.3744 2.9715C13.3711 2.07277 13.1165 1.21013 12.6387 0.477097L12.0888 0.835409Z" fill="white"/>
<path d="M10.4613 4.0448C10.6496 3.72422 10.7494 3.35607 10.7494 2.97938C10.7494 2.60138 10.647 2.23093 10.4534 1.90805L9.89069 2.24569C10.0232 2.46652 10.0931 2.72016 10.0931 2.97905C10.0931 3.2386 10.0249 3.49191 9.89561 3.71175L10.4613 4.0448Z" fill="white"/>
<path d="M4.1485 1.19701C3.79248 1.72168 3.60611 2.33855 3.60939 2.98135C3.613 3.63268 3.80364 4.24726 4.16064 4.7588L4.69876 4.3831C4.41854 3.98147 4.26859 3.49519 4.26564 2.97774C4.26301 2.46849 4.41001 1.97991 4.69122 1.56582L4.1485 1.19701Z" fill="white"/>
<path d="M3.02597 0.477097C2.54559 1.21407 2.29359 2.08097 2.29688 2.98397C2.30049 3.88271 2.55478 4.74535 3.03253 5.47838L3.58247 5.12007C3.17363 4.49302 2.95608 3.75342 2.95313 2.98135C2.95017 2.20697 3.16542 1.46475 3.57591 0.835409L3.02597 0.477097Z" fill="white"/>
<path d="M5.20997 1.91068C5.02163 2.23125 4.92188 2.59974 4.92188 2.9761C4.92188 3.35377 5.02425 3.72422 5.21817 4.04743L5.78091 3.70978C5.64802 3.48863 5.57812 3.23499 5.57812 2.9761C5.57812 2.71655 5.64637 2.46357 5.77566 2.24339L5.20997 1.91068Z" fill="white"/>
<path d="M6.01061 7.19676C5.65525 7.77197 5.36453 8.38031 5.14075 9.01228C5.91808 9.14221 6.72559 9.21407 7.54722 9.22982L7.54689 7.30307C7.02681 7.29225 6.51395 7.25812 6.01061 7.19676Z" fill="white"/>
<path d="M7.87305 6.65766C8.79672 6.65766 9.6925 6.56906 10.5548 6.40599C9.76665 6.05424 8.8945 5.85605 7.97476 5.85605C7.03337 5.85605 6.14153 6.0631 5.33926 6.43092C6.15695 6.57628 7.0022 6.65766 7.87305 6.65766Z" fill="white"/>
<path d="M4.60687 11.8125H7.54818L7.54753 9.88608C6.65765 9.86968 5.78222 9.79126 4.94123 9.64557C4.74698 10.3487 4.63608 11.0755 4.60687 11.8125Z" fill="white"/>
<path d="M8.20312 7.30275L8.20378 9.22983C8.95092 9.21572 9.68527 9.15337 10.3963 9.04444C10.1584 8.40886 9.85228 7.79986 9.47888 7.22269C9.05953 7.26666 8.63461 7.29389 8.20312 7.30275Z" fill="white"/>
<path d="M4.94024 14.7217C5.78155 14.5806 6.65797 14.5044 7.54916 14.492L7.54851 12.4688H4.60391C4.62622 13.2366 4.7391 13.9916 4.94024 14.7217Z" fill="white"/>
<path d="M11.0545 8.92926C11.7472 8.79243 12.412 8.61032 13.0384 8.38556C12.5957 7.79592 12.0517 7.28699 11.4329 6.88307C11.028 6.98151 10.6171 7.06781 10.1971 7.13245C10.5436 7.70503 10.8294 8.30549 11.0545 8.92926Z" fill="white"/>
<path d="M3.95064 11.8125C3.97951 11.0325 4.09468 10.2641 4.29714 9.5189C3.6737 9.38404 3.0775 9.20784 2.50623 9.00276C2.01733 9.8362 1.71479 10.792 1.65442 11.8125H3.95064Z" fill="white"/>
<path d="M7.54983 17.0963L7.54918 15.1482C6.72624 15.16 5.91774 15.2293 5.1391 15.3556C5.36715 16.0017 5.66541 16.6228 6.0316 17.2105C6.5274 17.1436 7.03566 17.1101 7.54983 17.0963Z" fill="white"/>
<path d="M4.53304 17.5055C4.79718 17.4398 5.06428 17.3801 5.33498 17.3289C4.98848 16.7386 4.70629 16.1182 4.4871 15.4757C3.92076 15.5928 3.38001 15.7477 2.85895 15.9242C3.31274 16.549 3.88106 17.0851 4.53304 17.5055Z" fill="white"/>
<path d="M2.49178 15.3539C3.06469 15.1508 3.66548 14.9773 4.2945 14.8444C4.08679 14.0736 3.96965 13.2779 3.948 12.4684H1.65112C1.6964 13.5187 1.99565 14.4989 2.49178 15.3539Z" fill="white"/>
<path d="M2.87668 8.43511C3.3938 8.61296 3.92996 8.76947 4.49138 8.88858C4.70499 8.2658 4.97996 7.66467 5.31301 7.09111C5.02623 7.04189 4.74338 6.98414 4.46316 6.92049C3.85055 7.33064 3.31276 7.84252 2.87668 8.43511Z" fill="white"/>
<path d="M11.2583 9.55795C11.3164 9.7604 11.3666 9.96548 11.4128 10.1719H13.9785C13.8328 9.7417 13.6418 9.33319 13.4121 8.94928C12.7345 9.20259 12.0117 9.40505 11.2583 9.55795Z" fill="white"/>
<path d="M9.51562 10.5C9.51562 10.3189 9.66262 10.1719 9.84374 10.1719H10.7418C10.7021 10.0052 10.6591 9.83949 10.6106 9.67575C9.83095 9.80077 9.02441 9.87098 8.2041 9.88608L8.20476 11.8125H9.51562V10.5Z" fill="white"/>
<path d="M9.51562 17.1704V15.2358C9.08152 15.1932 8.6438 15.1656 8.20575 15.1551L8.20641 17.0881C8.65069 17.0956 9.08775 17.1242 9.51562 17.1704Z" fill="white"/>
<path d="M9.51563 12.4688H8.20477L8.20543 14.4989C8.64348 14.509 9.08087 14.5366 9.51563 14.5773V12.4688Z" fill="white"/>
<path d="M8.85938 5.57812L7.97048 2.61548C8.46858 2.56659 8.85938 2.15152 8.85938 1.64062C8.85938 1.09692 8.4187 0.65625 7.875 0.65625C7.3313 0.65625 6.89062 1.09692 6.89062 1.64062C6.89062 2.15152 7.28142 2.56659 7.77952 2.61548L6.89062 5.57812H8.85938Z" fill="white"/>
<path d="M18.7031 20.3438C19.2468 20.3438 19.6875 19.9031 19.6875 19.3594V15.4219H17.7188V19.3594C17.7188 19.9031 18.1594 20.3438 18.7031 20.3438Z" fill="white"/>
<path d="M9.84375 10.5V20.3438H17.957C17.6197 20.1436 17.3906 19.7794 17.3906 19.3594V10.5H9.84375ZM10.8281 11.8125H13.4531V14.1094H10.8281V11.8125ZM12.7969 19.0312H10.8281V18.375H12.7969V19.0312ZM16.4062 19.0312H13.4531V18.375H16.4062V19.0312ZM16.4062 17.3906H10.8281V16.7344H16.4062V17.3906ZM16.4062 15.75H10.8281V15.0938H16.4062V15.75ZM16.4062 14.1094H14.1094V13.4531H16.4062V14.1094ZM16.4062 12.4688H14.1094V11.8125H16.4062V12.4688Z" fill="white"/>
<path d="M9.51563 18.3314V17.8293C9.00868 17.7703 8.48532 17.7394 7.95245 17.7394C7.07898 17.7394 6.2311 17.8234 5.41571 17.9803C6.19829 18.3287 7.06487 18.5243 7.97476 18.5243C8.50665 18.524 9.02115 18.4557 9.51563 18.3314Z" fill="white"/>
</svg>
