<svg width="230" height="140" viewBox="0 0 230 140" fill="none" xmlns="http://www.w3.org/2000/svg">
<path d="M72.2496 124.271H230V124.354H72.2496V124.271Z" fill="#EBEBEB"/>
<path d="M155.226 109.388H216.146C216.624 109.387 217.081 109.186 217.418 108.829C217.755 108.471 217.945 107.987 217.945 107.482V16.9054C217.941 16.4035 217.749 15.9237 217.413 15.57C217.076 15.2164 216.621 15.0175 216.146 15.0167H155.226C154.749 15.0167 154.29 15.2174 153.953 15.5748C153.615 15.9321 153.425 16.4168 153.425 16.9221V107.482C153.425 107.988 153.615 108.472 153.953 108.83C154.29 109.187 154.749 109.388 155.226 109.388ZM216.146 15.0834C216.603 15.0843 217.04 15.2766 217.363 15.6182C217.685 15.9598 217.866 16.4228 217.866 16.9054V107.482C217.866 107.965 217.685 108.428 217.363 108.77C217.04 109.111 216.603 109.304 216.146 109.304H155.226C154.77 109.304 154.332 109.111 154.009 108.77C153.686 108.428 153.505 107.965 153.504 107.482V16.9054C153.505 16.4225 153.686 15.9595 154.009 15.618C154.332 15.2765 154.77 15.0843 155.226 15.0834H216.146Z" fill="#EBEBEB"/>
<path d="M86.9804 109.388H147.904C148.381 109.387 148.839 109.186 149.177 108.829C149.514 108.472 149.704 107.988 149.705 107.482V16.9054C149.7 16.4032 149.508 15.9234 149.171 15.5698C148.834 15.2163 148.378 15.0175 147.904 15.0167H86.9804C86.5064 15.0184 86.0522 15.2176 85.7161 15.5712C85.3801 15.9247 85.1893 16.4041 85.1852 16.9054V107.482C85.1852 107.987 85.3741 108.47 85.7106 108.827C86.0471 109.185 86.5037 109.386 86.9804 109.388ZM147.904 15.0834C148.36 15.0843 148.798 15.2765 149.121 15.618C149.444 15.9595 149.625 16.4225 149.626 16.9054V107.482C149.625 107.965 149.444 108.428 149.121 108.77C148.798 109.111 148.36 109.304 147.904 109.304H86.9804C86.5238 109.304 86.0861 109.111 85.7632 108.77C85.4404 108.428 85.2586 107.965 85.2578 107.482V16.9054C85.2586 16.4225 85.4404 15.9595 85.7632 15.618C86.0861 15.2765 86.5238 15.0843 86.9804 15.0834H147.904Z" fill="#EBEBEB"/>
<path d="M200.062 127.448H213.449V127.531H200.062V127.448Z" fill="#EBEBEB"/>
<path d="M166.761 126.544H191.613V126.627H166.761V126.544Z" fill="#EBEBEB"/>
<path d="M196.627 130.548H199.747V130.631H196.627V130.548Z" fill="#EBEBEB"/>
<path d="M88.0563 129.987H99.5405V130.071H88.0563V129.987Z" fill="#EBEBEB"/>
<path d="M102.348 129.987H106.491V130.071H102.348V129.987Z" fill="#EBEBEB"/>
<path d="M154.946 128.579H172.16V128.663H154.946V128.579Z" fill="#EBEBEB"/>
<path d="M202.892 15.6274H159.722C159.722 15.6274 159.984 9.07685 165.644 7.12468C160.82 2.8733 171.405 -6.08996 182.902 6.32046C182.006 2.18254 192.225 3.67753 195.351 9.32379C196.462 5.61634 206.208 12.0568 202.892 15.6274Z" fill="#F5F5F5"/>
<path d="M127.645 68.823V73.6817C127.645 74.041 127.78 74.3857 128.02 74.6397C128.26 74.8938 128.586 75.0366 128.926 75.0366H132.122C132.462 75.0366 132.787 75.1793 133.028 75.4334C133.268 75.6875 133.403 76.0321 133.403 76.3914V78.8808C133.403 79.2401 133.538 79.5847 133.778 79.8388C134.018 80.0929 134.344 80.2356 134.684 80.2356H145.319C145.659 80.2356 145.985 80.0929 146.225 79.8388C146.465 79.5847 146.6 79.2401 146.6 78.8808V68.823C146.6 68.4637 146.735 68.1191 146.975 67.865C147.216 67.6109 147.542 67.4682 147.881 67.4682H149.863C150.203 67.4682 150.529 67.3255 150.769 67.0715C151.01 66.8176 151.146 66.473 151.147 66.1133V57.1033C151.147 56.744 151.282 56.3994 151.522 56.1453C151.762 55.8913 152.088 55.7485 152.428 55.7485H155.882C156.222 55.7485 156.548 55.8913 156.788 56.1453C157.028 56.3994 157.163 56.744 157.163 57.1033V62.1356C157.163 62.4949 157.298 62.8395 157.538 63.0936C157.779 63.3477 158.104 63.4904 158.444 63.4904C158.784 63.4904 159.11 63.3477 159.35 63.0936C159.59 62.8395 159.725 62.4949 159.725 62.1356V44.8498C159.725 44.4904 159.86 44.1458 160.1 43.8918C160.341 43.6377 160.666 43.4949 161.006 43.4949H164.477C164.816 43.4949 165.142 43.6377 165.382 43.8918C165.623 44.1458 165.757 44.4904 165.757 44.8498V62.1289C165.757 62.4882 165.892 62.8328 166.133 63.0869C166.373 63.341 166.699 63.4838 167.038 63.4838H167.846C168.186 63.4838 168.512 63.341 168.752 63.0869C168.992 62.8328 169.127 62.4882 169.127 62.1289V53.4927C169.126 53.156 169.244 52.8311 169.458 52.5817L178.122 42.4938C178.329 42.2411 178.441 41.917 178.437 41.5828V35.3726C178.437 35.0133 178.572 34.6687 178.813 34.4146C179.053 34.1605 179.379 34.0178 179.718 34.0178H188.985C189.324 34.0178 189.65 34.1605 189.89 34.4146C190.131 34.6687 190.266 35.0133 190.266 35.3726V62.1456C190.266 62.5049 190.401 62.8495 190.641 63.1036C190.881 63.3577 191.207 63.5004 191.547 63.5004H192.626C192.965 63.5004 193.291 63.3577 193.531 63.1036C193.772 62.8495 193.906 62.5049 193.906 62.1456V50.1657C193.906 49.8063 194.041 49.4617 194.282 49.2076C194.522 48.9536 194.848 48.8108 195.187 48.8108H204.444C204.781 48.8161 205.102 48.9611 205.338 49.2147C205.574 49.4682 205.706 49.8098 205.706 50.1657V62.1289C205.706 62.4882 205.841 62.8328 206.081 63.0869C206.322 63.341 206.647 63.4838 206.987 63.4838H208.647C208.815 63.4833 208.982 63.5181 209.137 63.586C209.293 63.6539 209.434 63.7537 209.553 63.8796C209.672 64.0055 209.767 64.155 209.831 64.3196C209.895 64.4842 209.928 64.6605 209.928 64.8386V66.1133C209.928 66.2912 209.961 66.4674 210.025 66.6318C210.089 66.7962 210.184 66.9455 210.303 67.0713C210.422 67.1972 210.563 67.297 210.718 67.365C210.874 67.4331 211.04 67.4682 211.209 67.4682H212.101C212.441 67.4682 212.767 67.6109 213.007 67.865C213.247 68.1191 213.382 68.4637 213.382 68.823V122.916C213.382 123.276 213.247 123.62 213.007 123.874C212.767 124.128 212.441 124.271 212.101 124.271H122.913C122.573 124.271 122.247 124.128 122.007 123.874C121.767 123.62 121.632 123.276 121.632 122.916V68.823C121.632 68.4637 121.767 68.1191 122.007 67.865C122.247 67.6109 122.573 67.4682 122.913 67.4682H126.364C126.704 67.4682 127.03 67.6109 127.27 67.865C127.51 68.1191 127.645 68.4637 127.645 68.823Z" fill="#F7EED7"/>
<path d="M62.7185 105.448V107.125C62.7185 107.249 62.7639 107.367 62.8447 107.455C62.9256 107.543 63.0352 107.592 63.1496 107.592H64.2252C64.3396 107.592 64.4492 107.641 64.5301 107.729C64.6109 107.817 64.6563 107.936 64.6563 108.06V108.919C64.6563 109.043 64.7018 109.162 64.7826 109.249C64.8635 109.337 64.9731 109.386 65.0875 109.386H68.667C68.7813 109.386 68.8909 109.337 68.9718 109.249C69.0526 109.162 69.0981 109.043 69.0981 108.919V105.448C69.0981 105.324 69.1435 105.205 69.2243 105.117C69.3052 105.03 69.4148 104.98 69.5292 104.98H70.196C70.3104 104.98 70.4202 104.931 70.5012 104.843C70.5822 104.756 70.6279 104.637 70.6282 104.513V101.404C70.6282 101.28 70.6736 101.161 70.7545 101.073C70.8353 100.985 70.945 100.936 71.0593 100.936H72.222C72.3364 100.936 72.446 100.985 72.5269 101.073C72.6077 101.161 72.6531 101.28 72.6531 101.404V103.14C72.6531 103.264 72.6986 103.383 72.7794 103.471C72.8603 103.558 72.9699 103.608 73.0842 103.608C73.1986 103.608 73.3082 103.558 73.3891 103.471C73.4699 103.383 73.5154 103.264 73.5154 103.14V97.1749C73.5154 97.0509 73.5608 96.932 73.6416 96.8443C73.7225 96.7566 73.8321 96.7074 73.9465 96.7074H75.1145C75.2288 96.7074 75.3385 96.7566 75.4193 96.8443C75.5002 96.932 75.5456 97.0509 75.5456 97.1749V103.138C75.5456 103.262 75.591 103.381 75.6719 103.468C75.7527 103.556 75.8624 103.605 75.9767 103.605H76.2486C76.3629 103.605 76.4725 103.556 76.5534 103.468C76.6342 103.381 76.6797 103.262 76.6797 103.138V100.158C76.6794 100.041 76.7192 99.9292 76.7912 99.8431L79.707 96.3619C79.7766 96.2747 79.8144 96.1629 79.8132 96.0475V93.9044C79.8132 93.7804 79.8586 93.6615 79.9394 93.5738C80.0203 93.4861 80.13 93.4369 80.2443 93.4369H83.3629C83.4773 93.4369 83.5869 93.4861 83.6678 93.5738C83.7486 93.6615 83.7941 93.7804 83.7941 93.9044V103.144C83.7941 103.268 83.8395 103.386 83.9203 103.474C84.0012 103.562 84.1108 103.611 84.2252 103.611H84.5883C84.7027 103.611 84.8123 103.562 84.8932 103.474C84.974 103.386 85.0194 103.268 85.0194 103.144V99.0094C85.0194 98.8854 85.0648 98.7665 85.1457 98.6788C85.2265 98.5911 85.3362 98.5418 85.4505 98.5418H88.566C88.6792 98.5437 88.7873 98.5937 88.8667 98.6812C88.9462 98.7687 88.9908 98.8866 88.9907 99.0094V103.138C88.9907 103.262 89.0362 103.381 89.117 103.468C89.1979 103.556 89.3075 103.605 89.4219 103.605H89.9804C90.037 103.605 90.0932 103.617 90.1455 103.641C90.1979 103.664 90.2455 103.698 90.2855 103.742C90.3256 103.785 90.3573 103.837 90.379 103.894C90.4006 103.951 90.4116 104.011 90.4115 104.073V104.513C90.4115 104.574 90.4226 104.635 90.4443 104.692C90.466 104.748 90.4977 104.8 90.5378 104.843C90.5778 104.887 90.6253 104.921 90.6776 104.945C90.7299 104.968 90.786 104.98 90.8426 104.98H91.1431C91.2574 104.98 91.3671 105.03 91.4479 105.117C91.5288 105.205 91.5742 105.324 91.5742 105.448V124.115C91.5742 124.239 91.5288 124.358 91.4479 124.446C91.3671 124.533 91.2574 124.583 91.1431 124.583H61.1257C61.0114 124.583 60.9017 124.533 60.8209 124.446C60.74 124.358 60.6946 124.239 60.6946 124.115V105.448C60.6946 105.324 60.74 105.205 60.8209 105.117C60.9017 105.03 61.0114 104.98 61.1257 104.98H62.2874C62.4017 104.98 62.5114 105.03 62.5922 105.117C62.6731 105.205 62.7185 105.324 62.7185 105.448Z" fill="#CCCCCB"/>
<path d="M124.355 64.813C119.259 59.423 119.259 50.6841 124.355 45.2941C129.451 39.9041 137.714 39.9041 142.81 45.2941C147.905 50.6841 147.906 59.423 142.81 64.8131C137.714 70.2031 129.451 70.2031 124.355 64.813Z" fill="#FAFAFA"/>
<path d="M117.18 40.0177H95.7481C95.7481 40.0177 90.7222 38.0154 91.3721 32.7129C92.0221 27.4103 99.6099 31.8286 99.6099 31.8286C99.6099 31.8286 97.3099 24.4304 104.658 26.5294C112.006 28.6284 112.722 35.9632 112.722 35.9632C112.722 35.9632 122.373 34.1812 117.18 40.0177Z" fill="#E9FBFF"/>
<path d="M90.2113 96.7739H91.8834C92.2232 96.7739 92.549 96.6312 92.7892 96.3771C93.0294 96.123 93.1644 95.7784 93.1644 95.4191V93.557C93.1644 93.1977 93.2993 92.8531 93.5396 92.599C93.7798 92.3449 94.1056 92.2022 94.4453 92.2022H96.7863C97.126 92.2022 97.4519 92.0594 97.6921 91.8053C97.9323 91.5513 98.0673 91.2067 98.0673 90.8473V76.7517C98.0673 76.3924 98.2022 76.0478 98.4424 75.7937C98.6827 75.5396 99.0085 75.3969 99.3482 75.3969H110.507C110.847 75.3969 111.173 75.5396 111.413 75.7937C111.653 76.0478 111.788 76.3924 111.788 76.7517V90.864C111.788 91.0419 111.822 91.2181 111.886 91.3825C111.95 91.5469 112.045 91.6962 112.164 91.822C112.283 91.9478 112.424 92.0476 112.579 92.1157C112.735 92.1838 112.901 92.2189 113.069 92.2189H114.738C115.078 92.2189 115.404 92.0761 115.644 91.822C115.884 91.568 116.019 91.2233 116.019 90.864V58.3446C116.019 57.9853 116.154 57.6407 116.394 57.3866C116.635 57.1325 116.96 56.9898 117.3 56.9898H128.459C128.799 56.9898 129.125 57.1325 129.365 57.3866C129.605 57.6407 129.74 57.9853 129.74 58.3446V67.1711C129.74 67.5109 129.861 67.8385 130.078 68.0888L140.243 79.7684C140.461 80.0187 140.581 80.3462 140.581 80.6861V90.8573C140.581 91.2167 140.716 91.5613 140.956 91.8154C141.196 92.0694 141.522 92.2122 141.862 92.2122H143.237C143.577 92.2122 143.903 92.0694 144.143 91.8154C144.383 91.5613 144.518 91.2167 144.518 90.8573V83.7595C144.518 83.5814 144.551 83.4051 144.615 83.2405C144.679 83.0759 144.774 82.9264 144.893 82.8005C145.012 82.6746 145.153 82.5748 145.309 82.5069C145.464 82.4389 145.631 82.4042 145.799 82.4046H150.216C150.556 82.4046 150.882 82.5474 151.122 82.8015C151.362 83.0555 151.497 83.4002 151.497 83.7595V90.844C151.497 91.2033 151.632 91.5479 151.872 91.802C152.113 92.0561 152.439 92.1988 152.778 92.1988H153.195C153.534 92.1988 153.86 92.0561 154.1 91.802C154.341 91.5479 154.476 91.2033 154.476 90.844V88.9285C154.476 88.5692 154.611 88.2246 154.851 87.9705C155.091 87.7164 155.417 87.5737 155.757 87.5737H160.215C160.554 87.5737 160.88 87.7164 161.12 87.9705C161.361 88.2246 161.496 88.5692 161.496 88.9285V95.4391C161.496 95.7984 161.63 96.143 161.871 96.3971C162.111 96.6512 162.437 96.7939 162.776 96.7939H165.499C165.668 96.7935 165.834 96.8282 165.99 96.8962C166.146 96.9641 166.287 97.0639 166.406 97.1898C166.525 97.3157 166.619 97.4652 166.684 97.6298C166.748 97.7943 166.781 97.9707 166.78 98.1488V110.075C166.781 110.435 166.917 110.78 167.157 111.034C167.398 111.288 167.724 111.43 168.064 111.43H180.842C181.182 111.43 181.508 111.287 181.748 111.033C181.988 110.779 182.123 110.435 182.123 110.075V106.825C182.123 106.466 182.258 106.121 182.498 105.867C182.738 105.613 183.064 105.47 183.404 105.47H187.534C187.874 105.47 188.199 105.327 188.44 105.073C188.68 104.819 188.815 104.475 188.815 104.115V98.1387C188.815 97.7794 188.95 97.4348 189.19 97.1807C189.43 96.9267 189.756 96.7839 190.096 96.7839H194.513C194.852 96.7839 195.178 96.9267 195.418 97.1807C195.659 97.4348 195.794 97.7794 195.794 98.1387V110.983C195.792 111.267 195.876 111.544 196.033 111.774L203.091 122.135C203.229 122.338 203.311 122.577 203.328 122.825C203.346 123.074 203.298 123.323 203.191 123.545C203.083 123.767 202.92 123.953 202.718 124.083C202.517 124.213 202.286 124.281 202.05 124.281H85.7501C85.5613 124.282 85.3746 124.238 85.2036 124.153C85.0325 124.069 84.8813 123.945 84.7607 123.791C84.6401 123.638 84.5531 123.458 84.506 123.264C84.4589 123.071 84.4528 122.869 84.4881 122.673L88.9461 97.8951C88.9976 97.5802 89.153 97.2947 89.3846 97.0895C89.6162 96.8842 89.9091 96.7724 90.2113 96.7739Z" fill="#DEDEDE"/>
<path d="M98.3232 132.79H91.085V132.847H98.3232V132.79Z" fill="#EBEBEB"/>
<path d="M72.3845 133.408H70.4854V133.465H72.3845V133.408Z" fill="#EBEBEB"/>
<path d="M90.8638 130.669H86.6699V130.726H90.8638V130.669Z" fill="#EBEBEB"/>
<path d="M20.9038 131.052H11.4648V131.109H20.9038V131.052Z" fill="#EBEBEB"/>
<path d="M24.232 131.052H22.8486V131.109H24.232V131.052Z" fill="#EBEBEB"/>
<path d="M49.2052 132.016H28.7319V132.073H49.2052V132.016Z" fill="#EBEBEB"/>
<path d="M52.2056 120.073H10.0047C9.67414 120.073 9.35707 119.936 9.12311 119.692C8.88914 119.448 8.75741 119.117 8.75684 118.772V56.8025C8.75741 56.4571 8.88914 56.1261 9.12311 55.8822C9.35707 55.6382 9.67414 55.5012 10.0047 55.5012H52.2056C52.5362 55.5012 52.8533 55.6382 53.0872 55.8822C53.3212 56.1261 53.4529 56.4571 53.4535 56.8025V118.781C53.4506 119.125 53.3179 119.454 53.0842 119.696C52.8505 119.938 52.5347 120.073 52.2056 120.073ZM10.0047 55.5582C9.68863 55.5582 9.38545 55.6892 9.16174 55.9225C8.93802 56.1558 8.81205 56.4723 8.81147 56.8025V118.781C8.81205 119.111 8.93802 119.428 9.16174 119.661C9.38545 119.894 9.68863 120.025 10.0047 120.025H52.2056C52.5217 120.025 52.8249 119.894 53.0486 119.661C53.2723 119.428 53.3983 119.111 53.3989 118.781V56.8025C53.3983 56.4723 53.2723 56.1558 53.0486 55.9225C52.8249 55.6892 52.5217 55.5582 52.2056 55.5582H10.0047Z" fill="#EBEBEB"/>
<path d="M99.4771 120.073H57.2762C56.9456 120.073 56.6286 119.936 56.3946 119.692C56.1606 119.448 56.0289 119.117 56.0283 118.772V56.8025C56.0289 56.4571 56.1606 56.1261 56.3946 55.8822C56.6286 55.6382 56.9456 55.5012 57.2762 55.5012H99.4771C99.8077 55.5012 100.125 55.6382 100.359 55.8822C100.593 56.1261 100.724 56.4571 100.725 56.8025V118.781C100.722 119.125 100.589 119.454 100.356 119.696C100.122 119.938 99.8062 120.073 99.4771 120.073ZM57.2762 55.5582C56.9601 55.5582 56.6569 55.6892 56.4332 55.9225C56.2095 56.1558 56.0835 56.4723 56.083 56.8025V118.781C56.0835 119.111 56.2095 119.428 56.4332 119.661C56.6569 119.894 56.9601 120.025 57.2762 120.025H99.4771C99.7932 120.025 100.096 119.894 100.32 119.661C100.544 119.428 100.67 119.111 100.67 118.781V56.8025C100.67 56.4723 100.544 56.1558 100.32 55.9225C100.096 55.6892 99.7932 55.5582 99.4771 55.5582H57.2762Z" fill="#EBEBEB"/>
<path d="M109.272 130.255H0V130.313H109.272V130.255Z" fill="#EBEBEB"/>
<path d="M63.1677 96.6293H49.1328V124.263H63.1677V96.6293Z" fill="#EBEBEB"/>
<path d="M51.8276 93.0861V96.6293H52.9357H59.3652H60.4733V93.0861H51.8276Z" fill="#EBEBEB"/>
<path d="M51.8277 97.5676H50.0312V99.4442H51.8277V97.5676Z" fill="#FAFAFA"/>
<path d="M55.3091 97.5676H53.5127V99.4442H55.3091V97.5676Z" fill="#FAFAFA"/>
<path d="M58.7886 97.5676H56.9922V99.4442H58.7886V97.5676Z" fill="#FAFAFA"/>
<path d="M62.2696 97.5676H60.4731V99.4442H62.2696V97.5676Z" fill="#FAFAFA"/>
<path d="M51.8277 100.978H50.0312V102.855H51.8277V100.978Z" fill="#FAFAFA"/>
<path d="M55.3091 100.978H53.5127V102.855H55.3091V100.978Z" fill="#FAFAFA"/>
<path d="M58.7886 100.978H56.9922V102.855H58.7886V100.978Z" fill="#FAFAFA"/>
<path d="M62.2696 100.978H60.4731V102.855H62.2696V100.978Z" fill="#FAFAFA"/>
<path d="M51.8277 104.387H50.0312V106.264H51.8277V104.387Z" fill="#FAFAFA"/>
<path d="M55.3091 104.387H53.5127V106.264H55.3091V104.387Z" fill="#FAFAFA"/>
<path d="M58.7886 104.387H56.9922V106.264H58.7886V104.387Z" fill="#FAFAFA"/>
<path d="M55.3091 94.6179H53.5127V96.4945H55.3091V94.6179Z" fill="#FAFAFA"/>
<path d="M58.7886 94.6179H56.9922V96.4945H58.7886V94.6179Z" fill="#FAFAFA"/>
<path d="M62.2696 104.387H60.4731V106.264H62.2696V104.387Z" fill="#FAFAFA"/>
<path d="M51.8277 107.798H50.0312V109.674H51.8277V107.798Z" fill="#FAFAFA"/>
<path d="M55.3091 107.798H53.5127V109.674H55.3091V107.798Z" fill="#FAFAFA"/>
<path d="M58.7886 107.798H56.9922V109.674H58.7886V107.798Z" fill="#FAFAFA"/>
<path d="M62.2696 107.798H60.4731V109.674H62.2696V107.798Z" fill="#FAFAFA"/>
<path d="M51.8277 111.208H50.0312V113.085H51.8277V111.208Z" fill="#FAFAFA"/>
<path d="M55.3091 111.208H53.5127V113.085H55.3091V111.208Z" fill="#FAFAFA"/>
<path d="M58.7886 111.208H56.9922V113.085H58.7886V111.208Z" fill="#FAFAFA"/>
<path d="M62.2696 111.208H60.4731V113.085H62.2696V111.208Z" fill="#FAFAFA"/>
<path d="M51.8277 114.619H50.0312V116.496H51.8277V114.619Z" fill="#FAFAFA"/>
<path d="M55.3091 114.619H53.5127V116.496H55.3091V114.619Z" fill="#FAFAFA"/>
<path d="M58.7886 114.619H56.9922V116.496H58.7886V114.619Z" fill="#FAFAFA"/>
<path d="M62.2696 114.619H60.4731V116.496H62.2696V114.619Z" fill="#FAFAFA"/>
<path d="M51.8277 118.03H50.0312V119.907H51.8277V118.03Z" fill="#FAFAFA"/>
<path d="M55.3091 118.03H53.5127V119.907H55.3091V118.03Z" fill="#FAFAFA"/>
<path d="M58.7886 118.03H56.9922V119.907H58.7886V118.03Z" fill="#FAFAFA"/>
<path d="M62.2696 118.03H60.4731V119.907H62.2696V118.03Z" fill="#FAFAFA"/>
<path d="M48.8425 96.6475H63.4565V96.2639H48.8425V96.6475Z" fill="#F5F5F5"/>
<path d="M49.5245 91.8441H32.8408V124.263H49.5245V91.8441Z" fill="#E6E6E6"/>
<path d="M36.0444 87.6321V91.8442H37.3601H45.0047H46.3204V87.6321H36.0444Z" fill="#E6E6E6"/>
<path d="M32.4951 91.8669H49.8672V91.4126H32.4951V91.8669Z" fill="#F5F5F5"/>
<path d="M35.6099 87.6321H46.7578V87.1778H35.6099V87.6321Z" fill="#F5F5F5"/>
<path d="M46.045 91.8441H29.3613V124.263H46.045V91.8441Z" fill="#F0F0F0"/>
<path d="M32.5654 87.6321V91.8442H33.8811H41.5257H42.8414V87.6321H32.5654Z" fill="#F0F0F0"/>
<path d="M32.5654 92.9583H30.4302V95.1887H32.5654V92.9583Z" fill="white"/>
<path d="M36.7026 92.9583H34.5674V95.1887H36.7026V92.9583Z" fill="white"/>
<path d="M40.8393 92.9583H38.7041V95.1887H40.8393V92.9583Z" fill="white"/>
<path d="M44.9765 92.9583H42.8413V95.1887H44.9765V92.9583Z" fill="white"/>
<path d="M32.5654 97.0128H30.4302V99.2432H32.5654V97.0128Z" fill="white"/>
<path d="M36.7026 97.0128H34.5674V99.2432H36.7026V97.0128Z" fill="white"/>
<path d="M40.8393 97.0128H38.7041V99.2432H40.8393V97.0128Z" fill="white"/>
<path d="M44.9765 97.0128H42.8413V99.2432H44.9765V97.0128Z" fill="white"/>
<path d="M32.5654 101.067H30.4302V103.298H32.5654V101.067Z" fill="white"/>
<path d="M36.7026 101.067H34.5674V103.298H36.7026V101.067Z" fill="white"/>
<path d="M40.8393 101.067H38.7041V103.298H40.8393V101.067Z" fill="white"/>
<path d="M36.7026 89.4538H34.5674V91.6843H36.7026V89.4538Z" fill="white"/>
<path d="M40.8393 89.4538H38.7041V91.6843H40.8393V89.4538Z" fill="white"/>
<path d="M44.9765 101.067H42.8413V103.298H44.9765V101.067Z" fill="white"/>
<path d="M32.5654 105.122H30.4302V107.352H32.5654V105.122Z" fill="white"/>
<path d="M36.7026 105.122H34.5674V107.352H36.7026V105.122Z" fill="white"/>
<path d="M40.8393 105.122H38.7041V107.352H40.8393V105.122Z" fill="white"/>
<path d="M44.9765 105.122H42.8413V107.352H44.9765V105.122Z" fill="white"/>
<path d="M32.5654 109.177H30.4302V111.407H32.5654V109.177Z" fill="white"/>
<path d="M36.7026 109.177H34.5674V111.407H36.7026V109.177Z" fill="white"/>
<path d="M40.8393 109.177H38.7041V111.407H40.8393V109.177Z" fill="white"/>
<path d="M44.9765 109.177H42.8413V111.407H44.9765V109.177Z" fill="white"/>
<path d="M32.5654 113.229H30.4302V115.459H32.5654V113.229Z" fill="white"/>
<path d="M36.7026 113.229H34.5674V115.459H36.7026V113.229Z" fill="white"/>
<path d="M40.8393 113.229H38.7041V115.459H40.8393V113.229Z" fill="white"/>
<path d="M44.9765 113.229H42.8413V115.459H44.9765V113.229Z" fill="white"/>
<path d="M32.5654 117.284H30.4302V119.514H32.5654V117.284Z" fill="white"/>
<path d="M36.7026 117.284H34.5674V119.514H36.7026V117.284Z" fill="white"/>
<path d="M40.8393 117.284H38.7041V119.514H40.8393V117.284Z" fill="white"/>
<path d="M44.9765 117.284H42.8413V119.514H44.9765V117.284Z" fill="white"/>
<path d="M29.0185 91.8669H46.3906V91.4126H29.0185V91.8669Z" fill="#F5F5F5"/>
<path d="M32.1304 87.6321H43.2783V87.1778H32.1304V87.6321Z" fill="#F5F5F5"/>
<path d="M20.9653 106.528H11.627V124.132H26.5295V106.528V99.7319L20.9653 106.528Z" fill="#F5F5F5"/>
<path d="M29.3114 99.7319H26.5293V124.132H29.3114V99.7319Z" fill="#E6E6E6"/>
<path d="M14.5395 109.633H12.3213V111.95H14.5395V109.633Z" fill="#E0E0E0"/>
<path opacity="0.3" d="M14.5396 109.633H12.5684V111.95H14.5396V109.633Z" fill="white"/>
<path d="M14.5395 113.533H12.3213V115.85H14.5395V113.533Z" fill="#E0E0E0"/>
<path opacity="0.3" d="M14.5396 113.533H12.5684V115.85H14.5396V113.533Z" fill="white"/>
<path d="M14.5395 117.43H12.3213V119.747H14.5395V117.43Z" fill="#E0E0E0"/>
<path opacity="0.3" d="M14.5396 117.43H12.5684V119.747H14.5396V117.43Z" fill="white"/>
<path opacity="0.2" d="M14.7866 117.43H12.5684V119.747H14.7866V117.43Z" fill="white"/>
<path d="M18.2788 109.633H16.0605V111.95H18.2788V109.633Z" fill="#E0E0E0"/>
<path opacity="0.3" d="M18.2789 109.633H16.3076V111.95H18.2789V109.633Z" fill="white"/>
<path d="M18.2788 113.533H16.0605V115.85H18.2788V113.533Z" fill="#E0E0E0"/>
<path opacity="0.3" d="M18.2789 113.533H16.3076V115.85H18.2789V113.533Z" fill="white"/>
<path d="M18.2788 117.43H16.0605V119.747H18.2788V117.43Z" fill="#E0E0E0"/>
<path opacity="0.3" d="M18.2789 117.43H16.3076V119.747H18.2789V117.43Z" fill="white"/>
<path opacity="0.2" d="M18.5258 117.43H16.3076V119.747H18.5258V117.43Z" fill="white"/>
<path d="M22.0185 109.633H19.8003V111.95H22.0185V109.633Z" fill="#E0E0E0"/>
<path opacity="0.3" d="M22.0181 109.633H20.0469V111.95H22.0181V109.633Z" fill="white"/>
<path d="M22.0185 113.533H19.8003V115.85H22.0185V113.533Z" fill="#E0E0E0"/>
<path opacity="0.3" d="M22.0181 113.533H20.0469V115.85H22.0181V113.533Z" fill="white"/>
<path d="M22.0185 117.43H19.8003V119.747H22.0185V117.43Z" fill="#E0E0E0"/>
<path opacity="0.3" d="M22.0181 117.43H20.0469V119.747H22.0181V117.43Z" fill="white"/>
<path opacity="0.2" d="M22.2651 117.43H20.0469V119.747H22.2651V117.43Z" fill="white"/>
<path d="M25.7553 109.633H23.5371V111.95H25.7553V109.633Z" fill="#E0E0E0"/>
<path opacity="0.3" d="M25.7554 109.633H23.7842V111.95H25.7554V109.633Z" fill="white"/>
<path d="M25.7553 113.533H23.5371V115.85H25.7553V113.533Z" fill="#E0E0E0"/>
<path opacity="0.3" d="M25.7554 113.533H23.7842V115.85H25.7554V113.533Z" fill="white"/>
<path d="M25.7553 117.43H23.5371V119.747H25.7553V117.43Z" fill="#E0E0E0"/>
<path opacity="0.3" d="M25.7554 117.43H23.7842V119.747H25.7554V117.43Z" fill="white"/>
<path opacity="0.2" d="M26.0044 117.43H23.7861V119.747H26.0044V117.43Z" fill="white"/>
<path d="M75.1529 68.4321L80.9727 68.3636C81.1792 68.3608 81.382 68.4211 81.5562 68.5371C83.3964 70.3635 85.5162 69.3087 86.4582 68.6695C86.8166 68.4244 87.234 68.2899 87.6623 68.2814L94.1465 68.2038C96.5811 68.1741 97.1297 64.6081 94.8218 63.8022L94.7344 63.7611C97.2521 61.5192 91.6224 56.9121 85.6342 63.4529C86.0844 61.2932 80.7061 62.1356 79.091 65.0943C78.4835 63.1812 73.3848 66.5966 75.1529 68.4321Z" fill="#F0F0F0"/>
<path d="M41.8946 77.4202H51.5587C52.7956 77.4202 53.0885 75.6097 51.9258 75.1851L51.8799 75.1691C53.1737 74.0436 50.337 71.6693 47.2533 74.9568C47.4937 73.861 44.7532 74.2559 43.9162 75.7513C43.619 74.7696 41.0052 76.475 41.8946 77.4202Z" fill="#F0F0F0"/>
<path d="M14.8411 68.7493H31.2582C33.3606 68.7493 33.8676 65.6741 31.881 64.9504L31.8045 64.9253C34.0031 63.0122 29.182 58.9895 23.937 64.5623C24.3456 62.7017 19.6906 63.3752 18.2679 65.9139C17.7696 64.2473 13.331 67.1421 14.8411 68.7493Z" fill="#F0F0F0"/>
<path d="M201.61 132.79H194.372V132.847H201.61V132.79Z" fill="#EBEBEB"/>
<path d="M175.672 133.408H173.772V133.465H175.672V133.408Z" fill="#EBEBEB"/>
<path d="M194.151 130.669H189.957V130.726H194.151V130.669Z" fill="#EBEBEB"/>
<path d="M124.191 131.052H114.752V131.109H124.191V131.052Z" fill="#EBEBEB"/>
<path d="M127.519 131.052H126.136V131.109H127.519V131.052Z" fill="#EBEBEB"/>
<path d="M152.493 132.016H132.02V132.073H152.493V132.016Z" fill="#EBEBEB"/>
<path d="M155.493 120.073H113.292C112.962 120.073 112.645 119.936 112.411 119.692C112.177 119.448 112.045 119.117 112.044 118.772V56.8025C112.045 56.4571 112.177 56.1261 112.411 55.8822C112.645 55.6382 112.962 55.5012 113.292 55.5012H155.493C155.824 55.5012 156.141 55.6382 156.375 55.8822C156.609 56.1261 156.741 56.4571 156.741 56.8025V118.781C156.738 119.125 156.605 119.454 156.372 119.696C156.138 119.938 155.822 120.073 155.493 120.073ZM113.292 55.5582C112.976 55.5582 112.673 55.6892 112.449 55.9225C112.226 56.1558 112.1 56.4723 112.099 56.8025V118.781C112.1 119.111 112.226 119.428 112.449 119.661C112.673 119.894 112.976 120.025 113.292 120.025H155.493C155.809 120.025 156.112 119.894 156.336 119.661C156.56 119.428 156.686 119.111 156.686 118.781V56.8025C156.686 56.4723 156.56 56.1558 156.336 55.9225C156.112 55.6892 155.809 55.5582 155.493 55.5582H113.292Z" fill="#EBEBEB"/>
<path d="M202.764 120.073H160.563C160.233 120.073 159.916 119.936 159.682 119.692C159.448 119.448 159.316 119.117 159.315 118.772V56.8025C159.316 56.4571 159.448 56.1261 159.682 55.8822C159.916 55.6382 160.233 55.5012 160.563 55.5012H202.764C203.095 55.5012 203.412 55.6382 203.646 55.8822C203.88 56.1261 204.012 56.4571 204.012 56.8025V118.781C204.009 119.125 203.876 119.454 203.643 119.696C203.409 119.938 203.093 120.073 202.764 120.073ZM160.563 55.5582C160.247 55.5582 159.944 55.6892 159.72 55.9225C159.497 56.1558 159.371 56.4723 159.37 56.8025V118.781C159.371 119.111 159.497 119.428 159.72 119.661C159.944 119.894 160.247 120.025 160.563 120.025H202.764C203.08 120.025 203.383 119.894 203.607 119.661C203.831 119.428 203.957 119.111 203.957 118.781V56.8025C203.957 56.4723 203.831 56.1558 203.607 55.9225C203.383 55.6892 203.08 55.5582 202.764 55.5582H160.563Z" fill="#EBEBEB"/>
<path d="M212.559 130.255H103.287V130.313H212.559V130.255Z" fill="#EBEBEB"/>
<path d="M166.455 96.6293H152.42V124.263H166.455V96.6293Z" fill="#EBEBEB"/>
<path d="M155.115 93.0861V96.6293H156.223H162.653H163.761V93.0861H155.115Z" fill="#EBEBEB"/>
<path d="M155.115 97.5676H153.318V99.4442H155.115V97.5676Z" fill="#FAFAFA"/>
<path d="M158.596 97.5676H156.8V99.4442H158.596V97.5676Z" fill="#FAFAFA"/>
<path d="M162.076 97.5676H160.279V99.4442H162.076V97.5676Z" fill="#FAFAFA"/>
<path d="M165.557 97.5676H163.761V99.4442H165.557V97.5676Z" fill="#FAFAFA"/>
<path d="M155.115 100.978H153.318V102.855H155.115V100.978Z" fill="#FAFAFA"/>
<path d="M158.596 100.978H156.8V102.855H158.596V100.978Z" fill="#FAFAFA"/>
<path d="M162.076 100.978H160.279V102.855H162.076V100.978Z" fill="#FAFAFA"/>
<path d="M165.557 100.978H163.761V102.855H165.557V100.978Z" fill="#FAFAFA"/>
<path d="M155.115 104.387H153.318V106.264H155.115V104.387Z" fill="#FAFAFA"/>
<path d="M158.596 104.387H156.8V106.264H158.596V104.387Z" fill="#FAFAFA"/>
<path d="M162.076 104.387H160.279V106.264H162.076V104.387Z" fill="#FAFAFA"/>
<path d="M158.596 94.6179H156.8V96.4945H158.596V94.6179Z" fill="#FAFAFA"/>
<path d="M162.076 94.6179H160.279V96.4945H162.076V94.6179Z" fill="#FAFAFA"/>
<path d="M165.557 104.387H163.761V106.264H165.557V104.387Z" fill="#FAFAFA"/>
<path d="M155.115 107.798H153.318V109.674H155.115V107.798Z" fill="#FAFAFA"/>
<path d="M158.596 107.798H156.8V109.674H158.596V107.798Z" fill="#FAFAFA"/>
<path d="M162.076 107.798H160.279V109.674H162.076V107.798Z" fill="#FAFAFA"/>
<path d="M165.557 107.798H163.761V109.674H165.557V107.798Z" fill="#FAFAFA"/>
<path d="M155.115 111.208H153.318V113.085H155.115V111.208Z" fill="#FAFAFA"/>
<path d="M158.596 111.208H156.8V113.085H158.596V111.208Z" fill="#FAFAFA"/>
<path d="M162.076 111.208H160.279V113.085H162.076V111.208Z" fill="#FAFAFA"/>
<path d="M165.557 111.208H163.761V113.085H165.557V111.208Z" fill="#FAFAFA"/>
<path d="M155.115 114.619H153.318V116.496H155.115V114.619Z" fill="#FAFAFA"/>
<path d="M158.596 114.619H156.8V116.496H158.596V114.619Z" fill="#FAFAFA"/>
<path d="M162.076 114.619H160.279V116.496H162.076V114.619Z" fill="#FAFAFA"/>
<path d="M165.557 114.619H163.761V116.496H165.557V114.619Z" fill="#FAFAFA"/>
<path d="M155.115 118.03H153.318V119.907H155.115V118.03Z" fill="#FAFAFA"/>
<path d="M158.596 118.03H156.8V119.907H158.596V118.03Z" fill="#FAFAFA"/>
<path d="M162.076 118.03H160.279V119.907H162.076V118.03Z" fill="#FAFAFA"/>
<path d="M165.557 118.03H163.761V119.907H165.557V118.03Z" fill="#FAFAFA"/>
<path d="M152.129 96.6475H166.743V96.2639H152.129V96.6475Z" fill="#F5F5F5"/>
<path d="M152.812 91.8441H136.128V124.263H152.812V91.8441Z" fill="#E6E6E6"/>
<path d="M139.332 87.6321V91.8442H140.647H148.292H149.607V87.6321H139.332Z" fill="#E6E6E6"/>
<path d="M135.782 91.8669H153.154V91.4126H135.782V91.8669Z" fill="#F5F5F5"/>
<path d="M138.897 87.6321H150.045V87.1778H138.897V87.6321Z" fill="#F5F5F5"/>
<path d="M149.332 91.8441H132.648V124.263H149.332V91.8441Z" fill="#F0F0F0"/>
<path d="M135.853 87.6321V91.8442H137.168H144.813H146.128V87.6321H135.853Z" fill="#F0F0F0"/>
<path d="M135.853 92.9583H133.718V95.1887H135.853V92.9583Z" fill="white"/>
<path d="M139.99 92.9583H137.854V95.1887H139.99V92.9583Z" fill="white"/>
<path d="M144.126 92.9583H141.991V95.1887H144.126V92.9583Z" fill="white"/>
<path d="M148.264 92.9583H146.129V95.1887H148.264V92.9583Z" fill="white"/>
<path d="M135.853 97.0128H133.718V99.2432H135.853V97.0128Z" fill="white"/>
<path d="M139.99 97.0128H137.854V99.2432H139.99V97.0128Z" fill="white"/>
<path d="M144.126 97.0128H141.991V99.2432H144.126V97.0128Z" fill="white"/>
<path d="M148.264 97.0128H146.129V99.2432H148.264V97.0128Z" fill="white"/>
<path d="M135.853 101.067H133.718V103.298H135.853V101.067Z" fill="white"/>
<path d="M139.99 101.067H137.854V103.298H139.99V101.067Z" fill="white"/>
<path d="M144.126 101.067H141.991V103.298H144.126V101.067Z" fill="white"/>
<path d="M139.99 89.4538H137.854V91.6843H139.99V89.4538Z" fill="white"/>
<path d="M144.126 89.4538H141.991V91.6843H144.126V89.4538Z" fill="white"/>
<path d="M148.264 101.067H146.129V103.298H148.264V101.067Z" fill="white"/>
<path d="M135.853 105.122H133.718V107.352H135.853V105.122Z" fill="white"/>
<path d="M139.99 105.122H137.854V107.352H139.99V105.122Z" fill="white"/>
<path d="M144.126 105.122H141.991V107.352H144.126V105.122Z" fill="white"/>
<path d="M148.264 105.122H146.129V107.352H148.264V105.122Z" fill="white"/>
<path d="M135.853 109.177H133.718V111.407H135.853V109.177Z" fill="white"/>
<path d="M139.99 109.177H137.854V111.407H139.99V109.177Z" fill="white"/>
<path d="M144.126 109.177H141.991V111.407H144.126V109.177Z" fill="white"/>
<path d="M148.264 109.177H146.129V111.407H148.264V109.177Z" fill="white"/>
<path d="M135.853 113.229H133.718V115.459H135.853V113.229Z" fill="white"/>
<path d="M139.99 113.229H137.854V115.459H139.99V113.229Z" fill="white"/>
<path d="M144.126 113.229H141.991V115.459H144.126V113.229Z" fill="white"/>
<path d="M148.264 113.229H146.129V115.459H148.264V113.229Z" fill="white"/>
<path d="M135.853 117.284H133.718V119.514H135.853V117.284Z" fill="white"/>
<path d="M139.99 117.284H137.854V119.514H139.99V117.284Z" fill="white"/>
<path d="M144.126 117.284H141.991V119.514H144.126V117.284Z" fill="white"/>
<path d="M148.264 117.284H146.129V119.514H148.264V117.284Z" fill="white"/>
<path d="M132.306 91.8669H149.678V91.4126H132.306V91.8669Z" fill="#F5F5F5"/>
<path d="M135.417 87.6321H146.565V87.1778H135.417V87.6321Z" fill="#F5F5F5"/>
<path d="M124.252 106.528H114.914V124.132H129.817V106.528V99.7319L124.252 106.528Z" fill="#F5F5F5"/>
<path d="M132.598 99.7319H129.816V124.132H132.598V99.7319Z" fill="#E6E6E6"/>
<path d="M117.827 109.633H115.609V111.95H117.827V109.633Z" fill="#E0E0E0"/>
<path opacity="0.3" d="M117.827 109.633H115.856V111.95H117.827V109.633Z" fill="white"/>
<path d="M117.827 113.533H115.609V115.85H117.827V113.533Z" fill="#E0E0E0"/>
<path opacity="0.3" d="M117.827 113.533H115.856V115.85H117.827V113.533Z" fill="white"/>
<path d="M117.827 117.43H115.609V119.747H117.827V117.43Z" fill="#E0E0E0"/>
<path opacity="0.3" d="M117.827 117.43H115.856V119.747H117.827V117.43Z" fill="white"/>
<path opacity="0.2" d="M118.074 117.43H115.856V119.747H118.074V117.43Z" fill="white"/>
<path d="M121.566 109.633H119.348V111.95H121.566V109.633Z" fill="#E0E0E0"/>
<path opacity="0.3" d="M121.566 109.633H119.595V111.95H121.566V109.633Z" fill="white"/>
<path d="M121.566 113.533H119.348V115.85H121.566V113.533Z" fill="#E0E0E0"/>
<path opacity="0.3" d="M121.566 113.533H119.595V115.85H121.566V113.533Z" fill="white"/>
<path d="M121.566 117.43H119.348V119.747H121.566V117.43Z" fill="#E0E0E0"/>
<path opacity="0.3" d="M121.566 117.43H119.595V119.747H121.566V117.43Z" fill="white"/>
<path opacity="0.2" d="M121.813 117.43H119.595V119.747H121.813V117.43Z" fill="white"/>
<path d="M125.306 109.633H123.087V111.95H125.306V109.633Z" fill="#E0E0E0"/>
<path opacity="0.3" d="M125.305 109.633H123.334V111.95H125.305V109.633Z" fill="white"/>
<path d="M125.306 113.533H123.087V115.85H125.306V113.533Z" fill="#E0E0E0"/>
<path opacity="0.3" d="M125.305 113.533H123.334V115.85H125.305V113.533Z" fill="white"/>
<path d="M125.306 117.43H123.087V119.747H125.306V117.43Z" fill="#E0E0E0"/>
<path opacity="0.3" d="M125.305 117.43H123.334V119.747H125.305V117.43Z" fill="white"/>
<path opacity="0.2" d="M125.552 117.43H123.334V119.747H125.552V117.43Z" fill="white"/>
<path d="M129.042 109.633H126.824V111.95H129.042V109.633Z" fill="#E0E0E0"/>
<path opacity="0.3" d="M129.043 109.633H127.071V111.95H129.043V109.633Z" fill="white"/>
<path d="M129.042 113.533H126.824V115.85H129.042V113.533Z" fill="#E0E0E0"/>
<path opacity="0.3" d="M129.043 113.533H127.071V115.85H129.043V113.533Z" fill="white"/>
<path d="M129.042 117.43H126.824V119.747H129.042V117.43Z" fill="#E0E0E0"/>
<path opacity="0.3" d="M129.043 117.43H127.071V119.747H129.043V117.43Z" fill="white"/>
<path opacity="0.2" d="M129.291 117.43H127.073V119.747H129.291V117.43Z" fill="white"/>
<path d="M145.182 77.4202H154.846C156.083 77.4202 156.376 75.6097 155.213 75.1851L155.167 75.1691C156.461 74.0436 153.624 71.6693 150.54 74.9568C150.781 73.861 148.04 74.2559 147.203 75.7513C146.906 74.7696 144.292 76.475 145.182 77.4202Z" fill="#F0F0F0"/>
<path d="M33.956 94.2892C31.8143 91.6501 29.1305 90.7483 27.1615 91.7323C26.8782 91.8739 26.5584 91.9146 26.2509 91.8482C25.9434 91.7818 25.6653 91.612 25.459 91.3647C23.0769 88.6685 19.2152 88.3489 17.6133 90.8921C17.432 91.18 17.2782 91.4859 17.1543 91.8053C16.9577 92.3194 16.6305 92.7678 16.208 93.1021C15.921 93.3246 15.6746 93.5991 15.4803 93.9125C14.9604 94.8129 14.7192 95.8589 14.7897 96.9078C14.8017 97.0644 14.7706 97.2212 14.7002 97.36C14.6297 97.4987 14.5227 97.6135 14.3919 97.6909C13.9459 97.9349 13.5691 98.297 13.2992 98.741C12.001 100.796 12.5736 104.471 14.5777 106.939C16.3632 109.138 18.6819 109.642 20.0828 108.268C20.1398 108.211 20.2158 108.179 20.2948 108.179C20.3738 108.179 20.4498 108.211 20.5068 108.268C21.5165 109.215 22.6922 109.222 23.2976 108.195C23.3208 108.15 23.3538 108.112 23.3939 108.083C23.4341 108.054 23.4801 108.035 23.5285 108.028C23.5768 108.021 23.626 108.026 23.6721 108.043C23.7181 108.06 23.7598 108.087 23.7937 108.124C24.834 109.213 26.0906 109.266 26.7309 108.195C26.8463 107.996 26.9346 107.78 26.9932 107.556C27.0021 107.508 27.0208 107.463 27.048 107.423C27.0751 107.384 27.1101 107.351 27.1506 107.327C27.1911 107.303 27.236 107.288 27.2824 107.284C27.3288 107.28 27.3755 107.286 27.4193 107.302C28.099 107.588 28.7656 107.464 29.2201 106.903C29.2653 106.844 29.3291 106.805 29.3998 106.792C29.4705 106.779 29.5433 106.793 29.6048 106.832C31.9366 108.289 34.3953 108.008 35.7634 105.837C37.5926 102.93 36.7971 97.7639 33.956 94.2892Z" fill="#9A9EA9"/>
<path opacity="0.6" d="M33.956 94.2892C31.8143 91.6501 29.1305 90.7483 27.1615 91.7323C26.8782 91.8739 26.5584 91.9146 26.2509 91.8482C25.9434 91.7818 25.6653 91.612 25.459 91.3647C23.0769 88.6685 19.2152 88.3489 17.6133 90.8921C17.432 91.18 17.2782 91.4859 17.1543 91.8053C16.9577 92.3194 16.6305 92.7678 16.208 93.1021C15.921 93.3246 15.6746 93.5991 15.4803 93.9125C14.9604 94.8129 14.7192 95.8589 14.7897 96.9078C14.8017 97.0644 14.7706 97.2212 14.7002 97.36C14.6297 97.4987 14.5227 97.6135 14.3919 97.6909C13.9459 97.9349 13.5691 98.297 13.2992 98.741C12.001 100.796 12.5736 104.471 14.5777 106.939C16.3632 109.138 18.6819 109.642 20.0828 108.268C20.1398 108.211 20.2158 108.179 20.2948 108.179C20.3738 108.179 20.4498 108.211 20.5068 108.268C21.5165 109.215 22.6922 109.222 23.2976 108.195C23.3208 108.15 23.3538 108.112 23.3939 108.083C23.4341 108.054 23.4801 108.035 23.5285 108.028C23.5768 108.021 23.626 108.026 23.6721 108.043C23.7181 108.06 23.7598 108.087 23.7937 108.124C24.834 109.213 26.0906 109.266 26.7309 108.195C26.8463 107.996 26.9346 107.78 26.9932 107.556C27.0021 107.508 27.0208 107.463 27.048 107.423C27.0751 107.384 27.1101 107.351 27.1506 107.327C27.1911 107.303 27.236 107.288 27.2824 107.284C27.3288 107.28 27.3755 107.286 27.4193 107.302C28.099 107.588 28.7656 107.464 29.2201 106.903C29.2653 106.844 29.3291 106.805 29.3998 106.792C29.4705 106.779 29.5433 106.793 29.6048 106.832C31.9366 108.289 34.3953 108.008 35.7634 105.837C37.5926 102.93 36.7971 97.7639 33.956 94.2892Z" fill="white"/>
<path d="M19.7006 109.471L21.7309 111.546C21.5692 114.475 21.4359 121.222 21.4359 121.222L20.7147 125.938L27.0765 126.002C27.0765 126.002 26.788 122.018 26.788 121.804C26.788 121.589 25.5576 113.957 25.5576 113.957L25.1205 109.683L28.3987 108.581L28.9975 106.677L31.4015 105.175L32.5794 103.181L32.1249 103.06L30.8136 104.901L29.2947 105.264L29.9504 103.57H29.227L27.4196 107.496L25.0899 108.021L25.3937 102.508C23.5317 103.467 22.9351 101.869 22.9351 101.869C22.9351 101.869 22.1658 109.291 21.8948 110.135L20.695 109.471L19.3837 107.206H18.833L19.7006 109.471Z" fill="#9A9EA9"/>
<path d="M10.3906 118.681H10.0693V122.996H10.3906V118.681Z" fill="#9A9EA9"/>
<path opacity="0.2" d="M10.3906 118.681H10.0693V122.996H10.3906V118.681Z" fill="black"/>
<path d="M17.0498 118.681H16.7285V122.996H17.0498V118.681Z" fill="#9A9EA9"/>
<path opacity="0.2" d="M17.0498 118.681H16.7285V122.996H17.0498V118.681Z" fill="black"/>
<path d="M17.4144 122.576H9.71729V123.101H17.4144V122.576Z" fill="#9A9EA9"/>
<path opacity="0.2" d="M17.4144 122.576H9.71729V123.101H17.4144V122.576Z" fill="white"/>
<path d="M10.2285 123.085H9.90723V126.005H10.2285V123.085Z" fill="#9A9EA9"/>
<path opacity="0.2" d="M10.2285 123.085H9.90723V126.005H10.2285V123.085Z" fill="black"/>
<path d="M17.2549 123.085H16.9336V126.005H17.2549V123.085Z" fill="#9A9EA9"/>
<path opacity="0.2" d="M17.2549 123.085H16.9336V126.005H17.2549V123.085Z" fill="black"/>
<path d="M17.4144 118.875H9.71729V121.413H17.4144V118.875Z" fill="#9A9EA9"/>
<path opacity="0.2" d="M17.4144 118.875H9.71729V121.413H17.4144V118.875Z" fill="white"/>
<path d="M17.3994 122.996H9.72852V123.813H17.3994V122.996Z" fill="#9A9EA9"/>
<path opacity="0.1" d="M17.3994 122.996H9.72852V123.813H17.3994V122.996Z" fill="black"/>
<path d="M9.72849 121.833H9.40723V126H9.72849V121.833Z" fill="#9A9EA9"/>
<path d="M9.85244 121.416H9.29297V122H9.85244V121.416Z" fill="#9A9EA9"/>
<path opacity="0.2" d="M9.85244 121.416H9.29297V122H9.85244V121.416Z" fill="white"/>
<path d="M10.2877 121.416H9.85059V122H10.2877V121.416Z" fill="#9A9EA9"/>
<path d="M17.4014 126H17.7227V121.834H17.4014V126Z" fill="#9A9EA9"/>
<path d="M17.2786 121.998H17.8359V121.413H17.2786V121.998Z" fill="#9A9EA9"/>
<path opacity="0.2" d="M17.2786 121.998H17.8359V121.413H17.2786V121.998Z" fill="white"/>
<path d="M17.2769 121.416H16.8398V122H17.2769V121.416Z" fill="#9A9EA9"/>
<path opacity="0.1" d="M10.2877 121.416H9.85059V122H10.2877V121.416Z" fill="black"/>
<path opacity="0.1" d="M17.2769 121.416H16.8398V122H17.2769V121.416Z" fill="black"/>
<path d="M216.891 99.0806C215.002 96.7525 212.635 95.957 210.898 96.825C210.648 96.9499 210.366 96.9859 210.094 96.9273C209.823 96.8688 209.578 96.7189 209.396 96.5008C207.294 94.1223 203.888 93.8403 202.475 96.0839C202.315 96.3379 202.179 96.6077 202.07 96.8895C201.896 97.343 201.608 97.7385 201.235 98.0334C200.982 98.2297 200.764 98.4719 200.593 98.7483C200.134 99.5426 199.922 100.465 199.984 101.391C199.994 101.529 199.967 101.667 199.905 101.79C199.843 101.912 199.748 102.013 199.633 102.081C199.239 102.297 198.907 102.616 198.669 103.008C197.524 104.82 198.029 108.063 199.797 110.24C201.372 112.179 203.417 112.624 204.653 111.412C204.703 111.362 204.77 111.333 204.84 111.333C204.91 111.333 204.977 111.362 205.027 111.412C205.918 112.248 206.955 112.254 207.489 111.348C207.51 111.308 207.539 111.274 207.574 111.249C207.609 111.223 207.65 111.207 207.693 111.2C207.735 111.194 207.779 111.199 207.819 111.214C207.86 111.228 207.897 111.253 207.927 111.285C208.844 112.246 209.953 112.292 210.518 111.348C210.62 111.172 210.697 110.982 210.749 110.784C210.757 110.742 210.773 110.702 210.797 110.667C210.821 110.632 210.852 110.603 210.888 110.582C210.924 110.561 210.963 110.548 211.004 110.544C211.045 110.54 211.086 110.546 211.125 110.56C211.725 110.812 212.313 110.703 212.714 110.208C212.753 110.156 212.81 110.122 212.872 110.11C212.934 110.099 212.999 110.111 213.053 110.145C215.11 111.43 217.279 111.182 218.486 109.267C220.099 106.703 219.398 102.146 216.891 99.0806Z" fill="#638960"/>
<path opacity="0.6" d="M216.891 99.0806C215.002 96.7525 212.635 95.957 210.898 96.825C210.648 96.9499 210.366 96.9859 210.094 96.9273C209.823 96.8688 209.578 96.7189 209.396 96.5008C207.294 94.1223 203.888 93.8403 202.475 96.0839C202.315 96.3379 202.179 96.6077 202.07 96.8895C201.896 97.343 201.608 97.7385 201.235 98.0334C200.982 98.2297 200.764 98.4719 200.593 98.7483C200.134 99.5426 199.922 100.465 199.984 101.391C199.994 101.529 199.967 101.667 199.905 101.79C199.843 101.912 199.748 102.013 199.633 102.081C199.239 102.297 198.907 102.616 198.669 103.008C197.524 104.82 198.029 108.063 199.797 110.24C201.372 112.179 203.417 112.624 204.653 111.412C204.703 111.362 204.77 111.333 204.84 111.333C204.91 111.333 204.977 111.362 205.027 111.412C205.918 112.248 206.955 112.254 207.489 111.348C207.51 111.308 207.539 111.274 207.574 111.249C207.609 111.223 207.65 111.207 207.693 111.2C207.735 111.194 207.779 111.199 207.819 111.214C207.86 111.228 207.897 111.253 207.927 111.285C208.844 112.246 209.953 112.292 210.518 111.348C210.62 111.172 210.697 110.982 210.749 110.784C210.757 110.742 210.773 110.702 210.797 110.667C210.821 110.632 210.852 110.603 210.888 110.582C210.924 110.561 210.963 110.548 211.004 110.544C211.045 110.54 211.086 110.546 211.125 110.56C211.725 110.812 212.313 110.703 212.714 110.208C212.753 110.156 212.81 110.122 212.872 110.11C212.934 110.099 212.999 110.111 213.053 110.145C215.11 111.43 217.279 111.182 218.486 109.267C220.099 106.703 219.398 102.146 216.891 99.0806Z" fill="white"/>
<path d="M204.315 112.473L206.106 114.304C205.964 116.888 205.846 122.839 205.846 122.839L205.21 127L210.822 127.056C210.822 127.056 210.567 123.542 210.567 123.353C210.567 123.163 209.482 116.431 209.482 116.431L209.096 112.661L211.988 111.688L212.516 110.008L214.637 108.683L215.676 106.925L215.275 106.818L214.119 108.441L212.779 108.762L213.357 107.267H212.719L211.125 110.731L209.069 111.195L209.337 106.331C207.695 107.177 207.168 105.767 207.168 105.767C207.168 105.767 206.49 112.314 206.251 113.059L205.192 112.473L204.036 110.476H203.55L204.315 112.473Z" fill="#638960"/>
<path d="M212.963 125.792H8.49023V127.653H212.963V125.792Z" fill="#4E525A"/>
<g opacity="0.7">
<path d="M212.963 125.792H8.49023V127.653H212.963V125.792Z" fill="white"/>
</g>
<path d="M19.5179 125.792H19.0312V127.785H19.5179V125.792Z" fill="white"/>
<path d="M65.2542 125.792H64.7676V127.785H65.2542V125.792Z" fill="white"/>
<path d="M110.989 125.792H110.502V127.785H110.989V125.792Z" fill="white"/>
<path d="M156.725 125.792H156.238V127.785H156.725V125.792Z" fill="white"/>
<path d="M202.461 125.792H201.975V127.785H202.461V125.792Z" fill="white"/>
<path d="M212.963 128.383H8.49023V129.246H212.963V128.383Z" fill="#4E525A"/>
<path opacity="0.9" d="M212.963 128.383H8.49023V129.246H212.963V128.383Z" fill="white"/>
<path d="M44.1631 137.636H44.102C43.6649 138.018 42.9393 138.264 42.2684 138.374C41.4969 138.502 40.7386 138.497 39.9715 138.618C39.5103 138.685 39.0602 138.817 38.634 139.013C38.5349 139.094 38.4421 139.184 38.3564 139.28C38.2013 139.456 38.175 139.643 38.5203 139.748C39.5534 140.074 40.6592 140.044 41.6749 139.664C42.6907 139.284 43.5629 138.573 44.1631 137.636Z" fill="#263238"/>
<path d="M38.8653 139.581L37.7049 139.992C37.3923 140.04 37.3661 139.849 37.5825 139.764C37.9933 139.748 38.7867 139.454 38.8653 139.581Z" fill="#263238"/>
<g opacity="0.8">
<path d="M44.1631 137.636H44.102C43.6649 138.018 42.9393 138.264 42.2684 138.374C41.4969 138.502 40.7386 138.497 39.9715 138.618C39.5103 138.685 39.0602 138.817 38.634 139.013C38.5349 139.094 38.4421 139.184 38.3564 139.28C38.2013 139.456 38.175 139.643 38.5203 139.748C39.5534 140.074 40.6592 140.044 41.6749 139.664C42.6907 139.284 43.5629 138.573 44.1631 137.636Z" fill="white"/>
<path d="M38.8653 139.581L37.7049 139.992C37.3923 140.04 37.3661 139.849 37.5825 139.764C37.9933 139.748 38.7867 139.454 38.8653 139.581Z" fill="white"/>
</g>
<path d="M43.7349 136.71C43.7349 136.76 43.7087 136.815 43.689 136.876C43.6693 136.938 43.6693 136.94 43.6584 136.972C43.6366 137.041 43.6103 137.111 43.5819 137.189L43.5317 137.31C43.512 137.36 43.4923 137.408 43.4683 137.458C43.4442 137.509 43.4224 137.561 43.3962 137.614C43.3699 137.666 43.3459 137.719 43.3175 137.773C43.2891 137.828 43.265 137.874 43.2366 137.924C43.2082 137.974 43.1711 138.043 43.1339 138.102L43.0312 138.269C42.994 138.326 42.9569 138.381 42.9175 138.435C42.8782 138.49 42.8389 138.545 42.7974 138.6C42.7558 138.655 42.7121 138.712 42.6662 138.764C42.6203 138.817 42.5788 138.867 42.5329 138.917C42.487 138.967 42.4368 139.02 42.3865 139.068C42.3398 139.031 42.2883 139.001 42.2335 138.979C42.1113 138.913 41.9693 138.9 41.8381 138.943C41.7069 138.986 41.597 139.081 41.532 139.207C41.5068 139.281 41.5003 139.36 41.5129 139.437C41.5255 139.514 41.5569 139.587 41.6041 139.648C41.5086 139.699 41.41 139.744 41.3091 139.782L41.2238 139.812L41.1277 139.844C41.0813 139.86 41.0338 139.873 40.9856 139.883C40.9511 139.893 40.9161 139.9 40.8807 139.906C40.8289 139.919 40.7763 139.929 40.7234 139.935L40.5442 139.954C40.4815 139.954 40.4159 139.954 40.3475 139.954C40.0979 139.952 39.8493 139.921 39.6066 139.86C39.4714 139.826 39.3379 139.785 39.2067 139.737C38.9614 139.645 38.7232 139.533 38.4942 139.403C38.3959 139.349 38.2975 139.289 38.1948 139.223C38.1225 139.19 38.0579 139.141 38.0052 139.08C37.9524 139.018 37.9129 138.946 37.8891 138.867C37.8653 138.788 37.8578 138.705 37.8672 138.623C37.8766 138.542 37.9026 138.463 37.9435 138.392C38.0119 138.25 38.0931 138.116 38.1861 137.99C38.5912 137.741 39.0476 137.597 39.517 137.57C40.3038 137.509 41.0949 137.662 41.8795 137.591C42.5613 137.529 43.2847 137.248 43.6715 136.678L43.7349 136.71Z" fill="#9A9EA9"/>
<path d="M38.5269 139.027L37.3839 139.506C37.0648 139.531 37.0058 139.198 37.2178 139.1C37.644 139.145 38.4132 138.792 38.5269 139.027Z" fill="#9A9EA9"/>
<path opacity="0.2" d="M43.7349 136.71C43.7349 136.76 43.7087 136.815 43.689 136.876C43.6693 136.938 43.6693 136.94 43.6584 136.972C43.6366 137.041 43.6103 137.111 43.5819 137.189L43.5317 137.31C43.512 137.36 43.4923 137.408 43.4683 137.458C43.4442 137.509 43.4224 137.561 43.3962 137.614C43.3699 137.666 43.3459 137.719 43.3175 137.773C43.2891 137.828 43.265 137.874 43.2366 137.924C43.2082 137.974 43.1711 138.043 43.1339 138.102L43.0312 138.269C42.994 138.326 42.9569 138.381 42.9175 138.435C42.8782 138.49 42.8389 138.545 42.7974 138.6C42.7558 138.655 42.7121 138.712 42.6662 138.764C42.6203 138.817 42.5788 138.867 42.5329 138.917C42.487 138.967 42.4368 139.02 42.3865 139.068C42.3398 139.031 42.2883 139.001 42.2335 138.979C42.1113 138.913 41.9693 138.9 41.8381 138.943C41.7069 138.986 41.597 139.081 41.532 139.207C41.5068 139.281 41.5003 139.36 41.5129 139.437C41.5255 139.514 41.5569 139.587 41.6041 139.648C41.5086 139.699 41.41 139.744 41.3091 139.782L41.2238 139.812L41.1277 139.844C41.0813 139.86 41.0338 139.873 40.9856 139.883C40.9511 139.893 40.9161 139.9 40.8807 139.906C40.8289 139.919 40.7763 139.929 40.7234 139.935L40.5442 139.954C40.4815 139.954 40.4159 139.954 40.3475 139.954C40.0979 139.952 39.8493 139.921 39.6066 139.86C39.4712 139.827 39.3377 139.786 39.2067 139.737C38.9606 139.647 38.7223 139.535 38.4942 139.403C38.3959 139.349 38.2975 139.289 38.1948 139.223C38.1225 139.19 38.0579 139.141 38.0052 139.08C37.9524 139.018 37.9129 138.946 37.8891 138.867C37.8653 138.788 37.8578 138.705 37.8672 138.623C37.8766 138.542 37.9026 138.463 37.9435 138.392C38.0119 138.25 38.0931 138.116 38.1861 137.99C38.5912 137.741 39.0476 137.597 39.517 137.57C40.3038 137.509 41.0949 137.662 41.8795 137.591C42.5613 137.529 43.2847 137.248 43.6715 136.678L43.7349 136.71Z" fill="white"/>
<path d="M65.668 137.687L65.7029 137.671C66.0998 137.825 66.5273 137.873 66.9465 137.81C67.4404 137.757 67.9037 137.625 68.3954 137.566C68.6896 137.528 68.9875 137.532 69.2805 137.579C69.3561 137.612 69.4291 137.651 69.499 137.696C69.6214 137.778 69.6673 137.89 69.4728 138.011C68.8895 138.391 68.2044 138.565 67.519 138.506C66.8337 138.448 66.1846 138.161 65.668 137.687Z" fill="#263238"/>
<path d="M69.2236 137.974L70.0016 138.027C70.2005 138.004 70.1874 137.881 70.041 137.867C69.7853 137.926 69.2586 137.878 69.2236 137.974Z" fill="#263238"/>
<g opacity="0.8">
<path d="M65.668 137.687L65.7029 137.671C66.0998 137.825 66.5273 137.873 66.9465 137.81C67.4404 137.757 67.9037 137.625 68.3954 137.566C68.6896 137.528 68.9875 137.532 69.2805 137.579C69.3561 137.612 69.4291 137.651 69.499 137.696C69.6214 137.778 69.6673 137.89 69.4728 138.011C68.8895 138.391 68.2044 138.565 67.519 138.506C66.8337 138.448 66.1846 138.161 65.668 137.687Z" fill="white"/>
<path d="M69.2236 137.974L70.0016 138.027C70.2005 138.004 70.1874 137.881 70.041 137.867C69.7853 137.926 69.2586 137.878 69.2236 137.974Z" fill="white"/>
</g>
<path d="M65.8862 136.776L65.9234 136.755C66.085 136.909 66.2757 137.025 66.4832 137.096C66.6907 137.167 66.9103 137.192 67.1276 137.168C67.628 137.141 68.1154 136.972 68.6158 136.94C68.9141 136.914 69.2139 136.963 69.49 137.084C69.5581 137.154 69.6202 137.231 69.6758 137.312C69.7072 137.353 69.7299 137.401 69.7424 137.452C69.755 137.502 69.7571 137.555 69.7486 137.607C69.7402 137.659 69.7213 137.708 69.6933 137.752C69.6653 137.795 69.6288 137.832 69.5862 137.86C67.5144 139.643 66.1288 137.394 65.8862 136.776Z" fill="#9A9EA9"/>
<path d="M69.3633 137.76L70.1238 137.958C70.3271 137.945 70.3424 137.73 70.1937 137.687C69.9293 137.753 69.4157 137.602 69.3633 137.76Z" fill="#9A9EA9"/>
<path opacity="0.2" d="M65.8862 136.776L65.9234 136.755C66.085 136.909 66.2757 137.025 66.4832 137.096C66.6907 137.167 66.9103 137.192 67.1276 137.168C67.628 137.141 68.1154 136.972 68.6158 136.94C68.9141 136.914 69.2139 136.963 69.49 137.084C69.5581 137.154 69.6202 137.231 69.6758 137.312C69.7072 137.353 69.7299 137.401 69.7424 137.452C69.755 137.502 69.7571 137.555 69.7486 137.607C69.7402 137.659 69.7213 137.708 69.6933 137.752C69.6653 137.795 69.6288 137.832 69.5862 137.86C67.5144 139.643 66.1288 137.394 65.8862 136.776Z" fill="white"/>
<path d="M52.754 137.184L52.719 137.168C52.3202 137.309 51.8938 137.341 51.4799 137.262C50.9903 137.191 50.5358 137.034 50.0462 136.967C49.7569 136.921 49.4629 136.915 49.172 136.949C49.0969 136.98 49.0239 137.015 48.9535 137.056C48.8289 137.134 48.7787 137.241 48.9688 137.372C49.5356 137.768 50.2094 137.964 50.891 137.931C51.5725 137.897 52.2256 137.635 52.754 137.184Z" fill="#263238"/>
<path d="M49.2071 137.342L48.4313 137.367C48.2346 137.335 48.252 137.214 48.3985 137.207C48.6498 137.273 49.1765 137.248 49.2071 137.342Z" fill="#263238"/>
<g opacity="0.8">
<path d="M52.754 137.184L52.719 137.168C52.3202 137.309 51.8938 137.341 51.4799 137.262C50.9903 137.191 50.5358 137.034 50.0462 136.967C49.7569 136.921 49.4629 136.915 49.172 136.949C49.0969 136.98 49.0239 137.015 48.9535 137.056C48.8289 137.134 48.7787 137.241 48.9688 137.372C49.5356 137.768 50.2094 137.964 50.891 137.931C51.5725 137.897 52.2256 137.635 52.754 137.184Z" fill="white"/>
<path d="M49.2071 137.342L48.4313 137.367C48.2346 137.335 48.252 137.214 48.3985 137.207C48.6498 137.273 49.1765 137.248 49.2071 137.342Z" fill="white"/>
</g>
<path d="M52.6579 136.543C52.6475 136.532 52.6357 136.523 52.6229 136.515C52.4413 136.639 52.2366 136.722 52.0224 136.758C51.8081 136.793 51.589 136.782 51.3794 136.723C50.8921 136.616 50.4397 136.369 49.9545 136.267C49.6672 136.195 49.3677 136.195 49.0803 136.267C49.0024 136.326 48.9293 136.391 48.8618 136.463C48.8245 136.498 48.7946 136.54 48.7742 136.588C48.7537 136.635 48.7432 136.687 48.7432 136.739C48.7432 136.791 48.7537 136.843 48.7742 136.891C48.7946 136.938 48.8245 136.981 48.8618 137.015C50.632 139.1 52.3366 137.111 52.6579 136.543Z" fill="#9A9EA9"/>
<path d="M49.1004 136.94L48.3245 137.011C48.1278 136.965 48.1497 136.751 48.2961 136.735C48.5453 136.842 49.0719 136.776 49.1004 136.94Z" fill="#9A9EA9"/>
<path opacity="0.2" d="M52.6579 136.543C52.6475 136.532 52.6357 136.523 52.6229 136.515C52.4413 136.639 52.2366 136.722 52.0224 136.758C51.8081 136.793 51.589 136.782 51.3794 136.723C50.8921 136.616 50.4397 136.369 49.9545 136.267C49.6672 136.195 49.3677 136.195 49.0803 136.267C49.0024 136.326 48.9293 136.391 48.8618 136.463C48.8245 136.498 48.7946 136.54 48.7742 136.588C48.7537 136.635 48.7432 136.687 48.7432 136.739C48.7432 136.791 48.7537 136.843 48.7742 136.891C48.7946 136.938 48.8245 136.981 48.8618 137.015C50.632 139.1 52.3366 137.111 52.6579 136.543Z" fill="white"/>
<path d="M77.4912 139.365H77.5196C77.813 139.208 78.1388 139.13 78.4681 139.136C78.8549 139.136 79.2265 139.184 79.6133 139.18C79.8438 139.18 80.0732 139.147 80.2951 139.082C80.349 139.049 80.4002 139.011 80.4481 138.97C80.5355 138.894 80.5618 138.805 80.4 138.728C79.9139 138.494 79.3687 138.43 78.845 138.545C78.3212 138.659 77.8466 138.947 77.4912 139.365Z" fill="#263238"/>
<path d="M80.2188 138.787L80.8154 138.668C80.9727 138.668 80.9727 138.762 80.8613 138.787C80.658 138.766 80.2537 138.855 80.2188 138.787Z" fill="#263238"/>
<g opacity="0.8">
<path d="M77.4912 139.365H77.5196C77.813 139.208 78.1388 139.13 78.4681 139.136C78.8549 139.136 79.2265 139.184 79.6133 139.18C79.8438 139.18 80.0732 139.147 80.2951 139.082C80.349 139.049 80.4002 139.011 80.4481 138.97C80.5355 138.894 80.5618 138.805 80.4 138.728C79.9139 138.494 79.3687 138.43 78.845 138.545C78.3212 138.659 77.8466 138.947 77.4912 139.365Z" fill="white"/>
<path d="M80.2188 138.787L80.8154 138.668C80.9727 138.668 80.9727 138.762 80.8613 138.787C80.658 138.766 80.2537 138.855 80.2188 138.787Z" fill="white"/>
</g>
<path d="M77.48 139.291L77.5106 139.307C77.6361 139.188 77.7847 139.097 77.9463 139.041C78.1079 138.986 78.279 138.967 78.4481 138.986C78.8393 139.008 79.2174 139.139 79.6064 139.166C79.839 139.186 80.0727 139.147 80.2883 139.054C80.3416 138.998 80.3906 138.938 80.4347 138.874C80.4591 138.842 80.4768 138.805 80.4866 138.765C80.4964 138.726 80.498 138.684 80.4914 138.644C80.4848 138.604 80.4701 138.565 80.4483 138.531C80.4264 138.497 80.398 138.468 80.3648 138.447C78.7475 137.056 77.6657 138.808 77.48 139.291Z" fill="#9A9EA9"/>
<path d="M80.188 138.525L80.7802 138.372C80.9376 138.372 80.9463 138.55 80.8349 138.582C80.6294 138.529 80.2273 138.643 80.188 138.525Z" fill="#9A9EA9"/>
<path opacity="0.2" d="M77.48 139.291L77.5106 139.307C77.6361 139.188 77.7847 139.097 77.9463 139.041C78.1079 138.986 78.279 138.967 78.4481 138.986C78.8393 139.008 79.2174 139.139 79.6064 139.166C79.839 139.186 80.0727 139.147 80.2883 139.054C80.3416 138.998 80.3906 138.938 80.4347 138.874C80.4591 138.842 80.4768 138.805 80.4866 138.765C80.4964 138.726 80.498 138.684 80.4914 138.644C80.4848 138.604 80.4701 138.565 80.4483 138.531C80.4264 138.497 80.398 138.468 80.3648 138.447C78.7475 137.056 77.6657 138.808 77.48 139.291Z" fill="white"/>
<path d="M32.4599 138.367H32.4184C32.0709 138.086 31.6613 137.901 31.2273 137.828C30.7225 137.721 30.2242 137.705 29.7172 137.6C29.4141 137.543 29.1199 137.444 28.843 137.303C28.7797 137.246 28.7205 137.184 28.666 137.118C28.5698 136.997 28.5567 136.874 28.7862 136.815C29.4769 136.627 30.207 136.677 30.8685 136.957C31.5301 137.236 32.088 137.731 32.4599 138.367Z" fill="#263238"/>
<path d="M29.0113 136.935L28.2573 136.634C28.0519 136.593 28.0388 136.719 28.1721 136.778C28.4409 136.803 28.9523 137.018 29.0113 136.935Z" fill="#263238"/>
<g opacity="0.8">
<path d="M32.4599 138.367H32.4184C32.0709 138.086 31.6613 137.901 31.2273 137.828C30.7225 137.721 30.2242 137.705 29.7172 137.6C29.4141 137.543 29.1199 137.444 28.843 137.303C28.7797 137.246 28.7205 137.184 28.666 137.118C28.5698 136.997 28.5567 136.874 28.7862 136.815C29.4769 136.627 30.207 136.677 30.8685 136.957C31.5301 137.236 32.088 137.731 32.4599 138.367Z" fill="white"/>
<path d="M29.0113 136.935L28.2573 136.634C28.0519 136.593 28.0388 136.719 28.1721 136.778C28.4409 136.803 28.9523 137.018 29.0113 136.935Z" fill="white"/>
</g>
<path d="M32.4908 138.276L32.4471 138.287C32.3086 138.1 32.1339 137.945 31.9343 137.833C31.7347 137.721 31.5148 137.654 31.2888 137.636C30.773 137.568 30.2463 137.636 29.7284 137.584C29.417 137.553 29.1173 137.445 28.8542 137.269C28.7962 137.184 28.7464 137.093 28.7056 136.997C28.6805 136.949 28.6654 136.897 28.6613 136.843C28.6572 136.788 28.6641 136.734 28.6817 136.683C28.6993 136.632 28.7271 136.585 28.7632 136.546C28.7993 136.507 28.843 136.476 28.8913 136.456C31.3347 135.031 32.3575 137.595 32.4908 138.276Z" fill="#9A9EA9"/>
<path d="M29.1143 136.6L28.3713 136.253C28.1527 136.228 28.1134 136.445 28.2511 136.515C28.533 136.499 29.0313 136.753 29.1143 136.6Z" fill="#9A9EA9"/>
<path opacity="0.2" d="M32.4908 138.276L32.4471 138.287C32.3086 138.1 32.1339 137.945 31.9343 137.833C31.7347 137.721 31.5148 137.654 31.2888 137.636C30.773 137.568 30.2463 137.636 29.7284 137.584C29.417 137.553 29.1173 137.445 28.8542 137.269C28.7962 137.184 28.7464 137.093 28.7056 136.997C28.6805 136.949 28.6654 136.897 28.6613 136.843C28.6572 136.788 28.6641 136.734 28.6817 136.683C28.6993 136.632 28.7271 136.585 28.7632 136.546C28.7993 136.507 28.843 136.476 28.8913 136.456C31.3347 135.031 32.3575 137.595 32.4908 138.276Z" fill="white"/>
</svg>
