<svg width="31" height="23" viewBox="0 0 31 23" fill="none" xmlns="http://www.w3.org/2000/svg">
<path d="M30.2383 7.0625H26.7813L25.7852 4.66016C24.7891 2.14062 22.3867 0.5 19.6914 0.5H12.25C9.5547 0.5 7.15235 2.14062 6.15626 4.66016L5.16016 7.0625H1.70313C1.23438 7.0625 0.88282 7.53125 1.00001 7.94141L1.35157 9.34766C1.41016 9.69922 1.70313 9.875 2.0547 9.875H3.22657C2.40626 10.5781 1.93751 11.5742 1.93751 12.6875V15.5C1.93751 16.4961 2.28907 17.3164 2.87501 17.9609V21.125C2.87501 22.1797 3.69532 23 4.75001 23H6.62501C7.6211 23 8.50001 22.1797 8.50001 21.125V19.25H23.5V21.125C23.5 22.1797 24.3203 23 25.375 23H27.25C28.2461 23 29.125 22.1797 29.125 21.125V17.9609C29.6524 17.3164 30.0625 16.4961 30.0625 15.5V12.6875C30.0625 11.5742 29.5352 10.5781 28.7149 9.875H29.9453C30.2383 9.875 30.5313 9.69922 30.5899 9.34766L30.9414 7.94141C31.0586 7.53125 30.707 7.0625 30.2383 7.0625ZM9.61329 6.06641C10.082 4.95312 11.0781 4.25 12.25 4.25H19.6914C20.8633 4.25 21.8594 4.95312 22.3281 6.06641L23.5 8.9375H8.50001L9.61329 6.06641ZM6.62501 15.5C5.45313 15.5 4.75001 14.7969 4.75001 13.625C4.75001 12.5117 5.45313 11.75 6.62501 11.75C7.73829 11.75 9.43751 13.4492 9.43751 14.5625C9.43751 15.6758 7.73829 15.5 6.62501 15.5ZM25.375 15.5C24.2031 15.5 22.5625 15.6758 22.5625 14.5625C22.5625 13.4492 24.2031 11.75 25.375 11.75C26.4883 11.75 27.25 12.5117 27.25 13.625C27.25 14.7969 26.4883 15.5 25.375 15.5Z" fill="#61A9FE"/>
</svg>
