<svg width="25" height="39" viewBox="0 0 25 39" fill="none" xmlns="http://www.w3.org/2000/svg">
<g filter="url(#filter0_d_56_124)">
<path d="M12.25 16.625C11.0897 16.625 9.97688 16.1641 9.15641 15.3436C8.33594 14.5231 7.875 13.4103 7.875 12.25C7.875 11.0897 8.33594 9.97688 9.15641 9.15641C9.97688 8.33594 11.0897 7.875 12.25 7.875C13.4103 7.875 14.5231 8.33594 15.3436 9.15641C16.1641 9.97688 16.625 11.0897 16.625 12.25C16.625 12.8245 16.5118 13.3934 16.292 13.9242C16.0721 14.455 15.7498 14.9373 15.3436 15.3436C14.9373 15.7498 14.455 16.0721 13.9242 16.292C13.3934 16.5118 12.8245 16.625 12.25 16.625ZM12.25 0C9.0011 0 5.88526 1.29062 3.58794 3.58794C1.29062 5.88526 0 9.0011 0 12.25C0 21.4375 12.25 35 12.25 35C12.25 35 24.5 21.4375 24.5 12.25C24.5 9.0011 23.2094 5.88526 20.9121 3.58794C18.6147 1.29062 15.4989 0 12.25 0Z" fill="#EF0101"/>
</g>
<circle cx="12.5" cy="12.5" r="9.5" fill="#D9D9D9"/>
<path d="M7.33341 18.3333V17H8.40008L9.71675 12.6167C9.80564 12.3278 9.96942 12.0971 10.2081 11.9247C10.4472 11.7527 10.7112 11.6667 11.0001 11.6667H13.0001C13.289 11.6667 13.553 11.7527 13.7921 11.9247C14.0307 12.0971 14.1945 12.3278 14.2834 12.6167L15.6001 17H16.6667V18.3333H7.33341ZM9.80008 17H14.2001L13.0001 13H11.0001L9.80008 17ZM11.3334 10.3333V7H12.6667V10.3333H11.3334ZM15.3001 11.9833L14.3501 11.0333L16.7167 8.68333L17.6501 9.61667L15.3001 11.9833ZM16.0001 15V13.6667H19.3334V15H16.0001ZM8.70008 11.9833L6.35008 9.61667L7.28341 8.68333L9.65008 11.0333L8.70008 11.9833ZM4.66675 15V13.6667H8.00008V15H4.66675Z" fill="black"/>
<defs>
<filter id="filter0_d_56_124" x="0" y="0" width="24.5" height="39" filterUnits="userSpaceOnUse" color-interpolation-filters="sRGB">
<feFlood flood-opacity="0" result="BackgroundImageFix"/>
<feColorMatrix in="SourceAlpha" type="matrix" values="0 0 0 0 0 0 0 0 0 0 0 0 0 0 0 0 0 0 127 0" result="hardAlpha"/>
<feOffset dy="4"/>
<feComposite in2="hardAlpha" operator="out"/>
<feColorMatrix type="matrix" values="0 0 0 0 0 0 0 0 0 0 0 0 0 0 0 0 0 0 0.36 0"/>
<feBlend mode="normal" in2="BackgroundImageFix" result="effect1_dropShadow_56_124"/>
<feBlend mode="normal" in="SourceGraphic" in2="effect1_dropShadow_56_124" result="shape"/>
</filter>
</defs>
</svg>
