<svg width="16" height="15" viewBox="0 0 16 15" fill="none" xmlns="http://www.w3.org/2000/svg">
<path d="M15.6 10.5085H15.2V7.5595C15.2 7.23184 15.05 6.87687 14.825 6.63112L12.35 3.92791C12.125 3.68216 11.8 3.51833 11.5 3.51833H10.4V2.20768C10.4 1.49775 9.85 0.897034 9.2 0.897034H1.2C0.525 0.897034 0 1.49775 0 2.20768V10.9453C0 11.6826 0.525 12.256 1.2 12.256H1.6C1.6 13.7032 2.675 14.8773 4 14.8773C5.325 14.8773 6.4 13.7032 6.4 12.256H9.6C9.6 13.7032 10.675 14.8773 12 14.8773C13.325 14.8773 14.4 13.7032 14.4 12.256H15.6C15.8 12.256 16 12.0649 16 11.8191V10.9453C16 10.7269 15.8 10.5085 15.6 10.5085ZM4 13.5666C3.325 13.5666 2.8 12.9932 2.8 12.256C2.8 11.5461 3.325 10.9453 4 10.9453C4.65 10.9453 5.2 11.5461 5.2 12.256C5.2 12.9932 4.65 13.5666 4 13.5666ZM7.6 6.79495C7.6 6.93148 7.5 7.01339 7.4 7.01339H6V8.54249C6 8.67901 5.9 8.76093 5.8 8.76093H4.6C4.475 8.76093 4.4 8.67901 4.4 8.54249V7.01339H3C2.875 7.01339 2.8 6.93148 2.8 6.79495V5.4843C2.8 5.37508 2.875 5.26586 3 5.26586H4.4V3.73677C4.4 3.62755 4.475 3.51833 4.6 3.51833H5.8C5.9 3.51833 6 3.62755 6 3.73677V5.26586H7.4C7.5 5.26586 7.6 5.37508 7.6 5.4843V6.79495ZM12 13.5666C11.325 13.5666 10.8 12.9932 10.8 12.256C10.8 11.5461 11.325 10.9453 12 10.9453C12.65 10.9453 13.2 11.5461 13.2 12.256C13.2 12.9932 12.65 13.5666 12 13.5666ZM14 7.88716H10.4V4.82898H11.5L14 7.5595V7.88716Z" fill="white"/>
</svg>
