<svg width="16" height="13" viewBox="0 0 16 13" fill="none" xmlns="http://www.w3.org/2000/svg">
<path d="M15.6 8.8H15.2V6.1C15.2 5.8 15.05 5.475 14.825 5.25L12.35 2.775C12.125 2.55 11.8 2.4 11.5 2.4H10.4V1.2C10.4 0.55 9.85 0 9.2 0H1.2C0.525 0 0 0.55 0 1.2V9.2C0 9.875 0.525 10.4 1.2 10.4H1.6C1.6 11.725 2.675 12.8 4 12.8C5.325 12.8 6.4 11.725 6.4 10.4H9.6C9.6 11.725 10.675 12.8 12 12.8C13.325 12.8 14.4 11.725 14.4 10.4H15.6C15.8 10.4 16 10.225 16 10V9.2C16 9 15.8 8.8 15.6 8.8ZM4 11.6C3.325 11.6 2.8 11.075 2.8 10.4C2.8 9.75 3.325 9.2 4 9.2C4.65 9.2 5.2 9.75 5.2 10.4C5.2 11.075 4.65 11.6 4 11.6ZM7.6 5.4C7.6 5.525 7.5 5.6 7.4 5.6H6V7C6 7.125 5.9 7.2 5.8 7.2H4.6C4.475 7.2 4.4 7.125 4.4 7V5.6H3C2.875 5.6 2.8 5.525 2.8 5.4V4.2C2.8 4.1 2.875 4 3 4H4.4V2.6C4.4 2.5 4.475 2.4 4.6 2.4H5.8C5.9 2.4 6 2.5 6 2.6V4H7.4C7.5 4 7.6 4.1 7.6 4.2V5.4ZM12 11.6C11.325 11.6 10.8 11.075 10.8 10.4C10.8 9.75 11.325 9.2 12 9.2C12.65 9.2 13.2 9.75 13.2 10.4C13.2 11.075 12.65 11.6 12 11.6ZM14 6.4H10.4V3.6H11.5L14 6.1V6.4Z" fill="black"/>
</svg>
