<svg width="10" height="17" viewBox="0 0 10 17" fill="none" xmlns="http://www.w3.org/2000/svg">
<path d="M6.51777 3.83483C7.32957 3.83483 8.01647 3.18047 8.01647 2.33914C8.01647 1.52897 7.32957 0.843445 6.51777 0.843445C5.67476 0.843445 5.01908 1.52897 5.01908 2.33914C5.01908 3.18047 5.67476 3.83483 6.51777 3.83483ZM9.45272 8.50887L8.7346 8.13495L8.42237 7.20014C7.95402 5.82909 6.67389 4.86312 5.23764 4.83196C4.11361 4.83196 3.48916 5.17472 2.33391 5.64213C1.64701 5.89141 1.08499 6.42113 0.772766 7.0755L0.554206 7.48058C0.304423 7.97915 0.522983 8.57119 0.991326 8.82048C1.49089 9.06976 2.08413 8.8828 2.33391 8.38423L2.55247 7.94799C2.64614 7.72987 2.83348 7.57407 3.05204 7.48058L3.89505 7.13782L3.42671 9.0386C3.23937 9.69296 3.42671 10.3785 3.89505 10.8771L5.7372 12.9025C5.98698 13.1518 6.1431 13.4634 6.20554 13.775L6.79878 16.0497C6.92367 16.5794 7.45446 16.9221 7.98525 16.7663C8.54726 16.6417 8.85949 16.112 8.7346 15.5823L8.04769 12.809C7.95402 12.4662 7.79791 12.1858 7.57935 11.9365L6.1431 10.3785L6.67389 8.25959L6.86122 8.75816C7.01734 9.25672 7.39201 9.6618 7.86036 9.91109L8.57848 10.285C9.04683 10.5343 9.64006 10.3162 9.88984 9.84877C10.1396 9.3502 9.95229 8.727 9.45272 8.50887ZM2.30269 12.8713C2.20902 13.1206 2.0529 13.3699 1.86557 13.5568L0.304423 15.1149C-0.101474 15.4888 -0.101474 16.1431 0.304423 16.5171C0.679097 16.9221 1.33478 16.9221 1.70945 16.5171L3.58282 14.6786C3.77016 14.4916 3.89505 14.2424 4.01994 13.9931L4.42584 12.9336C2.70858 11.064 3.23937 11.6561 2.95837 11.2821L2.30269 12.8713Z" fill="#BDBDBD"/>
</svg>
