<svg width="28" height="36" viewBox="0 0 28 36" fill="none" xmlns="http://www.w3.org/2000/svg">
<path d="M28 13.8158C28 21.446 14 36 14 36C14 36 0 21.446 0 13.8158C0 6.18554 6.26801 0 14 0C21.732 0 28 6.18554 28 13.8158Z" fill="#1A140A"/>
<path d="M14.8125 11.375C15.5234 11.375 16.125 10.8008 16.125 10.0625C16.125 9.35156 15.5234 8.75 14.8125 8.75C14.0742 8.75 13.5 9.35156 13.5 10.0625C13.5 10.8008 14.0742 11.375 14.8125 11.375ZM17.3828 15.4766L16.7539 15.1484L16.4805 14.3281C16.0703 13.125 14.9492 12.2773 13.6914 12.25C12.707 12.25 12.1602 12.5508 11.1484 12.9609C10.5469 13.1797 10.0547 13.6445 9.78125 14.2188L9.58984 14.5742C9.37109 15.0117 9.5625 15.5312 9.97266 15.75C10.4102 15.9688 10.9297 15.8047 11.1484 15.3672L11.3398 14.9844C11.4219 14.793 11.5859 14.6562 11.7773 14.5742L12.5156 14.2734L12.1055 15.9414C11.9414 16.5156 12.1055 17.1172 12.5156 17.5547L14.1289 19.332C14.3477 19.5508 14.4844 19.8242 14.5391 20.0977L15.0586 22.0938C15.168 22.5586 15.6328 22.8594 16.0977 22.7227C16.5898 22.6133 16.8633 22.1484 16.7539 21.6836L16.1523 19.25C16.0703 18.9492 15.9336 18.7031 15.7422 18.4844L14.4844 17.1172L14.9492 15.2578L15.1133 15.6953C15.25 16.1328 15.5781 16.4883 15.9883 16.707L16.6172 17.0352C17.0273 17.2539 17.5469 17.0625 17.7656 16.6523C17.9844 16.2148 17.8203 15.668 17.3828 15.4766ZM11.1211 19.3047C11.0391 19.5234 10.9023 19.7422 10.7383 19.9062L9.37109 21.2734C9.01562 21.6016 9.01562 22.1758 9.37109 22.5039C9.69922 22.8594 10.2734 22.8594 10.6016 22.5039L12.2422 20.8906C12.4062 20.7266 12.5156 20.5078 12.625 20.2891L12.9805 19.3594C11.4766 17.7188 11.9414 18.2383 11.6953 17.9102L11.1211 19.3047Z" fill="#FFC566"/>
</svg>
