<svg width="13" height="11" viewBox="0 0 13 11" fill="none" xmlns="http://www.w3.org/2000/svg">
<path d="M12.625 1.15625C12.625 0.800781 12.3242 0.5 11.9688 0.5H11.3125C10.9297 0.5 10.6562 0.800781 10.6562 1.15625V10.3438C10.6562 10.7266 10.9297 11 11.3125 11H11.9688C12.3242 11 12.625 10.7266 12.625 10.3438V1.15625ZM9.34375 4H5.625V1.62109C5.625 1.12891 5.02344 0.882812 4.66797 1.23828L0.511719 5.39453C0.320312 5.58594 0.320312 5.94141 0.511719 6.13281L4.66797 10.2891C5.02344 10.6445 5.625 10.3984 5.625 9.90625V7.5H9.34375C9.69922 7.5 10 7.22656 10 6.84375V4.65625C10 4.30078 9.69922 4 9.34375 4Z" fill="black"/>
</svg>
