<svg width="10" height="11" viewBox="0 0 10 11" fill="none" xmlns="http://www.w3.org/2000/svg">
<path d="M9.86328 9.63732L7.91016 7.68695C7.8125 7.60893 7.69531 7.55042 7.57812 7.55042H7.26562C7.79297 6.86779 8.125 6.00963 8.125 5.05395C8.125 2.83053 6.28906 0.997177 4.0625 0.997177C1.81641 0.997177 0 2.83053 0 5.05395C0 7.29687 1.81641 9.11072 4.0625 9.11072C5 9.11072 5.85938 8.79866 6.5625 8.25255V8.58412C6.5625 8.70114 6.60156 8.81816 6.69922 8.91568L8.63281 10.8465C8.82812 11.0416 9.12109 11.0416 9.29688 10.8465L9.84375 10.3004C10.0391 10.1249 10.0391 9.83235 9.86328 9.63732ZM4.0625 7.55042C2.67578 7.55042 1.5625 6.43871 1.5625 5.05395C1.5625 3.68869 2.67578 2.55747 4.0625 2.55747C5.42969 2.55747 6.5625 3.68869 6.5625 5.05395C6.5625 6.43871 5.42969 7.55042 4.0625 7.55042Z" fill="black"/>
</svg>
