<svg width="25" height="39" viewBox="0 0 25 39" fill="none" xmlns="http://www.w3.org/2000/svg">
<g filter="url(#filter0_d_84_143)">
<path d="M12.25 16.625C11.0897 16.625 9.97688 16.1641 9.15641 15.3436C8.33594 14.5231 7.875 13.4103 7.875 12.25C7.875 11.0897 8.33594 9.97688 9.15641 9.15641C9.97688 8.33594 11.0897 7.875 12.25 7.875C13.4103 7.875 14.5231 8.33594 15.3436 9.15641C16.1641 9.97688 16.625 11.0897 16.625 12.25C16.625 12.8245 16.5118 13.3934 16.292 13.9242C16.0721 14.455 15.7498 14.9373 15.3436 15.3436C14.9373 15.7498 14.455 16.0721 13.9242 16.292C13.3934 16.5118 12.8245 16.625 12.25 16.625ZM12.25 0C9.0011 0 5.88526 1.29062 3.58794 3.58794C1.29062 5.88526 0 9.0011 0 12.25C0 21.4375 12.25 35 12.25 35C12.25 35 24.5 21.4375 24.5 12.25C24.5 9.0011 23.2094 5.88526 20.9121 3.58794C18.6147 1.29062 15.4989 0 12.25 0Z" fill="#0081F9"/>
</g>
<circle cx="12.5" cy="12.5" r="9.5" fill="#D9D9D9"/>
<path d="M17.2514 10.5007L16.5104 8.27771C16.4029 7.95405 16.1962 7.6725 15.9195 7.47306C15.6429 7.27363 15.3104 7.16645 14.9694 7.16675H10.0305C9.68942 7.16645 9.35696 7.27363 9.08031 7.47306C8.80367 7.6725 8.59691 7.95405 8.48942 8.27771L7.74842 10.5007C7.55137 10.5832 7.3831 10.722 7.26475 10.8998C7.1464 11.0776 7.08325 11.2865 7.08325 11.5001V14.2084C7.08325 14.6082 7.30209 14.9537 7.62492 15.1417V16.3751C7.62492 16.5187 7.68199 16.6565 7.78357 16.7581C7.88515 16.8597 8.02293 16.9167 8.16659 16.9167H8.70825C8.85191 16.9167 8.98969 16.8597 9.09127 16.7581C9.19285 16.6565 9.24992 16.5187 9.24992 16.3751V15.2917H15.7499V16.3751C15.7499 16.5187 15.807 16.6565 15.9086 16.7581C16.0101 16.8597 16.1479 16.9167 16.2916 16.9167H16.8333C16.9769 16.9167 17.1147 16.8597 17.2163 16.7581C17.3179 16.6565 17.3749 16.5187 17.3749 16.3751V15.1417C17.5393 15.0475 17.6759 14.9116 17.7709 14.7477C17.866 14.5839 17.9163 14.3979 17.9166 14.2084V11.5001C17.9166 11.2865 17.8534 11.0776 17.7351 10.8998C17.6167 10.722 17.4485 10.5832 17.2514 10.5007ZM10.0305 8.25008H14.9688C15.2023 8.25008 15.4092 8.3985 15.4829 8.62058L16.082 10.4167H8.91788L9.51642 8.62058C9.55236 8.51268 9.62135 8.41883 9.71361 8.35233C9.80587 8.28583 9.91673 8.25005 10.0305 8.25008ZM8.97909 13.6667C8.87235 13.6667 8.76667 13.6457 8.66807 13.6048C8.56948 13.5639 8.4799 13.504 8.40445 13.4285C8.329 13.353 8.26916 13.2634 8.22835 13.1648C8.18754 13.0661 8.16655 12.9604 8.16659 12.8537C8.16662 12.747 8.18768 12.6413 8.22856 12.5427C8.26944 12.4441 8.32933 12.3545 8.40483 12.2791C8.48033 12.2036 8.56995 12.1438 8.66857 12.103C8.7672 12.0622 8.87289 12.0412 8.97963 12.0412C9.19519 12.0413 9.40189 12.127 9.55426 12.2795C9.70664 12.4319 9.7922 12.6387 9.79213 12.8542C9.79205 13.0698 9.70636 13.2765 9.55388 13.4289C9.40141 13.5813 9.19465 13.6668 8.97909 13.6667ZM16.0208 13.6667C15.914 13.6667 15.8083 13.6457 15.7097 13.6048C15.6111 13.5639 15.5216 13.504 15.4461 13.4285C15.3707 13.353 15.3108 13.2634 15.27 13.1648C15.2292 13.0661 15.2082 12.9604 15.2083 12.8537C15.2083 12.747 15.2293 12.6413 15.2702 12.5427C15.3111 12.4441 15.371 12.3545 15.4465 12.2791C15.522 12.2036 15.6116 12.1438 15.7102 12.103C15.8089 12.0622 15.9146 12.0412 16.0213 12.0412C16.2369 12.0413 16.4436 12.127 16.5959 12.2795C16.7483 12.4319 16.8339 12.6387 16.8338 12.8542C16.8337 13.0698 16.748 13.2765 16.5955 13.4289C16.4431 13.5813 16.2363 13.6668 16.0208 13.6667Z" fill="black"/>
<defs>
<filter id="filter0_d_84_143" x="0" y="0" width="24.5" height="39" filterUnits="userSpaceOnUse" color-interpolation-filters="sRGB">
<feFlood flood-opacity="0" result="BackgroundImageFix"/>
<feColorMatrix in="SourceAlpha" type="matrix" values="0 0 0 0 0 0 0 0 0 0 0 0 0 0 0 0 0 0 127 0" result="hardAlpha"/>
<feOffset dy="4"/>
<feComposite in2="hardAlpha" operator="out"/>
<feColorMatrix type="matrix" values="0 0 0 0 0 0 0 0 0 0 0 0 0 0 0 0 0 0 0.36 0"/>
<feBlend mode="normal" in2="BackgroundImageFix" result="effect1_dropShadow_84_143"/>
<feBlend mode="normal" in="SourceGraphic" in2="effect1_dropShadow_84_143" result="shape"/>
</filter>
</defs>
</svg>
