<svg width="13" height="9" viewBox="0 0 13 9" fill="none" xmlns="http://www.w3.org/2000/svg">
<path d="M12.6954 2.625H11.3126L10.9141 1.66406C10.5157 0.65625 9.55474 0 8.47661 0H5.50005C4.42193 0 3.46099 0.65625 3.06255 1.66406L2.66411 2.625H1.2813C1.0938 2.625 0.953177 2.8125 1.00005 2.97656L1.14068 3.53906C1.16411 3.67969 1.2813 3.75 1.42193 3.75H1.89068C1.56255 4.03125 1.37505 4.42969 1.37505 4.875V6C1.37505 6.39844 1.51568 6.72656 1.75005 6.98438V8.25C1.75005 8.67188 2.07818 9 2.50005 9H3.25005C3.64849 9 4.00005 8.67188 4.00005 8.25V7.5H10.0001V8.25C10.0001 8.67188 10.3282 9 10.7501 9H11.5001C11.8985 9 12.2501 8.67188 12.2501 8.25V6.98438C12.461 6.72656 12.6251 6.39844 12.6251 6V4.875C12.6251 4.42969 12.4141 4.03125 12.086 3.75H12.5782C12.6954 3.75 12.8126 3.67969 12.836 3.53906L12.9766 2.97656C13.0235 2.8125 12.8829 2.625 12.6954 2.625ZM4.44536 2.22656C4.63286 1.78125 5.0313 1.5 5.50005 1.5H8.47661C8.94536 1.5 9.3438 1.78125 9.5313 2.22656L10.0001 3.375H4.00005L4.44536 2.22656ZM3.25005 6C2.7813 6 2.50005 5.71875 2.50005 5.25C2.50005 4.80469 2.7813 4.5 3.25005 4.5C3.69536 4.5 4.37505 5.17969 4.37505 5.625C4.37505 6.07031 3.69536 6 3.25005 6ZM10.7501 6C10.2813 6 9.62505 6.07031 9.62505 5.625C9.62505 5.17969 10.2813 4.5 10.7501 4.5C11.1954 4.5 11.5001 4.80469 11.5001 5.25C11.5001 5.71875 11.1954 6 10.7501 6Z" fill="#558FFF"/>
</svg>
