<svg width="28" height="36" viewBox="0 0 28 36" fill="none" xmlns="http://www.w3.org/2000/svg">
<path d="M28 13.8158C28 21.446 14 36 14 36C14 36 0 21.446 0 13.8158C0 6.18554 6.26801 0 14 0C21.732 0 28 6.18554 28 13.8158Z" fill="black"/>
<path d="M20.6445 12.5625H19.0313L18.5664 11.4414C18.1016 10.2656 16.9805 9.5 15.7227 9.5H12.25C10.9922 9.5 9.8711 10.2656 9.40626 11.4414L8.94142 12.5625H7.32813C7.10938 12.5625 6.94532 12.7812 7.00001 12.9727L7.16407 13.6289C7.19142 13.793 7.32813 13.875 7.4922 13.875H8.03907C7.65626 14.2031 7.43751 14.668 7.43751 15.1875V16.5C7.43751 16.9648 7.60157 17.3477 7.87501 17.6484V19.125C7.87501 19.6172 8.25782 20 8.75001 20H9.62501C10.0899 20 10.5 19.6172 10.5 19.125V18.25H17.5V19.125C17.5 19.6172 17.8828 20 18.375 20H19.25C19.7149 20 20.125 19.6172 20.125 19.125V17.6484C20.3711 17.3477 20.5625 16.9648 20.5625 16.5V15.1875C20.5625 14.668 20.3164 14.2031 19.9336 13.875H20.5078C20.6445 13.875 20.7813 13.793 20.8086 13.6289L20.9727 12.9727C21.0274 12.7812 20.8633 12.5625 20.6445 12.5625ZM11.0195 12.0977C11.2383 11.5781 11.7031 11.25 12.25 11.25H15.7227C16.2695 11.25 16.7344 11.5781 16.9531 12.0977L17.5 13.4375H10.5L11.0195 12.0977ZM9.62501 16.5C9.07813 16.5 8.75001 16.1719 8.75001 15.625C8.75001 15.1055 9.07813 14.75 9.62501 14.75C10.1445 14.75 10.9375 15.543 10.9375 16.0625C10.9375 16.582 10.1445 16.5 9.62501 16.5ZM18.375 16.5C17.8281 16.5 17.0625 16.582 17.0625 16.0625C17.0625 15.543 17.8281 14.75 18.375 14.75C18.8945 14.75 19.25 15.1055 19.25 15.625C19.25 16.1719 18.8945 16.5 18.375 16.5Z" fill="white"/>
</svg>
