<svg width="16" height="13" viewBox="0 0 16 13" fill="none" xmlns="http://www.w3.org/2000/svg">
<path d="M15.6127 4.44852H13.7682L13.2367 3.16907C12.7052 1.82722 11.4234 0.953453 9.98525 0.953453H6.01475C4.57662 0.953453 3.29481 1.82722 2.76333 3.16907L2.23184 4.44852H0.387283C0.137174 4.44852 -0.0504087 4.69816 0.0121187 4.91661L0.199701 5.66555C0.230965 5.85278 0.387283 5.9464 0.574866 5.9464H1.20014C0.762448 6.32087 0.512338 6.85137 0.512338 7.44429V8.94217C0.512338 9.47267 0.699921 9.90955 1.01256 10.2528V11.9379C1.01256 12.4996 1.45025 12.9365 2.013 12.9365H3.01344C3.54492 12.9365 4.01388 12.4996 4.01388 11.9379V10.9393H12.0174V11.9379C12.0174 12.4996 12.4551 12.9365 13.0178 12.9365H14.0183C14.5498 12.9365 15.0187 12.4996 15.0187 11.9379V10.2528C15.3001 9.90955 15.5189 9.47267 15.5189 8.94217V7.44429C15.5189 6.85137 15.2376 6.32087 14.7999 5.9464H15.4564C15.6127 5.9464 15.769 5.85278 15.8003 5.66555L15.9879 4.91661C16.0504 4.69816 15.8628 4.44852 15.6127 4.44852ZM4.60789 3.91802C4.858 3.3251 5.38948 2.95063 6.01475 2.95063H9.98525C10.6105 2.95063 11.142 3.3251 11.3921 3.91802L12.0174 5.44711H4.01388L4.60789 3.91802ZM3.01344 8.94217C2.38816 8.94217 2.013 8.5677 2.013 7.94358C2.013 7.35067 2.38816 6.94499 3.01344 6.94499C3.60745 6.94499 4.5141 7.84996 4.5141 8.44287C4.5141 9.03579 3.60745 8.94217 3.01344 8.94217ZM13.0178 8.94217C12.3926 8.94217 11.5172 9.03579 11.5172 8.44287C11.5172 7.84996 12.3926 6.94499 13.0178 6.94499C13.6118 6.94499 14.0183 7.35067 14.0183 7.94358C14.0183 8.5677 13.6118 8.94217 13.0178 8.94217Z" fill="white"/>
</svg>
