<svg width="20" height="20" viewBox="0 0 20 20" fill="none" xmlns="http://www.w3.org/2000/svg">
<rect x="0.5" y="0.5" width="19" height="19" rx="9.5" fill="white" stroke="black"/>
<path d="M11.8906 10.75C11.4375 10.75 11.2344 11 10.5 11C9.75 11 9.54688 10.75 9.09375 10.75C7.9375 10.75 7 11.7031 7 12.8594V13.25C7 13.6719 7.32812 14 7.75 14H13.25C13.6562 14 14 13.6719 14 13.25V12.8594C14 11.7031 13.0469 10.75 11.8906 10.75ZM13.25 13.25H7.75V12.8594C7.75 12.1094 8.34375 11.5 9.09375 11.5C9.32812 11.5 9.6875 11.75 10.5 11.75C11.2969 11.75 11.6562 11.5 11.8906 11.5C12.6406 11.5 13.25 12.1094 13.25 12.8594V13.25ZM10.5 10.5C11.7344 10.5 12.75 9.5 12.75 8.25C12.75 7.01562 11.7344 6 10.5 6C9.25 6 8.25 7.01562 8.25 8.25C8.25 9.5 9.25 10.5 10.5 10.5ZM10.5 6.75C11.3125 6.75 12 7.4375 12 8.25C12 9.07812 11.3125 9.75 10.5 9.75C9.67188 9.75 9 9.07812 9 8.25C9 7.4375 9.67188 6.75 10.5 6.75Z" fill="black"/>
</svg>
