<svg width="32" height="42" viewBox="0 0 32 42" fill="none" xmlns="http://www.w3.org/2000/svg">
<path d="M32 16.1184C32 25.0204 16 42 16 42C16 42 0 25.0204 0 16.1184C0 7.21646 7.16344 0 16 0C24.8366 0 32 7.21646 32 16.1184Z" fill="black"/>
<path d="M19.1875 23H10.4375C10.1914 23 10 23.2188 10 23.4375V24.3125C10 24.5586 10.1914 24.75 10.4375 24.75H19.1875C19.4062 24.75 19.625 24.5586 19.625 24.3125V23.4375C19.625 23.2188 19.4062 23 19.1875 23ZM24.875 14.25V12.9375C24.875 12.7188 24.6562 12.5 24.4375 12.5C24.1914 12.5 24 12.7188 24 12.9375V14.25H23.125V12.9375C23.125 12.7188 22.9062 12.5 22.6875 12.5C22.4414 12.5 22.25 12.7188 22.25 12.9375V14.25H21.8125C21.5664 14.25 21.375 14.4688 21.375 14.6875V15.5625C21.375 16.5469 22.0039 17.3672 22.9062 17.6406V20.8945C22.9062 21.2773 22.6328 21.6328 22.25 21.6875C21.7852 21.7695 21.375 21.3867 21.375 20.9219V20.1562C21.375 18.8438 20.2812 17.75 18.9688 17.75H18.75V12.5C18.75 11.543 17.957 10.75 17 10.75H12.625C11.6406 10.75 10.875 11.543 10.875 12.5V22.125H18.75V19.0625H18.9688C19.5703 19.0625 20.0625 19.5547 20.0625 20.1562V20.8398C20.0625 21.9336 20.8281 22.8906 21.9219 23C23.1523 23.1367 24.2188 22.1523 24.2188 20.9219V17.6406C25.0938 17.3672 25.75 16.5469 25.75 15.5625V14.6875C25.75 14.4688 25.5312 14.25 25.3125 14.25H24.875ZM17.1094 15.5625L14.5391 19.3633C14.4844 19.4727 14.375 19.5 14.2656 19.5C14.0469 19.5 13.8828 19.3359 13.9375 19.1719L14.5664 16.875H12.9531C12.7344 16.875 12.5977 16.7383 12.625 16.5742L13.0625 13.6484C13.0625 13.4844 13.1992 13.375 13.3906 13.375H15.25C15.4414 13.375 15.6055 13.5664 15.5508 13.7578L15.25 15.125H16.8086C17.0547 15.125 17.2188 15.3711 17.1094 15.5625Z" fill="white"/>
</svg>
