<svg width="12" height="11" viewBox="0 0 12 11" fill="none" xmlns="http://www.w3.org/2000/svg">
<path d="M1.23438 3.16016L5.78516 5.21094C5.92188 5.26953 6.05859 5.26953 6.19531 5.21094L10.7461 3.16016C11.0781 3.00391 11.0781 2.51562 10.7461 2.35938L6.19531 0.308594C6.13672 0.269531 6.05859 0.269531 6 0.269531C5.92188 0.269531 5.84375 0.269531 5.78516 0.308594L1.23438 2.35938C0.902344 2.51562 0.902344 3.00391 1.23438 3.16016ZM10.7461 4.87891L9.61328 4.35156L6.44922 5.79688C6.3125 5.85547 6.15625 5.89453 6 5.89453C5.82422 5.89453 5.66797 5.85547 5.53125 5.79688L2.36719 4.35156L1.23438 4.87891C0.902344 5.01562 0.902344 5.50391 1.23438 5.66016L5.78516 7.71094C5.92188 7.76953 6.05859 7.76953 6.19531 7.71094L10.7461 5.66016C11.0781 5.50391 11.0781 5.01562 10.7461 4.87891ZM10.7461 7.37891L9.61328 6.85156L6.44922 8.29688C6.3125 8.35547 6.15625 8.39453 6 8.39453C5.82422 8.39453 5.66797 8.35547 5.53125 8.29688L2.36719 6.85156L1.23438 7.37891C0.902344 7.51562 0.902344 8.00391 1.23438 8.16016L5.78516 10.2109C5.92188 10.2695 6.05859 10.2695 6.19531 10.2109L10.7461 8.16016C11.0781 8.00391 11.0781 7.51562 10.7461 7.37891Z" fill="black"/>
</svg>
