<svg width="25" height="39" viewBox="0 0 25 39" fill="none" xmlns="http://www.w3.org/2000/svg">
<g filter="url(#filter0_d_396_229)">
<path d="M12.25 16.625C11.0897 16.625 9.97688 16.1641 9.15641 15.3436C8.33594 14.5231 7.875 13.4103 7.875 12.25C7.875 11.0897 8.33594 9.97688 9.15641 9.15641C9.97688 8.33594 11.0897 7.875 12.25 7.875C13.4103 7.875 14.5231 8.33594 15.3436 9.15641C16.1641 9.97688 16.625 11.0897 16.625 12.25C16.625 12.8245 16.5118 13.3934 16.292 13.9242C16.0721 14.455 15.7498 14.9373 15.3436 15.3436C14.9373 15.7498 14.455 16.0721 13.9242 16.292C13.3934 16.5118 12.8245 16.625 12.25 16.625M12.25 0C9.0011 0 5.88526 1.29062 3.58794 3.58794C1.29062 5.88526 0 9.0011 0 12.25C0 21.4375 12.25 35 12.25 35C12.25 35 24.5 21.4375 24.5 12.25C24.5 9.0011 23.2094 5.88526 20.9121 3.58794C18.6147 1.29062 15.4989 0 12.25 0V0Z" fill="#3CE711"/>
</g>
<circle cx="12.5" cy="12.5" r="9.5" fill="#D9D9D9"/>
<path d="M11.7756 5.00001C11.574 4.99943 11.3742 5.03858 11.1877 5.11521C11.0012 5.19185 10.8316 5.30446 10.6886 5.44663C10.5457 5.58881 10.4321 5.75775 10.3544 5.94381C10.2767 6.12988 10.2364 6.32942 10.2358 6.53106C10.2363 6.73278 10.2764 6.93245 10.3541 7.11864C10.4317 7.30483 10.5453 7.4739 10.6882 7.61619C10.8312 7.75847 11.0009 7.87119 11.1874 7.94789C11.374 8.02459 11.5739 8.06377 11.7756 8.0632C11.9773 8.06377 12.1772 8.02459 12.3638 7.94789C12.5503 7.87119 12.72 7.75847 12.863 7.61619C13.006 7.4739 13.1195 7.30483 13.1971 7.11864C13.2748 6.93245 13.3149 6.73278 13.3154 6.53106C13.3148 6.32942 13.2745 6.12988 13.1968 5.94381C13.1191 5.75775 13.0056 5.58881 12.8626 5.44663C12.7196 5.30446 12.55 5.19185 12.3635 5.11521C12.177 5.03858 11.9772 4.99943 11.7756 5.00001Z" fill="black"/>
<path d="M12.604 8.29528H12.5386C9.6356 8.35194 8.60364 12.1213 9.13324 12.385C9.56368 12.6029 10.7765 10.223 11.2037 10.223C11.3214 10.223 11.3737 10.3123 11.3857 10.4616C11.1547 11.3247 10.3908 14.1024 9.88187 15.0265C9.73367 15.2956 10.054 15.4972 10.6065 15.6302C10.4354 17.7791 10.4169 19.9999 10.8136 19.9999C11.256 19.9999 11.5372 17.3519 11.9676 15.8067C12.361 15.8285 12.7718 15.8318 13.1663 15.8165C13.5956 17.3628 13.8768 19.9999 14.3192 19.9999C14.7126 19.9999 14.6962 17.8129 14.5284 15.6781C15.2149 15.5473 15.6454 15.3305 15.4776 15.0243C14.8989 13.9705 13.9879 10.5139 13.9116 10.2219H13.9269C14.3628 10.2219 15.5713 12.5986 16.0028 12.3839C16.5324 12.1202 15.4994 8.35194 12.5964 8.29419L12.604 8.29528Z" fill="black"/>
<defs>
<filter id="filter0_d_396_229" x="0" y="0" width="24.5" height="39" filterUnits="userSpaceOnUse" color-interpolation-filters="sRGB">
<feFlood flood-opacity="0" result="BackgroundImageFix"/>
<feColorMatrix in="SourceAlpha" type="matrix" values="0 0 0 0 0 0 0 0 0 0 0 0 0 0 0 0 0 0 127 0" result="hardAlpha"/>
<feOffset dy="4"/>
<feComposite in2="hardAlpha" operator="out"/>
<feColorMatrix type="matrix" values="0 0 0 0 0 0 0 0 0 0 0 0 0 0 0 0 0 0 0.36 0"/>
<feBlend mode="normal" in2="BackgroundImageFix" result="effect1_dropShadow_396_229"/>
<feBlend mode="normal" in="SourceGraphic" in2="effect1_dropShadow_396_229" result="shape"/>
</filter>
</defs>
</svg>
