<svg width="30" height="22" viewBox="0 0 30 22" fill="none" xmlns="http://www.w3.org/2000/svg">
<path d="M6.46718 4.45563C6.76056 4.45645 7.05123 4.39948 7.32259 4.28796C7.59396 4.17645 7.8407 4.01258 8.04874 3.80571C8.25677 3.59884 8.42202 3.35302 8.53505 3.08228C8.64808 2.81155 8.70668 2.5212 8.7075 2.22782C8.70668 1.93443 8.64808 1.64409 8.53505 1.37335C8.42202 1.10262 8.25677 0.856794 8.04874 0.649923C7.8407 0.443051 7.59396 0.279181 7.32259 0.167669C7.05123 0.056156 6.76056 -0.00081416 6.46718 8.79002e-06C6.174 -0.000608207 5.88357 0.0565244 5.61248 0.168149C5.34138 0.279773 5.09493 0.443701 4.88718 0.650572C4.67944 0.857444 4.51448 1.10321 4.40171 1.37383C4.28895 1.64446 4.2306 1.93464 4.22998 2.22782C4.2306 2.52099 4.28895 2.81118 4.40171 3.0818C4.51448 3.35243 4.67944 3.59819 4.88718 3.80506C5.09493 4.01193 5.34138 4.17586 5.61248 4.28748C5.88357 4.39911 6.174 4.45624 6.46718 4.45563Z" fill="#14DB70"/>
<path d="M5.24069 4.81396H5.14683C0.92275 4.89532 -0.576015 10.3757 0.193705 10.759C0.819494 11.0719 2.58579 7.61594 3.21157 7.61594C3.83736 7.61594 3.21157 9.39318 2.92684 10.7871C2.32921 13.7596 1.73158 21.8307 2.6421 21.8307C3.55263 21.8307 3.9766 14.3526 5.19376 14.1648C6.40936 14.3557 6.84741 21.8307 7.74698 21.8307C8.64655 21.8307 8.05987 13.7612 7.46068 10.7871C7.18064 9.39318 6.55016 7.61594 7.17595 7.61594C7.80174 7.61594 9.56646 11.0703 10.1938 10.759C10.9635 10.3757 9.4632 4.89532 5.24069 4.81396Z" fill="#14DB70"/>
<path d="M22.9848 0.298837C22.6953 0.298014 22.4085 0.354217 22.1407 0.464236C21.873 0.574255 21.6295 0.735936 21.4242 0.940047C21.219 1.14416 21.0559 1.3867 20.9444 1.65383C20.8328 1.92096 20.775 2.20744 20.7742 2.49692C20.7748 2.78653 20.8325 3.07318 20.9439 3.34049C21.0554 3.6078 21.2184 3.85053 21.4237 4.05481C21.629 4.25909 21.8725 4.42091 22.1404 4.53102C22.4082 4.64114 22.6952 4.69739 22.9848 4.69657C23.2744 4.69739 23.5613 4.64114 23.8292 4.53102C24.097 4.42091 24.3406 4.25909 24.5459 4.05481C24.7512 3.85053 24.9142 3.6078 25.0256 3.34049C25.1371 3.07318 25.1948 2.78653 25.1954 2.49692C25.1945 2.20744 25.1367 1.92096 25.0252 1.65383C24.9136 1.3867 24.7506 1.14416 24.5453 0.940047C24.34 0.735936 24.0966 0.574255 23.8288 0.464236C23.5611 0.354217 23.2742 0.298014 22.9848 0.298837Z" fill="#14DB70"/>
<path d="M24.1739 5.02988H24.08C19.9123 5.11124 18.4307 10.5227 19.191 10.9013C19.809 11.2142 21.5503 7.79744 22.1635 7.79744C22.3325 7.79744 22.4076 7.92572 22.4248 8.14006C22.0931 9.37912 20.9964 13.367 20.2658 14.6936C20.0531 15.0801 20.513 15.3695 21.3062 15.5603C21.0606 18.6455 21.034 21.8339 21.6035 21.8339C22.2386 21.8339 22.6423 18.0322 23.2602 15.8138C23.825 15.8451 24.4148 15.8498 24.9812 15.8279C25.5976 18.0479 26.0012 21.8339 26.6364 21.8339C27.2011 21.8339 27.1777 18.694 26.9367 15.6292C27.9224 15.4414 28.5403 15.1301 28.2994 14.6905C27.4687 13.1777 26.1608 8.21515 26.0513 7.79587H26.0732C26.6989 7.79587 28.4339 11.208 29.0535 10.8998C29.8138 10.5212 28.3307 5.11124 24.1629 5.02832L24.1739 5.02988Z" fill="#14DB70"/>
<path d="M14.7167 11.6631C14.9306 11.6635 15.1424 11.6218 15.3401 11.5402C15.5378 11.4586 15.7174 11.3387 15.8687 11.1876C16.02 11.0364 16.1399 10.8569 16.2217 10.6593C16.3035 10.4617 16.3455 10.2499 16.3453 10.0361C16.3441 9.60525 16.1718 9.19253 15.8665 8.88862C15.5611 8.58471 15.1475 8.41446 14.7167 8.41529C14.2855 8.41404 13.8713 8.58406 13.5654 8.88797C13.2594 9.19188 13.0866 9.60483 13.085 10.0361C13.085 10.2501 13.1272 10.4621 13.2093 10.6598C13.2913 10.8575 13.4116 11.0371 13.5632 11.1882C13.7148 11.3394 13.8947 11.4591 14.0926 11.5406C14.2906 11.6221 14.5026 11.6638 14.7167 11.6631Z" fill="#14DB70"/>
<path d="M14.7495 12.1044H14.6807H14.5853C11.5611 12.0575 10.527 10.6401 10.3111 10.9733C9.82145 11.7305 12.9707 13.2887 13.2476 13.5703C13.4761 13.8065 13.268 15.3053 13.0646 16.3222C12.6297 18.4859 12.1948 21.9543 12.8565 21.9543C13.5183 21.9543 13.8312 18.2262 14.7167 18.0885C15.6006 18.2262 15.9198 21.9543 16.5737 21.9543C17.2277 21.9543 16.8021 18.4828 16.3672 16.3222C16.1623 15.3053 15.7273 13.6626 16.1716 13.5562C18.0662 13.1041 19.1754 11.3926 18.9032 11.1626C18.6498 10.9545 17.6829 12.203 14.7495 12.1044Z" fill="#14DB70"/>
</svg>
