<svg width="88" height="89" viewBox="0 0 88 89" fill="none" xmlns="http://www.w3.org/2000/svg">
<g clip-path="url(#clip0_88_182)">
<path d="M51.6856 85.775C50.6763 86.7958 49.4782 87.6055 48.1595 88.1579C46.8408 88.7104 45.4274 88.9947 44.0001 88.9947C42.5727 88.9947 41.1593 88.7104 39.8407 88.1579C38.522 87.6055 37.3238 86.7958 36.3145 85.775L3.18587 52.2724C2.17658 51.2516 1.37597 50.0398 0.829745 48.7062C0.28352 47.3725 0.00238037 45.9431 0.00238037 44.4995C0.00238037 43.0559 0.28352 41.6265 0.829745 40.2928C1.37597 38.9591 2.17658 37.7473 3.18587 36.7266L36.3145 3.20929C37.3238 2.18853 38.522 1.37882 39.8407 0.82639C41.1593 0.273958 42.5727 -0.010376 44.0001 -0.010376C45.4274 -0.010376 46.8408 0.273958 48.1595 0.82639C49.4782 1.37882 50.6763 2.18853 51.6856 3.20929L84.8167 36.7266C85.826 37.7473 86.6266 38.9591 87.1728 40.2928C87.719 41.6265 88.0002 43.0559 88.0002 44.4995C88.0002 45.9431 87.719 47.3725 87.1728 48.7062C86.6266 50.0398 85.826 51.2516 84.8167 52.2724L51.6856 85.775Z" fill="url(#paint0_radial_88_182)"/>
<path d="M51.1689 83.3892C49.2436 85.3353 46.6329 86.4284 43.9109 86.4284C41.1888 86.4284 38.5782 85.3353 36.6528 83.3892L5.36953 51.7504C4.41618 50.7865 3.65993 49.6422 3.14396 48.3827C2.628 47.1232 2.36243 45.7732 2.36243 44.4099C2.36243 43.0465 2.628 41.6966 3.14396 40.437C3.65993 39.1775 4.41618 38.0332 5.36953 37.0693L36.6528 5.43052C37.6059 4.46634 38.7374 3.70149 39.9827 3.17966C41.2281 2.65784 42.5629 2.38925 43.9109 2.38925C45.2589 2.38925 46.5937 2.65784 47.8391 3.17966C49.0844 3.70149 50.2159 4.46634 51.1689 5.43052L82.4547 37.0742C84.3789 39.0214 85.4598 41.6618 85.4598 44.4147C85.4598 47.1677 84.3789 49.808 82.4547 51.7553L51.1689 83.3892Z" fill="url(#paint1_linear_88_182)"/>
<path d="M79.5633 36.8688L51.5455 8.5326C50.5569 7.52741 49.3809 6.73048 48.0858 6.18791C46.7906 5.64534 45.4019 5.3679 44 5.37165C42.5982 5.36817 41.2096 5.64573 39.9144 6.18828C38.6193 6.73084 37.4434 7.52763 36.4545 8.5326L8.43676 36.8688C6.43793 38.894 5.31531 41.6385 5.31531 44.5C5.31531 47.3615 6.43793 50.106 8.43676 52.1312L36.4545 80.4674C37.4434 81.4723 38.6193 82.2691 39.9144 82.8117C41.2096 83.3542 42.5982 83.6318 44 83.6283C45.4019 83.6322 46.7906 83.3548 48.0858 82.8123C49.381 82.2697 50.5569 81.4727 51.5455 80.4674L79.5633 52.1312C81.5621 50.106 82.6847 47.3615 82.6847 44.5C82.6847 41.6385 81.5621 38.894 79.5633 36.8688ZM77.4716 50.0158L49.4538 78.3519C48.7401 79.0802 47.8905 79.658 46.9543 80.0517C46.0181 80.4455 45.0139 80.6474 44 80.6457C42.9868 80.6484 41.9832 80.4479 41.047 80.0559C40.1109 79.6638 39.2609 79.088 38.5462 78.3617L10.5284 50.0255C9.08595 48.5605 8.27607 46.5773 8.27607 44.5098C8.27607 42.4423 9.08595 40.459 10.5284 38.994L38.5462 10.6578C39.2601 9.92974 40.1098 9.35212 41.0459 8.95839C41.9821 8.56466 42.9862 8.36265 44 8.36405C45.0133 8.3611 46.017 8.56145 46.9532 8.9535C47.8893 9.34555 48.7393 9.92151 49.4538 10.648L77.4716 38.9842C78.9141 40.4492 79.724 42.4325 79.724 44.5C79.724 46.5675 78.9141 48.5508 77.4716 50.0158Z" fill="#1F140F"/>
<path d="M45.1811 9.80529C45.5781 9.98104 45.937 10.2343 46.237 10.5507C46.537 10.867 46.7723 11.2401 46.9294 11.6487C47.0865 12.0572 47.1622 12.4931 47.1524 12.9313C47.1425 13.3695 47.0472 13.8014 46.8718 14.2023C46.5207 15.0071 45.8689 15.6388 45.0589 15.9591C44.2488 16.2795 43.3462 16.2627 42.5484 15.9122C41.7478 15.5557 41.12 14.8923 40.803 14.0677C40.4859 13.2432 40.5056 12.3251 40.8577 11.5152C41.2098 10.7112 41.8617 10.0805 42.6714 9.76023C43.4811 9.43998 44.3831 9.45617 45.1811 9.80529Z" fill="url(#paint2_linear_88_182)"/>
<path d="M44.9662 10.3622C45.2917 10.5051 45.5863 10.7115 45.8328 10.9697C46.0794 11.2278 46.2732 11.5326 46.4031 11.8666C46.533 12.2007 46.5965 12.5573 46.5899 12.9162C46.5833 13.2751 46.5067 13.6291 46.3646 13.958C46.2229 14.2869 46.0185 14.5843 45.7631 14.8332C45.5077 15.0821 45.2063 15.2778 44.8762 15.4089C44.546 15.54 44.1935 15.604 43.8389 15.5974C43.4842 15.5907 43.1344 15.5134 42.8093 15.3699C42.4842 15.2268 42.1902 15.0204 41.9441 14.7623C41.6979 14.5042 41.5045 14.1996 41.3749 13.8659C41.2452 13.5322 41.1819 13.1759 41.1885 12.8174C41.195 12.4589 41.2714 12.1052 41.4132 11.7766C41.5542 11.4474 41.7581 11.1496 42.0131 10.9002C42.2681 10.6509 42.5693 10.4549 42.8994 10.3235C43.2295 10.1921 43.5819 10.1279 43.9366 10.1345C44.2913 10.1412 44.6411 10.2186 44.9662 10.3622Z" fill="url(#paint3_linear_88_182)"/>
<path d="M44.7512 10.863C45.2753 11.0955 45.6867 11.5289 45.895 12.068C46.1034 12.6071 46.0916 13.2078 45.8622 13.7382C45.6302 14.2665 45.2018 14.6812 44.6698 14.8924C44.1377 15.1036 43.5448 15.0944 43.0194 14.8667C42.4974 14.6352 42.0874 14.2039 41.8792 13.6673C41.6709 13.1308 41.6814 12.5326 41.9083 12.0038C42.0198 11.7392 42.182 11.4995 42.3856 11.2987C42.5892 11.0979 42.8301 10.9399 43.0945 10.8338C43.3588 10.7277 43.6414 10.6757 43.9257 10.6807C44.2101 10.6857 44.4906 10.7477 44.7512 10.863Z" fill="url(#paint4_radial_88_182)"/>
<path d="M45.3792 13.3082L45.2246 13.6722L42.3069 12.3873L42.4663 12.0233L45.3792 13.3082ZM44.6546 11.4493L44.2947 11.2905L43.7368 12.5876L44.0991 12.7439L44.6546 11.4493ZM43.93 13.1055L43.5701 12.9491L43.0097 14.2389L43.372 14.4001L43.93 13.1055Z" fill="#5C5B5F"/>
<path d="M45.1811 71.5317C45.9799 71.8868 46.6067 72.548 46.9238 73.3702C47.2408 74.1924 47.2221 75.1082 46.8718 75.9165C46.5239 76.7257 45.8725 77.3619 45.0608 77.6853C44.2491 78.0088 43.3436 77.9928 42.5435 77.6411C41.7462 77.285 41.1207 76.6241 40.8038 75.8029C40.487 74.9816 40.5046 74.0669 40.8528 73.2588C41.2007 72.4496 41.852 71.8132 42.6636 71.4894C43.4751 71.1656 44.3806 71.1808 45.1811 71.5317Z" fill="url(#paint5_linear_88_182)"/>
<path d="M44.9662 72.096C45.2918 72.2391 45.5864 72.4458 45.833 72.7041C46.0796 72.9625 46.2734 73.2675 46.4033 73.6018C46.5332 73.936 46.5967 74.2928 46.59 74.6519C46.5834 75.0109 46.5068 75.3651 46.3646 75.6942C46.2229 76.0231 46.0185 76.3204 45.7631 76.5693C45.5076 76.8182 45.2062 77.0137 44.8759 77.1446C44.5457 77.2755 44.1932 77.3393 43.8386 77.3322C43.484 77.3252 43.1342 77.2476 42.8093 77.1037C42.4843 76.9609 42.1903 76.7546 41.9442 76.4968C41.6981 76.2389 41.5047 75.9345 41.3751 75.601C41.2454 75.2675 41.182 74.9114 41.1886 74.5531C41.1951 74.1948 41.2715 73.8413 41.4132 73.5128C41.554 73.1834 41.7577 72.8853 42.0126 72.6357C42.2675 72.3861 42.5687 72.1899 42.8988 72.0582C43.2289 71.9266 43.5814 71.8622 43.9362 71.8687C44.291 71.8752 44.641 71.9524 44.9662 72.096Z" fill="url(#paint6_linear_88_182)"/>
<path d="M44.7512 72.5846C45.2745 72.8201 45.6848 73.2549 45.8928 73.7947C46.1009 74.3345 46.0899 74.9354 45.8622 75.467C45.6307 75.9958 45.2025 76.411 44.6704 76.6227C44.1382 76.8344 43.5451 76.8256 43.0194 76.598C42.7587 76.4839 42.5229 76.3188 42.3255 76.1122C42.1281 75.9056 41.973 75.6616 41.8691 75.3942C41.7652 75.1269 41.7145 74.8413 41.72 74.5541C41.7255 74.2669 41.787 73.9836 41.9011 73.7205C42.0135 73.4558 42.1766 73.2163 42.381 73.0157C42.5855 72.8151 42.8271 72.6575 43.0921 72.5519C43.3571 72.4463 43.6401 72.3948 43.9249 72.4004C44.2096 72.406 44.4905 72.4686 44.7512 72.5846Z" fill="url(#paint7_radial_88_182)"/>
<path d="M45.3792 75.0273L45.2246 75.3913L42.3069 74.1089L42.4663 73.7424L45.3792 75.0273ZM44.6546 73.1684L44.2947 73.0121L43.7368 74.3067L44.0991 74.4631L44.6546 73.1684ZM43.93 74.827L43.5701 74.6683L43.0097 75.9605L43.372 76.1193L43.93 74.827Z" fill="#5C5B5F"/>
<path d="M31.4017 34.3136C31.8546 34.3149 32.3034 34.226 32.7223 34.0518C33.1413 33.8777 33.5222 33.6219 33.8434 33.2988C34.1646 32.9758 34.4197 32.592 34.5942 32.1693C34.7687 31.7466 34.8591 31.2932 34.8604 30.8351C34.8591 30.377 34.7687 29.9237 34.5942 29.501C34.4197 29.0782 34.1646 28.6944 33.8434 28.3714C33.5222 28.0484 33.1413 27.7925 32.7223 27.6184C32.3034 27.4443 31.8546 27.3553 31.4017 27.3566C30.949 27.3556 30.5007 27.4449 30.0821 27.6191C29.6636 27.7934 29.2831 28.0494 28.9624 28.3724C28.6417 28.6954 28.387 29.0792 28.2129 29.5017C28.0388 29.9243 27.9487 30.3774 27.9478 30.8351C27.9487 31.2929 28.0388 31.746 28.2129 32.1685C28.387 32.5911 28.6417 32.9748 28.9624 33.2978C29.2831 33.6208 29.6636 33.8768 30.0821 34.0511C30.5007 34.2254 30.949 34.3146 31.4017 34.3136Z" fill="#1F140F"/>
<path d="M29.508 34.873H29.3631C22.8417 35 20.5278 43.5571 21.7162 44.1556C22.6823 44.6441 25.4092 39.248 26.3753 39.248C27.3415 39.248 26.3753 42.023 25.9357 44.1995C25.0131 48.8408 24.0904 61.4431 25.4962 61.4431C26.9019 61.4431 27.5564 49.7666 29.4356 49.4735C31.3123 49.7715 31.9885 61.4431 33.3774 61.4431C34.7662 61.4431 33.8604 48.8432 32.9354 44.1995C32.503 42.023 31.5296 39.248 32.4958 39.248C33.4619 39.248 36.1864 44.6417 37.1549 44.1556C38.3433 43.5571 36.027 35 29.508 34.873Z" fill="#1F140F"/>
<path d="M56.9027 27.8232C56.4557 27.8219 56.013 27.9097 55.5996 28.0815C55.1862 28.2532 54.8103 28.5057 54.4934 28.8244C54.1765 29.1431 53.9248 29.5218 53.7526 29.9389C53.5804 30.356 53.4911 30.8033 53.4898 31.2553C53.4908 31.7075 53.5798 32.1551 53.7519 32.5724C53.9239 32.9898 54.1756 33.3688 54.4926 33.6878C54.8095 34.0067 55.1855 34.2594 55.599 34.4313C56.0126 34.6033 56.4555 34.6911 56.9027 34.6898C57.3498 34.6911 57.7928 34.6033 58.2063 34.4313C58.6198 34.2594 58.9958 34.0067 59.3128 33.6878C59.6297 33.3688 59.8814 32.9898 60.0535 32.5724C60.2255 32.1551 60.3146 31.7075 60.3155 31.2553C60.3143 30.8033 60.225 30.356 60.0528 29.9389C59.8806 29.5218 59.6288 29.1431 59.3119 28.8244C58.995 28.5057 58.6191 28.2532 58.2057 28.0815C57.7924 27.9097 57.3496 27.8219 56.9027 27.8232Z" fill="#1F140F"/>
<path d="M58.7383 35.2101H58.5934C52.159 35.3372 49.8717 43.7867 51.0455 44.3779C51.9996 44.8664 54.6878 39.5314 55.6346 39.5314C55.8955 39.5314 56.0114 39.7317 56.038 40.0664C55.5259 42.0011 53.8328 48.2277 52.7048 50.2992C52.3763 50.9025 53.0865 51.3544 54.311 51.6524C53.9318 56.4696 53.8908 61.448 54.7699 61.448C55.7506 61.448 56.3737 55.512 57.3278 52.0482C58.1997 52.097 59.1103 52.1044 59.9846 52.0702C60.9363 55.5365 61.5594 61.448 62.54 61.448C63.412 61.448 63.3757 56.5453 63.0038 51.7599C64.5254 51.4668 65.4795 50.9807 65.1075 50.2943C63.825 47.9321 61.8058 40.1836 61.6367 39.529H61.6705C62.6367 39.529 65.3153 44.8567 66.2717 44.3754C67.4456 43.7843 65.1558 35.3372 58.7214 35.2077L58.7383 35.2101Z" fill="#1F140F"/>
<path d="M44.1377 45.5675C44.4678 45.5681 44.7949 45.5029 45.1 45.3755C45.4052 45.248 45.6826 45.061 45.9161 44.825C46.1497 44.589 46.3349 44.3087 46.4612 44.0001C46.5875 43.6916 46.6523 43.3609 46.652 43.027C46.6501 42.3543 46.3842 41.7099 45.9127 41.2353C45.4413 40.7608 44.8028 40.495 44.1377 40.4963C43.4719 40.4943 42.8325 40.7598 42.3602 41.2343C41.8878 41.7089 41.621 42.3536 41.6185 43.027C41.6185 43.3612 41.6837 43.6922 41.8104 44.0009C41.9371 44.3096 42.1227 44.59 42.3568 44.826C42.5908 45.062 42.8686 45.249 43.1742 45.3762C43.4798 45.5034 43.8072 45.5684 44.1377 45.5675Z" fill="#1F140F"/>
<path d="M44.1884 46.2564H44.0822H43.9348C39.266 46.1831 37.6695 43.9699 37.3361 44.4902C36.5801 45.6725 41.4422 48.1055 41.8697 48.5452C42.2224 48.9141 41.9011 51.2543 41.5871 52.8421C40.9157 56.2204 40.2442 61.6361 41.2659 61.6361C42.2876 61.6361 42.7706 55.8149 44.1377 55.6C45.5024 55.8149 45.9951 61.6361 47.0047 61.6361C48.0143 61.6361 47.3573 56.2155 46.6859 52.8421C46.3695 51.2543 45.698 48.6894 46.384 48.5232C49.3089 47.8173 51.0214 45.1449 50.6011 44.7858C50.2098 44.4609 48.7172 46.4103 44.1884 46.2564Z" fill="#1F140F"/>
</g>
<defs>
<radialGradient id="paint0_radial_88_182" cx="0" cy="0" r="1" gradientUnits="userSpaceOnUse" gradientTransform="translate(44.0001 44.4995) scale(44 44.5)">
<stop stop-color="#FF0000"/>
<stop offset="0.17" stop-color="#FE0000"/>
<stop offset="0.39" stop-color="#FB0000"/>
<stop offset="0.65" stop-color="#F72C00"/>
<stop offset="0.92" stop-color="#F20303"/>
<stop offset="1" stop-color="#EE0000"/>
</radialGradient>
<linearGradient id="paint1_linear_88_182" x1="43.9109" y1="86.428" x2="43.9109" y2="2.38927" gradientUnits="userSpaceOnUse">
<stop stop-color="white"/>
<stop offset="0.05" stop-color="white"/>
<stop offset="0.37" stop-color="white"/>
<stop offset="0.7" stop-color="white"/>
<stop offset="0.76" stop-color="white"/>
<stop offset="0.97" stop-color="white"/>
<stop offset="1" stop-color="white"/>
</linearGradient>
<linearGradient id="paint2_linear_88_182" x1="41.958" y1="16.7112" x2="44.6335" y2="10.6416" gradientUnits="userSpaceOnUse">
<stop stop-color="#1F140F"/>
<stop offset="0.22" stop-color="#483F3B"/>
<stop offset="0.71" stop-color="#ADAAAA"/>
<stop offset="1" stop-color="#EDEEF0"/>
</linearGradient>
<linearGradient id="paint3_linear_88_182" x1="42.8247" y1="16.7688" x2="45.0193" y2="11.786" gradientUnits="userSpaceOnUse">
<stop stop-color="#EDEEF0"/>
<stop offset="0.29" stop-color="#ADAAAA"/>
<stop offset="0.78" stop-color="#483F3B"/>
<stop offset="1" stop-color="#1F140F"/>
</linearGradient>
<radialGradient id="paint4_radial_88_182" cx="0" cy="0" r="1" gradientUnits="userSpaceOnUse" gradientTransform="translate(44.3089 12.5278) rotate(-66.6763) scale(2.1825 2.16571)">
<stop stop-color="#D8DADE"/>
<stop offset="0.57" stop-color="#9C9CA0"/>
<stop offset="1" stop-color="#737377"/>
</radialGradient>
<linearGradient id="paint5_linear_88_182" x1="41.9537" y1="78.4678" x2="44.6397" y2="72.3744" gradientUnits="userSpaceOnUse">
<stop stop-color="#1F140F"/>
<stop offset="0.22" stop-color="#483F3B"/>
<stop offset="0.71" stop-color="#ADAAAA"/>
<stop offset="1" stop-color="#EDEEF0"/>
</linearGradient>
<linearGradient id="paint6_linear_88_182" x1="42.8455" y1="78.52" x2="45.0487" y2="73.5176" gradientUnits="userSpaceOnUse">
<stop stop-color="#EDEEF0"/>
<stop offset="0.29" stop-color="#ADAAAA"/>
<stop offset="0.78" stop-color="#483F3B"/>
<stop offset="1" stop-color="#1F140F"/>
</linearGradient>
<radialGradient id="paint7_radial_88_182" cx="0" cy="0" r="1" gradientUnits="userSpaceOnUse" gradientTransform="translate(44.2993 74.2216) rotate(-66.6763) scale(2.1825 2.16571)">
<stop stop-color="#D8DADE"/>
<stop offset="0.57" stop-color="#9C9CA0"/>
<stop offset="1" stop-color="#737377"/>
</radialGradient>
<clipPath id="clip0_88_182">
<rect width="88" height="89" fill="white"/>
</clipPath>
</defs>
</svg>
