<svg width="9" height="15" viewBox="0 0 9 15" fill="none" xmlns="http://www.w3.org/2000/svg">
<path d="M5.8125 3.375C6.52344 3.375 7.125 2.80078 7.125 2.0625C7.125 1.35156 6.52344 0.75 5.8125 0.75C5.07422 0.75 4.5 1.35156 4.5 2.0625C4.5 2.80078 5.07422 3.375 5.8125 3.375ZM8.38281 7.47656L7.75391 7.14844L7.48047 6.32812C7.07031 5.125 5.94922 4.27734 4.69141 4.25C3.70703 4.25 3.16016 4.55078 2.14844 4.96094C1.54688 5.17969 1.05469 5.64453 0.78125 6.21875L0.589844 6.57422C0.371094 7.01172 0.5625 7.53125 0.972656 7.75C1.41016 7.96875 1.92969 7.80469 2.14844 7.36719L2.33984 6.98438C2.42188 6.79297 2.58594 6.65625 2.77734 6.57422L3.51562 6.27344L3.10547 7.94141C2.94141 8.51562 3.10547 9.11719 3.51562 9.55469L5.12891 11.332C5.34766 11.5508 5.48438 11.8242 5.53906 12.0977L6.05859 14.0938C6.16797 14.5586 6.63281 14.8594 7.09766 14.7227C7.58984 14.6133 7.86328 14.1484 7.75391 13.6836L7.15234 11.25C7.07031 10.9492 6.93359 10.7031 6.74219 10.4844L5.48438 9.11719L5.94922 7.25781L6.11328 7.69531C6.25 8.13281 6.57812 8.48828 6.98828 8.70703L7.61719 9.03516C8.02734 9.25391 8.54688 9.0625 8.76562 8.65234C8.98438 8.21484 8.82031 7.66797 8.38281 7.47656ZM2.12109 11.3047C2.03906 11.5234 1.90234 11.7422 1.73828 11.9062L0.371094 13.2734C0.015625 13.6016 0.015625 14.1758 0.371094 14.5039C0.699219 14.8594 1.27344 14.8594 1.60156 14.5039L3.24219 12.8906C3.40625 12.7266 3.51562 12.5078 3.625 12.2891L3.98047 11.3594C2.47656 9.71875 2.94141 10.2383 2.69531 9.91016L2.12109 11.3047Z" fill="#FFC566"/>
</svg>
