<svg width="16" height="18" viewBox="0 0 16 18" fill="none" xmlns="http://www.w3.org/2000/svg">
<path d="M7.99988 15C8.43321 15 8.79154 14.8583 9.07488 14.575C9.35821 14.2917 9.49988 13.9333 9.49988 13.5C9.49988 13.0667 9.35821 12.7083 9.07488 12.425C8.79154 12.1417 8.43321 12 7.99988 12C7.56655 12 7.20821 12.1417 6.92488 12.425C6.64155 12.7083 6.49988 13.0667 6.49988 13.5C6.49988 13.9333 6.64155 14.2917 6.92488 14.575C7.20821 14.8583 7.56655 15 7.99988 15ZM7.99988 10.5C8.43321 10.5 8.79154 10.3583 9.07488 10.075C9.35821 9.79167 9.49988 9.43333 9.49988 9C9.49988 8.56667 9.35821 8.20833 9.07488 7.925C8.79154 7.64167 8.43321 7.5 7.99988 7.5C7.56655 7.5 7.20821 7.64167 6.92488 7.925C6.64155 8.20833 6.49988 8.56667 6.49988 9C6.49988 9.43333 6.64155 9.79167 6.92488 10.075C7.20821 10.3583 7.56655 10.5 7.99988 10.5ZM7.99988 6C8.43321 6 8.79154 5.85833 9.07488 5.575C9.35821 5.29167 9.49988 4.93333 9.49988 4.5C9.49988 4.06667 9.35821 3.70833 9.07488 3.425C8.79154 3.14167 8.43321 3 7.99988 3C7.56655 3 7.20821 3.14167 6.92488 3.425C6.64155 3.70833 6.49988 4.06667 6.49988 4.5C6.49988 4.93333 6.64155 5.29167 6.92488 5.575C7.20821 5.85833 7.56655 6 7.99988 6ZM4.99988 18C4.44988 18 3.97921 17.8043 3.58788 17.413C3.19588 17.021 2.99988 16.55 2.99988 16V15.85C2.24988 15.65 1.60388 15.2583 1.06188 14.675C0.520545 14.0917 0.183212 13.4 0.0498784 12.6C0.0165451 12.4333 0.0538784 12.2917 0.161878 12.175C0.270545 12.0583 0.416545 12 0.599878 12H2.99988V10.85C2.24988 10.65 1.60388 10.2583 1.06188 9.675C0.520545 9.09167 0.183212 8.4 0.0498784 7.6C0.0165451 7.43333 0.0538784 7.29167 0.161878 7.175C0.270545 7.05833 0.416545 7 0.599878 7H2.99988V5.85C2.24988 5.65 1.60388 5.25833 1.06188 4.675C0.520545 4.09167 0.183212 3.4 0.0498784 2.6C0.0165451 2.43333 0.0538784 2.29167 0.161878 2.175C0.270545 2.05833 0.416545 2 0.599878 2H2.99988C2.99988 1.45 3.19588 0.979 3.58788 0.587C3.97921 0.195667 4.44988 0 4.99988 0H10.9999C11.5499 0 12.0209 0.195667 12.4129 0.587C12.8042 0.979 12.9999 1.45 12.9999 2H15.3999C15.5832 2 15.7289 2.05833 15.8369 2.175C15.9455 2.29167 15.9832 2.43333 15.9499 2.6C15.8165 3.4 15.4792 4.09167 14.9379 4.675C14.3959 5.25833 13.7499 5.65 12.9999 5.85V7H15.3999C15.5832 7 15.7289 7.05833 15.8369 7.175C15.9455 7.29167 15.9832 7.43333 15.9499 7.6C15.8165 8.4 15.4792 9.09167 14.9379 9.675C14.3959 10.2583 13.7499 10.65 12.9999 10.85V12H15.3999C15.5832 12 15.7289 12.0583 15.8369 12.175C15.9455 12.2917 15.9832 12.4333 15.9499 12.6C15.8165 13.4 15.4792 14.0917 14.9379 14.675C14.3959 15.2583 13.7499 15.65 12.9999 15.85V16C12.9999 16.55 12.8042 17.021 12.4129 17.413C12.0209 17.8043 11.5499 18 10.9999 18H4.99988Z" fill="black"/>
</svg>
