<svg width="16" height="18" viewBox="0 0 16 18" fill="none" xmlns="http://www.w3.org/2000/svg">
<path d="M8 15C8.43333 15 8.79167 14.8583 9.075 14.575C9.35833 14.2917 9.5 13.9333 9.5 13.5C9.5 13.0667 9.35833 12.7083 9.075 12.425C8.79167 12.1417 8.43333 12 8 12C7.56667 12 7.20833 12.1417 6.925 12.425C6.64167 12.7083 6.5 13.0667 6.5 13.5C6.5 13.9333 6.64167 14.2917 6.925 14.575C7.20833 14.8583 7.56667 15 8 15ZM8 10.5C8.43333 10.5 8.79167 10.3583 9.075 10.075C9.35833 9.79167 9.5 9.43333 9.5 9C9.5 8.56667 9.35833 8.20833 9.075 7.925C8.79167 7.64167 8.43333 7.5 8 7.5C7.56667 7.5 7.20833 7.64167 6.925 7.925C6.64167 8.20833 6.5 8.56667 6.5 9C6.5 9.43333 6.64167 9.79167 6.925 10.075C7.20833 10.3583 7.56667 10.5 8 10.5ZM8 6C8.43333 6 8.79167 5.85833 9.075 5.575C9.35833 5.29167 9.5 4.93333 9.5 4.5C9.5 4.06667 9.35833 3.70833 9.075 3.425C8.79167 3.14167 8.43333 3 8 3C7.56667 3 7.20833 3.14167 6.925 3.425C6.64167 3.70833 6.5 4.06667 6.5 4.5C6.5 4.93333 6.64167 5.29167 6.925 5.575C7.20833 5.85833 7.56667 6 8 6ZM5 18C4.45 18 3.97933 17.8043 3.588 17.413C3.196 17.021 3 16.55 3 16V15.85C2.25 15.65 1.604 15.2583 1.062 14.675C0.520667 14.0917 0.183334 13.4 0.0500005 12.6C0.0166671 12.4333 0.0540005 12.2917 0.162 12.175C0.270667 12.0583 0.416667 12 0.6 12H3V10.85C2.25 10.65 1.604 10.2583 1.062 9.675C0.520667 9.09167 0.183334 8.4 0.0500005 7.6C0.0166671 7.43333 0.0540005 7.29167 0.162 7.175C0.270667 7.05833 0.416667 7 0.6 7H3V5.85C2.25 5.65 1.604 5.25833 1.062 4.675C0.520667 4.09167 0.183334 3.4 0.0500005 2.6C0.0166671 2.43333 0.0540005 2.29167 0.162 2.175C0.270667 2.05833 0.416667 2 0.6 2H3C3 1.45 3.196 0.979 3.588 0.587C3.97933 0.195667 4.45 0 5 0H11C11.55 0 12.021 0.195667 12.413 0.587C12.8043 0.979 13 1.45 13 2H15.4C15.5833 2 15.729 2.05833 15.837 2.175C15.9457 2.29167 15.9833 2.43333 15.95 2.6C15.8167 3.4 15.4793 4.09167 14.938 4.675C14.396 5.25833 13.75 5.65 13 5.85V7H15.4C15.5833 7 15.729 7.05833 15.837 7.175C15.9457 7.29167 15.9833 7.43333 15.95 7.6C15.8167 8.4 15.4793 9.09167 14.938 9.675C14.396 10.2583 13.75 10.65 13 10.85V12H15.4C15.5833 12 15.729 12.0583 15.837 12.175C15.9457 12.2917 15.9833 12.4333 15.95 12.6C15.8167 13.4 15.4793 14.0917 14.938 14.675C14.396 15.2583 13.75 15.65 13 15.85V16C13 16.55 12.8043 17.021 12.413 17.413C12.021 17.8043 11.55 18 11 18H5Z" fill="black"/>
</svg>
