<svg width="183" height="13" viewBox="0 0 183 13" fill="none" xmlns="http://www.w3.org/2000/svg">
<path d="M4.13636 12H0.0113636V0.363636H4.17045C5.34091 0.363636 6.34848 0.596591 7.19318 1.0625C8.03788 1.52462 8.6875 2.18939 9.14205 3.05682C9.60038 3.92424 9.82955 4.96212 9.82955 6.17045C9.82955 7.38258 9.60038 8.42424 9.14205 9.29545C8.6875 10.1667 8.03409 10.8352 7.18182 11.3011C6.33333 11.767 5.31818 12 4.13636 12ZM2.47159 9.89205H4.03409C4.76136 9.89205 5.37311 9.76326 5.86932 9.50568C6.36932 9.24432 6.74432 8.84091 6.99432 8.29545C7.24811 7.74621 7.375 7.03788 7.375 6.17045C7.375 5.31061 7.24811 4.60795 6.99432 4.0625C6.74432 3.51705 6.37121 3.11553 5.875 2.85795C5.37879 2.60038 4.76705 2.47159 4.03977 2.47159H2.47159V9.89205ZM13.0014 12H10.3651L14.3821 0.363636H17.5526L21.5639 12H18.9276L16.0128 3.02273H15.9219L13.0014 12ZM12.8366 7.42614H19.0639V9.34659H12.8366V7.42614ZM21.0994 2.39205V0.363636H30.6562V2.39205H27.0938V12H24.6619V2.39205H21.0994ZM32.8139 12H30.1776L34.1946 0.363636H37.3651L41.3764 12H38.7401L35.8253 3.02273H35.7344L32.8139 12ZM32.6491 7.42614H38.8764V9.34659H32.6491V7.42614ZM57.1733 6.18182C57.1733 7.45076 56.9328 8.5303 56.4517 9.42045C55.9744 10.3106 55.3229 10.9905 54.4972 11.4602C53.6752 11.9261 52.7509 12.1591 51.7244 12.1591C50.6903 12.1591 49.7623 11.9242 48.9403 11.4545C48.1184 10.9848 47.4688 10.3049 46.9915 9.41477C46.5142 8.52462 46.2756 7.44697 46.2756 6.18182C46.2756 4.91288 46.5142 3.83333 46.9915 2.94318C47.4688 2.05303 48.1184 1.375 48.9403 0.909091C49.7623 0.439394 50.6903 0.204545 51.7244 0.204545C52.7509 0.204545 53.6752 0.439394 54.4972 0.909091C55.3229 1.375 55.9744 2.05303 56.4517 2.94318C56.9328 3.83333 57.1733 4.91288 57.1733 6.18182ZM54.679 6.18182C54.679 5.35985 54.5559 4.66667 54.3097 4.10227C54.0672 3.53788 53.7244 3.10985 53.2812 2.81818C52.8381 2.52652 52.3191 2.38068 51.7244 2.38068C51.1297 2.38068 50.6108 2.52652 50.1676 2.81818C49.7244 3.10985 49.3797 3.53788 49.1335 4.10227C48.8911 4.66667 48.7699 5.35985 48.7699 6.18182C48.7699 7.00379 48.8911 7.69697 49.1335 8.26136C49.3797 8.82576 49.7244 9.25379 50.1676 9.54545C50.6108 9.83712 51.1297 9.98295 51.7244 9.98295C52.3191 9.98295 52.8381 9.83712 53.2812 9.54545C53.7244 9.25379 54.0672 8.82576 54.3097 8.26136C54.5559 7.69697 54.679 7.00379 54.679 6.18182ZM58.9957 12V0.363636H63.5866C64.4654 0.363636 65.2154 0.520833 65.8366 0.835227C66.4616 1.14583 66.937 1.58712 67.2628 2.15909C67.5923 2.72727 67.7571 3.39583 67.7571 4.16477C67.7571 4.9375 67.5904 5.60227 67.2571 6.15909C66.9238 6.71212 66.4408 7.13636 65.8082 7.43182C65.1795 7.72727 64.4181 7.875 63.5241 7.875H60.4503V5.89773H63.1264C63.5961 5.89773 63.9863 5.83333 64.2969 5.70455C64.6075 5.57576 64.8385 5.38258 64.9901 5.125C65.1454 4.86742 65.223 4.54735 65.223 4.16477C65.223 3.77841 65.1454 3.45265 64.9901 3.1875C64.8385 2.92235 64.6056 2.72159 64.2912 2.58523C63.9806 2.44508 63.5885 2.375 63.1151 2.375H61.456V12H58.9957ZM65.2798 6.70455L68.1719 12H65.456L62.6264 6.70455H65.2798ZM79.7628 4.4375H77.2741C77.2287 4.11553 77.1359 3.82955 76.9957 3.57955C76.8556 3.32576 76.6757 3.10985 76.456 2.93182C76.2363 2.75379 75.9825 2.61742 75.6946 2.52273C75.4105 2.42803 75.1018 2.38068 74.7685 2.38068C74.1662 2.38068 73.6416 2.5303 73.1946 2.82955C72.7476 3.125 72.401 3.55682 72.1548 4.125C71.9086 4.68939 71.7855 5.375 71.7855 6.18182C71.7855 7.01136 71.9086 7.70833 72.1548 8.27273C72.4048 8.83712 72.7533 9.26326 73.2003 9.55114C73.6473 9.83902 74.1643 9.98295 74.7514 9.98295C75.081 9.98295 75.3859 9.93939 75.6662 9.85227C75.9503 9.76515 76.2022 9.63826 76.4219 9.47159C76.6416 9.30114 76.8234 9.0947 76.9673 8.85227C77.1151 8.60985 77.2173 8.33333 77.2741 8.02273L79.7628 8.03409C79.6984 8.56818 79.5374 9.08333 79.2798 9.57955C79.026 10.072 78.6832 10.5133 78.2514 10.9034C77.8234 11.2898 77.312 11.5966 76.7173 11.8239C76.1264 12.0473 75.4579 12.1591 74.7116 12.1591C73.6738 12.1591 72.7457 11.9242 71.9276 11.4545C71.1132 10.9848 70.4692 10.3049 69.9957 9.41477C69.526 8.52462 69.2912 7.44697 69.2912 6.18182C69.2912 4.91288 69.5298 3.83333 70.0071 2.94318C70.4844 2.05303 71.1321 1.375 71.9503 0.909091C72.7685 0.439394 73.6889 0.204545 74.7116 0.204545C75.3859 0.204545 76.0109 0.299242 76.5866 0.488636C77.1662 0.67803 77.6795 0.954545 78.1264 1.31818C78.5734 1.67803 78.937 2.11932 79.2173 2.64205C79.5014 3.16477 79.6832 3.76326 79.7628 4.4375ZM81.527 12V0.363636H83.9872V5.16477H88.9815V0.363636H91.4361V12H88.9815V7.19318H83.9872V12H81.527ZM93.4645 12V0.363636H101.305V2.39205H95.9247V5.16477H100.902V7.19318H95.9247V9.97159H101.328V12H93.4645ZM109.574 3.71023C109.528 3.25189 109.333 2.89583 108.989 2.64205C108.644 2.38826 108.176 2.26136 107.585 2.26136C107.184 2.26136 106.845 2.31818 106.568 2.43182C106.292 2.54167 106.08 2.69508 105.932 2.89205C105.788 3.08902 105.716 3.3125 105.716 3.5625C105.708 3.77083 105.752 3.95265 105.847 4.10795C105.945 4.26326 106.08 4.39773 106.25 4.51136C106.42 4.62121 106.617 4.7178 106.841 4.80114C107.064 4.88068 107.303 4.94886 107.557 5.00568L108.602 5.25568C109.11 5.36932 109.576 5.52083 110 5.71023C110.424 5.89962 110.792 6.13258 111.102 6.40909C111.413 6.68561 111.653 7.01136 111.824 7.38636C111.998 7.76136 112.087 8.19129 112.091 8.67614C112.087 9.38826 111.905 10.0057 111.545 10.5284C111.189 11.0473 110.674 11.4508 110 11.7386C109.33 12.0227 108.521 12.1648 107.574 12.1648C106.634 12.1648 105.816 12.0208 105.119 11.733C104.426 11.4451 103.884 11.0189 103.494 10.4545C103.108 9.88636 102.905 9.18371 102.886 8.34659H105.267C105.294 8.73674 105.405 9.0625 105.602 9.32386C105.803 9.58144 106.07 9.77652 106.403 9.90909C106.741 10.0379 107.121 10.1023 107.545 10.1023C107.962 10.1023 108.324 10.0417 108.631 9.92045C108.941 9.79924 109.182 9.63068 109.352 9.41477C109.523 9.19886 109.608 8.95076 109.608 8.67045C109.608 8.40909 109.53 8.18939 109.375 8.01136C109.223 7.83333 109 7.68182 108.705 7.55682C108.413 7.43182 108.055 7.31818 107.631 7.21591L106.364 6.89773C105.383 6.65909 104.608 6.28598 104.04 5.77841C103.472 5.27083 103.189 4.58712 103.193 3.72727C103.189 3.02273 103.377 2.4072 103.756 1.88068C104.138 1.35417 104.663 0.943182 105.33 0.647727C105.996 0.352272 106.754 0.204545 107.602 0.204545C108.466 0.204545 109.22 0.352272 109.864 0.647727C110.511 0.943182 111.015 1.35417 111.375 1.88068C111.735 2.4072 111.92 3.01705 111.932 3.71023H109.574ZM113.303 2.39205V0.363636H122.859V2.39205H119.297V12H116.865V2.39205H113.303ZM124.433 12V0.363636H129.024C129.903 0.363636 130.653 0.520833 131.274 0.835227C131.899 1.14583 132.375 1.58712 132.7 2.15909C133.03 2.72727 133.195 3.39583 133.195 4.16477C133.195 4.9375 133.028 5.60227 132.695 6.15909C132.361 6.71212 131.878 7.13636 131.246 7.43182C130.617 7.72727 129.856 7.875 128.962 7.875H125.888V5.89773H128.564C129.034 5.89773 129.424 5.83333 129.734 5.70455C130.045 5.57576 130.276 5.38258 130.428 5.125C130.583 4.86742 130.661 4.54735 130.661 4.16477C130.661 3.77841 130.583 3.45265 130.428 3.1875C130.276 2.92235 130.043 2.72159 129.729 2.58523C129.418 2.44508 129.026 2.375 128.553 2.375H126.893V12H124.433ZM130.717 6.70455L133.609 12H130.893L128.064 6.70455H130.717ZM136.939 12H134.303L138.32 0.363636H141.49L145.501 12H142.865L139.95 3.02273H139.859L136.939 12ZM136.774 7.42614H143.001V9.34659H136.774V7.42614ZM145.037 2.39205V0.363636H154.594V2.39205H151.031V12H148.599V2.39205H145.037ZM158.628 0.363636V12H156.168V0.363636H158.628ZM171.345 6.18182C171.345 7.45076 171.105 8.5303 170.624 9.42045C170.146 10.3106 169.495 10.9905 168.669 11.4602C167.847 11.9261 166.923 12.1591 165.896 12.1591C164.862 12.1591 163.934 11.9242 163.112 11.4545C162.29 10.9848 161.641 10.3049 161.163 9.41477C160.686 8.52462 160.447 7.44697 160.447 6.18182C160.447 4.91288 160.686 3.83333 161.163 2.94318C161.641 2.05303 162.29 1.375 163.112 0.909091C163.934 0.439394 164.862 0.204545 165.896 0.204545C166.923 0.204545 167.847 0.439394 168.669 0.909091C169.495 1.375 170.146 2.05303 170.624 2.94318C171.105 3.83333 171.345 4.91288 171.345 6.18182ZM168.851 6.18182C168.851 5.35985 168.728 4.66667 168.482 4.10227C168.239 3.53788 167.896 3.10985 167.453 2.81818C167.01 2.52652 166.491 2.38068 165.896 2.38068C165.302 2.38068 164.783 2.52652 164.339 2.81818C163.896 3.10985 163.552 3.53788 163.305 4.10227C163.063 4.66667 162.942 5.35985 162.942 6.18182C162.942 7.00379 163.063 7.69697 163.305 8.26136C163.552 8.82576 163.896 9.25379 164.339 9.54545C164.783 9.83712 165.302 9.98295 165.896 9.98295C166.491 9.98295 167.01 9.83712 167.453 9.54545C167.896 9.25379 168.239 8.82576 168.482 8.26136C168.728 7.69697 168.851 7.00379 168.851 6.18182ZM182.901 0.363636V12H180.776L175.713 4.67614H175.628V12H173.168V0.363636H175.327L180.349 7.68182H180.452V0.363636H182.901Z" fill="white"/>
</svg>
