<svg width="30" height="30" viewBox="0 0 30 30" fill="none" xmlns="http://www.w3.org/2000/svg">
<g clip-path="url(#clip0_2415_2737)">
<path fill-rule="evenodd" clip-rule="evenodd" d="M15.0031 29.9997C14.7747 29.9997 14.5879 29.8128 14.5879 29.5913V24.2765C14.5879 24.0481 14.7747 23.8682 15.0031 23.8682C15.2246 23.8682 15.4114 24.0481 15.4114 24.2765V29.5913C15.4114 29.8128 15.2246 29.9997 15.0031 29.9997Z" fill="#474449"/>
<path fill-rule="evenodd" clip-rule="evenodd" d="M17.052 24.6854H12.9482C12.1524 24.6854 11.5088 24.0419 11.5088 23.246V22.2218C11.5088 21.9934 11.6956 21.8135 11.9171 21.8135H18.0832C18.3116 21.8135 18.4915 21.9934 18.4915 22.2218V23.2529C18.4915 24.0419 17.8479 24.6854 17.052 24.6854Z" fill="#58535A"/>
<path fill-rule="evenodd" clip-rule="evenodd" d="M20.6296 7.32889H19.1417C18.9133 7.32889 18.7334 7.14896 18.7334 6.92058V2.39463C18.7334 2.17318 18.9133 1.98633 19.1417 1.98633H22.1175C22.249 1.98633 22.3735 2.04861 22.4497 2.15934C22.5258 2.26314 22.5465 2.40155 22.505 2.52612L21.0171 7.05207C20.9618 7.21816 20.8095 7.32889 20.6296 7.32889Z" fill="#58535A"/>
<path fill-rule="evenodd" clip-rule="evenodd" d="M20.6296 13.9861H19.1417C18.9133 13.9861 18.7334 13.8062 18.7334 13.5778V9.05186C18.7334 8.83041 18.9133 8.64355 19.1417 8.64355H22.1175C22.249 8.64355 22.3735 8.70584 22.4497 8.81657C22.5258 8.92037 22.5465 9.05878 22.505 9.18335L21.0171 13.7093C20.9618 13.8754 20.8095 13.9861 20.6296 13.9861Z" fill="#58535A"/>
<path fill-rule="evenodd" clip-rule="evenodd" d="M20.6296 20.6433H19.1417C18.9133 20.6433 18.7334 20.4634 18.7334 20.235V15.7091C18.7334 15.4876 18.9133 15.3008 19.1417 15.3008H22.1175C22.249 15.3008 22.3735 15.3631 22.4497 15.4738C22.5258 15.5776 22.5465 15.716 22.505 15.8406L21.0171 20.3665C20.9618 20.5326 20.8095 20.6433 20.6296 20.6433Z" fill="#58535A"/>
<path fill-rule="evenodd" clip-rule="evenodd" d="M10.858 7.32889H9.37009C9.19016 7.32889 9.03791 7.21816 8.98255 7.04515L7.49466 2.52612C7.45314 2.40155 7.4739 2.26314 7.55002 2.15934C7.62615 2.04861 7.75071 1.98633 7.8822 1.98633H10.858C11.0794 1.98633 11.2663 2.16626 11.2663 2.39463V6.92058C11.2663 7.14896 11.0864 7.32889 10.858 7.32889Z" fill="#58535A"/>
<path fill-rule="evenodd" clip-rule="evenodd" d="M10.858 13.9861H9.37009C9.19016 13.9861 9.03791 13.8754 8.98255 13.7093L7.49466 9.18335C7.45314 9.05878 7.4739 8.92037 7.55002 8.81657C7.62615 8.70584 7.75071 8.64355 7.8822 8.64355H10.858C11.0794 8.64355 11.2663 8.82349 11.2663 9.05186V13.5778C11.2663 13.8062 11.0864 13.9861 10.858 13.9861Z" fill="#58535A"/>
<path fill-rule="evenodd" clip-rule="evenodd" d="M10.858 20.6433H9.37009C9.19016 20.6433 9.03791 20.5326 8.98255 20.3665L7.49466 15.8406C7.45314 15.716 7.4739 15.5776 7.55002 15.4738C7.62615 15.3631 7.75071 15.3008 7.8822 15.3008H10.858C11.0794 15.3008 11.2663 15.4876 11.2663 15.7091V20.235C11.2663 20.4634 11.0864 20.6433 10.858 20.6433Z" fill="#58535A"/>
<path fill-rule="evenodd" clip-rule="evenodd" d="M18.0824 22.6367H11.9163C11.1067 22.6367 10.4492 21.9723 10.4492 21.1626V1.47405C10.4492 0.657439 11.1067 0 11.9163 0H18.0824C18.8921 0 19.5496 0.66436 19.5496 1.47405V21.1626C19.5496 21.9723 18.8921 22.6367 18.0824 22.6367Z" fill="#333333"/>
<path fill-rule="evenodd" clip-rule="evenodd" d="M15.0038 7.28678C13.5505 7.28678 12.374 6.1103 12.374 4.65702C12.374 3.21065 13.5505 2.03418 15.0038 2.03418C16.4501 2.03418 17.6266 3.21065 17.6266 4.65702C17.6266 6.10338 16.4501 7.28678 15.0038 7.28678Z" fill="#FF3131"/>
<path fill-rule="evenodd" clip-rule="evenodd" d="M15.0038 13.945C13.5505 13.945 12.374 12.7616 12.374 11.3152C12.374 9.86885 13.5505 8.69238 15.0038 8.69238C16.4501 8.69238 17.6266 9.86885 17.6266 11.3152C17.6266 12.7616 16.4501 13.945 15.0038 13.945Z" fill="#FFA721"/>
<path fill-rule="evenodd" clip-rule="evenodd" d="M15.0038 20.6022C13.5505 20.6022 12.374 19.4257 12.374 17.9794C12.374 16.5261 13.5505 15.3496 15.0038 15.3496C16.4501 15.3496 17.6266 16.5261 17.6266 17.9794C17.6266 19.4188 16.4501 20.6022 15.0038 20.6022Z" fill="#7DD63E"/>
</g>
<defs>
<clipPath id="clip0_2415_2737">
<rect width="30" height="30" fill="white"/>
</clipPath>
</defs>
</svg>
