<svg width="30" height="36" viewBox="0 0 30 36" fill="none" xmlns="http://www.w3.org/2000/svg">
<path d="M0 17.6534C1.56675 17.6534 2.91077 17.7154 4.24711 17.6534C5.17256 17.5953 5.61801 17.9092 5.99818 18.781C7.5342 22.2684 9.16624 25.6899 10.8789 29.3942C11.8888 27.2282 12.7989 25.2753 13.7206 23.3107C17.1305 15.9485 20.5597 8.58626 23.9236 1.17366C24.3422 0.251448 24.826 -0.0662904 25.786 0.0112068C27.0763 0.0887039 28.3742 0.0112068 29.676 0.0112068C29.845 0.619559 29.461 1.02642 29.2613 1.45653C24.2078 12.4224 19.1491 23.3856 14.0853 34.3463C13.7474 35.0864 13.3711 35.4003 12.5493 35.3499C11.1208 35.2646 9.44271 35.7374 8.32525 35.1407C7.2078 34.5439 6.96587 32.7034 6.35914 31.4014C4.26247 26.8911 2.18884 22.3846 0 17.6534Z" fill="#EC1F25"/>
</svg>
