<svg width="22" height="18" viewBox="0 0 22 18" fill="none" xmlns="http://www.w3.org/2000/svg">
<path d="M0.536945 6.77482L1.09733 5.79593C1.12252 5.75277 1.16376 5.72134 1.21206 5.70849C1.26034 5.69564 1.31175 5.70243 1.35506 5.72736L2.55386 6.42725L4.40525 1.31522C4.503 1.01018 4.69516 0.744106 4.95399 0.555404C5.21281 0.366703 5.52492 0.26514 5.84523 0.265381L16.0906 0.265381C16.911 0.265381 17.6393 0.795027 17.8923 1.57767L19.6562 6.42961L20.8574 5.72972C20.9007 5.70479 20.9521 5.69801 21.0004 5.71086C21.0487 5.7237 21.0899 5.75514 21.1151 5.79829L21.6755 6.77482C21.7275 6.86468 21.6968 6.97817 21.6069 7.03019L20.1788 7.86249L20.5216 8.80829C20.55 8.88395 20.5642 8.96434 20.5642 9.04474V17.2779C20.5642 17.6491 20.2852 17.9494 19.9423 17.9494H18.3439C18.0531 17.9494 17.8001 17.7295 17.7386 17.4221L17.5566 16.5307H4.65589L4.47382 17.4221C4.40998 17.7295 4.15935 17.9494 3.86851 17.9494H2.27012C1.92727 17.9494 1.64826 17.6491 1.64826 17.2779V9.04474C1.64826 8.96434 1.66244 8.88395 1.69082 8.80829L2.03367 7.86249L0.60788 7.03019C0.564959 7.0054 0.533478 6.96476 0.520212 6.91701C0.506947 6.86925 0.512955 6.8182 0.536945 6.77482ZM16.9702 11.6835C17.4927 11.6835 17.916 11.2603 17.916 10.7377C17.916 10.2152 17.4927 9.79191 16.9702 9.79191C16.4476 9.79191 16.0244 10.2152 16.0244 10.7377C16.0244 11.2603 16.4476 11.6835 16.9702 11.6835ZM7.79593 13.4569C7.79593 13.5609 7.88105 13.646 7.98509 13.646H14.2273C14.3314 13.646 14.4165 13.5609 14.4165 13.4569V11.4707C14.4165 11.3667 14.3314 11.2815 14.2273 11.2815H13.2816C13.1775 11.2815 13.0924 11.3667 13.0924 11.4707V12.3219H9.12005V11.4707C9.12005 11.3667 9.03493 11.2815 8.93089 11.2815H7.98509C7.88105 11.2815 7.79593 11.3667 7.79593 11.4707V13.4569ZM5.24228 11.6835C5.76483 11.6835 6.18808 11.2603 6.18808 10.7377C6.18808 10.2152 5.76483 9.79191 5.24228 9.79191C4.71973 9.79191 4.29649 10.2152 4.29649 10.7377C4.29649 11.2603 4.71973 11.6835 5.24228 11.6835ZM18.0105 6.88359L16.2915 2.15697L16.2797 2.12624L16.2703 2.0955C16.2443 2.01747 16.1733 1.96545 16.0906 1.96545L5.98 1.96545L4.19718 6.88359L18.0105 6.88359Z" fill="#FF9900"/>
</svg>
