<svg width="20" height="19" viewBox="0 0 20 19" fill="none" xmlns="http://www.w3.org/2000/svg">
<path d="M15 10C13.6167 10 12.4377 9.51233 11.463 8.537C10.4877 7.56233 10 6.38333 10 5C10 3.63333 10.4833 2.45833 11.45 1.475C12.4167 0.491667 13.6 0 15 0C16.3833 0 17.5627 0.487333 18.538 1.462C19.5127 2.43733 20 3.61667 20 5C20 6.38333 19.5127 7.56233 18.538 8.537C17.5627 9.51233 16.3833 10 15 10ZM14.5 6H15.5V2H14.5V6ZM15 8C15.1333 8 15.25 7.95 15.35 7.85C15.45 7.75 15.5 7.63333 15.5 7.5C15.5 7.36667 15.45 7.25 15.35 7.15C15.25 7.05 15.1333 7 15 7C14.8667 7 14.75 7.05 14.65 7.15C14.55 7.25 14.5 7.36667 14.5 7.5C14.5 7.63333 14.55 7.75 14.65 7.85C14.75 7.95 14.8667 8 15 8ZM4.5 14C4.91667 14 5.27067 13.854 5.562 13.562C5.854 13.2707 6 12.9167 6 12.5C6 12.0833 5.854 11.7293 5.562 11.438C5.27067 11.146 4.91667 11 4.5 11C4.08333 11 3.72933 11.146 3.438 11.438C3.146 11.7293 3 12.0833 3 12.5C3 12.9167 3.146 13.2707 3.438 13.562C3.72933 13.854 4.08333 14 4.5 14ZM0 19V10L2.45 3H8.3C8.2 3.31667 8.125 3.64167 8.075 3.975C8.025 4.30833 8 4.65 8 5H3.85L2.8 8H8.675C9.05833 8.8 9.575 9.49567 10.225 10.087C10.875 10.679 11.6 11.15 12.4 11.5C12.2667 11.6333 12.1667 11.7873 12.1 11.962C12.0333 12.1373 12 12.3167 12 12.5C12 12.9167 12.146 13.2707 12.438 13.562C12.7293 13.854 13.0833 14 13.5 14C13.9167 14 14.2707 13.854 14.562 13.562C14.854 13.2707 15 12.9167 15 12.5C15 12.4167 14.996 12.3333 14.988 12.25C14.9793 12.1667 14.9583 12.0833 14.925 12C15.4583 12.0167 15.9833 11.9667 16.5 11.85C17.0167 11.7333 17.5167 11.5583 18 11.325V19H15V17H3V19H0Z" fill="black"/>
</svg>
