<svg width="16" height="11" viewBox="0 0 16 11" fill="none" xmlns="http://www.w3.org/2000/svg">
<path d="M14.6445 3.5625H13.0312L12.5664 2.44141C12.1016 1.26562 10.9805 0.5 9.72266 0.5H6.25C4.99219 0.5 3.87109 1.26562 3.40625 2.44141L2.94141 3.5625H1.32812C1.10938 3.5625 0.945312 3.78125 1 3.97266L1.16406 4.62891C1.19141 4.79297 1.32812 4.875 1.49219 4.875H2.03906C1.65625 5.20312 1.4375 5.66797 1.4375 6.1875V7.5C1.4375 7.96484 1.60156 8.34766 1.875 8.64844V10.125C1.875 10.6172 2.25781 11 2.75 11H3.625C4.08984 11 4.5 10.6172 4.5 10.125V9.25H11.5V10.125C11.5 10.6172 11.8828 11 12.375 11H13.25C13.7148 11 14.125 10.6172 14.125 10.125V8.64844C14.3711 8.34766 14.5625 7.96484 14.5625 7.5V6.1875C14.5625 5.66797 14.3164 5.20312 13.9336 4.875H14.5078C14.6445 4.875 14.7812 4.79297 14.8086 4.62891L14.9727 3.97266C15.0273 3.78125 14.8633 3.5625 14.6445 3.5625ZM5.01953 3.09766C5.23828 2.57812 5.70312 2.25 6.25 2.25H9.72266C10.2695 2.25 10.7344 2.57812 10.9531 3.09766L11.5 4.4375H4.5L5.01953 3.09766ZM3.625 7.5C3.07812 7.5 2.75 7.17188 2.75 6.625C2.75 6.10547 3.07812 5.75 3.625 5.75C4.14453 5.75 4.9375 6.54297 4.9375 7.0625C4.9375 7.58203 4.14453 7.5 3.625 7.5ZM12.375 7.5C11.8281 7.5 11.0625 7.58203 11.0625 7.0625C11.0625 6.54297 11.8281 5.75 12.375 5.75C12.8945 5.75 13.25 6.10547 13.25 6.625C13.25 7.17188 12.8945 7.5 12.375 7.5Z" fill="white"/>
</svg>
