<svg xmlns="http://www.w3.org/2000/svg" width="168.298" height="37.312" viewBox="0 0 168.298 37.312">
  <g id="Verizon_2015_logo_-vector" transform="translate(-1)">
    <path id="Path_1" data-name="Path 1" d="M596.09,0,586.9,19.668l-3.457-7.452H579.7l5.685,12.19h3.022L599.8,0Z" transform="translate(-430.502)" fill="#d52b1e"/>
    <path id="Path_2" data-name="Path 2" d="M126.15,46.858h7.4V33.311c0-3.1,1.793-5.275,4.456-5.275,2.561,0,3.893,1.793,3.893,4.379V46.858h7.4V31.007c0-5.378-3.227-9.168-8.451-9.168a8.338,8.338,0,0,0-7.4,4.046h-.154V22.556h-7.17l.026,24.3ZM111.6,21.89c-7.734,0-12.907,5.557-12.907,12.881,0,7.273,5.173,12.881,12.907,12.881s12.907-5.608,12.907-12.881C124.537,27.447,119.338,21.89,111.6,21.89Zm-.051,20.282c-3.508,0-5.378-2.945-5.378-7.4,0-4.507,1.844-7.4,5.378-7.4,3.508,0,5.455,2.894,5.455,7.4.029,4.455-1.917,7.4-5.451,7.4ZM77.6,46.858H98.39V41.02H86.61v-.154L97.878,28.241V22.53H77.6v5.864H89v.154L77.6,41.276v5.583Zm-9.5,0h7.452v-24.3H68.1Zm-17.286,0h7.427V35.693c0-5.071,3.047-7.324,7.683-6.684h.154v-6.4a4.042,4.042,0,0,0-1.511-.179c-2.894,0-4.84,1.332-6.5,4.174H57.9V22.556H50.809v24.3ZM37.185,42.2c-3.278,0-5.275-2.126-5.66-5.4H49.042c.051-5.224-1.332-9.4-4.225-12.011a11.552,11.552,0,0,0-8.169-2.945c-7.324,0-12.4,5.557-12.4,12.83,0,7.324,4.84,12.907,12.881,12.907A12.834,12.834,0,0,0,44.586,45.4a9.558,9.558,0,0,0,4.072-5.736H41.539A4.372,4.372,0,0,1,37.185,42.2ZM36.8,27.14c2.612,0,4.4,1.946,4.712,4.789H31.577C32.166,29.06,33.728,27.14,36.8,27.14ZM9.451,46.858h7.785l8.451-24.3H18.235L13.5,38.177h-.1L8.657,22.556H1ZM68.1,13.9h7.452v6.607H68.1Z" transform="translate(0 -10.34)" fill="#fff"/>
  </g>
</svg>
