<svg width="240" height="81" viewBox="0 0 240 81" fill="none" xmlns="http://www.w3.org/2000/svg">
<g clip-path="url(#clip0_2_159)">
<path d="M43.5693 38.4541C43.6538 42.1352 45.7121 44.9018 48.9454 45.8977C52.1787 46.8935 55.2892 45.9209 57.2591 43.2899C57.5122 42.9099 57.902 42.6444 58.3459 42.5498C61.0339 42.4878 63.722 42.5149 66.41 42.5227C66.794 42.5227 67.1588 42.5769 67.9691 42.6389C67.2625 44.1269 66.8171 45.5567 65.9914 46.7114C61.5562 52.9344 55.2739 54.6703 48.1045 53.6861C37.9245 52.2873 32.318 43.7316 33.1282 33.7345C33.7004 26.7365 36.9068 21.335 43.4234 18.5373C53.1311 14.3951 65.6458 18.2506 67.8193 32.2465C68.0651 33.8159 68.138 35.4123 68.3531 36.9894C68.5067 38.1325 68.138 38.4889 66.9591 38.4812C59.7706 38.4269 52.5819 38.4541 45.3895 38.4541H43.5693ZM57.4819 31.4793C57.1939 28.7669 56.207 26.6358 53.8953 25.4229C51.4415 24.1442 48.9531 24.4271 46.676 25.915C44.7329 27.186 43.8381 29.1234 43.5732 31.4793H57.4819Z" fill="black"/>
<path d="M156.893 53.9962C145.688 53.8295 138.346 45.1382 138.945 34.3274C139.494 24.4659 146.825 16.7743 158.145 17.092C168.794 17.3981 176.232 25.5431 175.648 36.8964C175.134 46.9052 167.642 54.1938 156.893 53.9962ZM165.023 35.1179C164.942 34.3429 164.881 33.3238 164.727 32.3241C164.604 31.6113 164.427 30.9091 164.197 30.2239C163.195 27.124 160.899 25.2137 157.98 24.9967C154.789 24.7642 152.266 25.9344 150.953 28.922C148.971 33.4323 148.979 38.0434 151.133 42.5033C152.324 44.9716 154.49 46.1651 157.212 46.1534C159.935 46.1418 161.997 44.991 163.379 42.6041C164.677 40.3567 164.965 37.8806 165.023 35.1179Z" fill="black"/>
<path d="M188.428 52.8182H178.094V18.2002H188.098V22.4625L188.42 22.6098C188.666 22.3192 188.923 22.0402 189.15 21.7379C194.257 14.9337 205.301 15.697 209.118 22.6447C210.364 24.9446 211.003 27.5293 210.973 30.1503C210.996 37.3071 210.973 44.4678 211.008 51.6247C211.008 52.6825 210.681 52.9499 209.706 52.9305C207.118 52.884 204.526 52.8647 201.937 52.9305C200.785 52.9615 200.367 52.6399 200.378 51.3806C200.444 45.1421 200.424 38.9036 200.378 32.665C200.39 31.6508 200.261 30.64 199.994 29.662C199.364 27.5076 197.84 26.2832 195.632 26.0119C194.557 25.8372 193.455 25.9748 192.455 26.4084C191.455 26.842 190.597 27.5539 189.983 28.4608C188.873 29.9914 188.482 31.7622 188.486 33.6493C188.486 39.6475 188.486 45.6613 188.486 51.6402C188.516 52.0161 188.459 52.3881 188.428 52.8182Z" fill="black"/>
<path d="M121.676 44.5143H123.443C128.051 44.5143 132.659 44.5376 137.267 44.5143C138.242 44.5143 138.645 44.7817 138.611 45.824C138.542 47.8041 138.561 49.788 138.611 51.7681C138.611 52.6399 138.346 52.9305 137.459 52.9305C128.447 52.8995 119.436 52.8995 110.425 52.9305C109.273 52.9305 108.835 52.5895 108.966 51.4426C109.054 50.818 109.054 50.184 108.966 49.5594C108.382 46.0992 109.787 43.5766 112.153 41.1316C116.377 36.7724 120.275 32.1264 124.31 27.5967C124.552 27.3216 124.775 27.031 125.144 26.5776C124.595 26.5273 124.241 26.473 123.888 26.473C119.38 26.473 114.875 26.4459 110.371 26.4963C109.334 26.4963 108.912 26.2599 108.962 25.1323C109.046 23.1949 109.012 21.2575 108.962 19.32C108.939 18.4056 109.211 18.0413 110.183 18.0413C119.002 18.0723 127.822 18.0723 136.641 18.0413C137.501 18.0413 137.839 18.3126 137.82 19.2038C137.774 21.2807 137.877 23.3615 137.762 25.4345C137.657 26.1316 137.34 26.7786 136.856 27.2867C132.133 32.6805 127.367 38.0395 122.617 43.4061C122.356 43.6696 122.156 43.9292 121.676 44.5143Z" fill="black"/>
<path d="M17.8064 40.0273C18.8304 36.6303 19.8544 33.2308 20.8784 29.8287C21.9613 26.2328 23.0212 22.6292 24.1463 19.0449C24.2654 18.6575 24.7377 18.1266 25.0564 18.1189C28.3013 18.0491 31.55 18.0762 35.0406 18.0762C34.2418 20.4438 33.5045 22.6176 32.7711 24.7836C29.699 33.657 26.627 42.5188 23.5857 51.4039C23.2017 52.516 22.7025 52.9809 21.4698 52.9306C18.7818 52.8221 16.0937 52.8608 13.4057 52.9306C12.3612 52.9538 11.8351 52.7058 11.4549 51.586C7.72235 40.6589 3.90917 29.755 0.122866 18.8435C0.064764 18.5878 0.0211855 18.3291 -0.0076828 18.0685H7.92205C10.7983 18.0685 10.8098 18.0685 11.6507 20.8623C13.4428 26.8037 15.2348 32.7451 17.0268 38.6866C17.1651 39.1399 17.3455 39.5817 17.503 40.0312L17.8064 40.0273Z" fill="black"/>
<path d="M81.1751 23.563L81.7588 22.6873C83.986 19.3239 87.035 17.5918 91.1131 17.8437C92.1115 17.9057 92.5455 18.2544 92.5148 19.3472C92.4418 21.9433 92.4917 24.5433 92.4917 27.2829C91.2206 27.2829 90.0878 27.186 88.9703 27.2829C84.6234 27.7285 81.8278 30.4525 81.5283 34.8815C81.2787 38.5897 81.3939 42.3212 81.3632 46.0449C81.3632 47.8816 81.3133 49.7183 81.3632 51.555C81.3978 52.5508 81.1059 52.915 80.0768 52.8918C77.3478 52.8324 74.6149 52.8324 71.8783 52.8918C70.9029 52.8918 70.6878 52.5624 70.6917 51.6247C70.7262 41.8097 70.6917 31.9947 70.7186 22.1758C70.7186 20.8816 70.3346 19.041 70.9797 18.4366C71.7477 17.7391 73.4872 18.0878 74.8197 18.0491C76.4518 18.0065 78.0838 18.0956 79.712 18.0258C80.6336 17.9832 80.864 18.3474 80.864 19.1883C80.8179 20.5755 80.864 21.9704 80.864 23.3615L81.1751 23.563Z" fill="black"/>
<path d="M95.4102 52.8995V50.9272C95.4102 40.5348 95.4102 30.1386 95.3795 19.7424C95.3795 18.4249 95.702 17.9793 97.0499 18.0374C99.5882 18.1459 102.134 18.1111 104.672 18.0374C105.702 18.0103 106.097 18.2583 106.093 19.3936C106.051 30.1774 106.062 40.9572 106.07 51.7409C106.07 52.3725 106.07 52.9034 105.218 52.9034C102.019 52.8918 98.8163 52.8995 95.4102 52.8995Z" fill="black"/>
<path d="M95.51 5.63019C98.8547 5.63019 102.038 5.63019 105.26 5.65731C105.533 5.65731 106.028 6.0448 106.028 6.24242C106.078 9.17568 106.062 12.1089 106.062 15.1236H95.51V5.63019Z" fill="black"/>
<path d="M210.282 17.6849C211.848 17.6849 213.193 17.7469 214.529 17.6849C215.454 17.6267 215.9 17.9406 216.28 18.8124C217.816 22.2998 219.448 25.7213 221.161 29.4257C222.171 27.2596 223.081 25.3067 224.002 23.3422C227.412 15.9799 230.841 8.6177 234.205 1.2051C234.624 0.282881 235.108 -0.0348573 236.068 0.0426399C237.358 0.120137 238.656 0.0426399 239.958 0.0426399C240.127 0.650992 239.743 1.05785 239.543 1.48796C234.49 12.4538 229.431 23.4171 224.367 34.3777C224.029 35.1178 223.653 35.4317 222.831 35.3813C221.403 35.2961 219.724 35.7688 218.607 35.1721C217.49 34.5754 217.248 32.7348 216.641 31.4328C214.544 26.9225 212.471 22.4161 210.282 17.6849Z" fill="#EC1F25"/>
</g>
<path d="M15.1364 77H11.0114V65.3636H15.1705C16.3409 65.3636 17.3485 65.5966 18.1932 66.0625C19.0379 66.5246 19.6875 67.1894 20.142 68.0568C20.6004 68.9242 20.8295 69.9621 20.8295 71.1705C20.8295 72.3826 20.6004 73.4242 20.142 74.2955C19.6875 75.1667 19.0341 75.8352 18.1818 76.3011C17.3333 76.767 16.3182 77 15.1364 77ZM13.4716 74.892H15.0341C15.7614 74.892 16.3731 74.7633 16.8693 74.5057C17.3693 74.2443 17.7443 73.8409 17.9943 73.2955C18.2481 72.7462 18.375 72.0379 18.375 71.1705C18.375 70.3106 18.2481 69.608 17.9943 69.0625C17.7443 68.517 17.3712 68.1155 16.875 67.858C16.3788 67.6004 15.767 67.4716 15.0398 67.4716H13.4716V74.892ZM24.9614 77H22.3251L26.3421 65.3636H29.5126L33.5239 77H30.8876L27.9728 68.0227H27.8819L24.9614 77ZM24.7966 72.4261H31.0239V74.3466H24.7966V72.4261ZM34.0194 67.392V65.3636H43.5763V67.392H40.0138V77H37.5819V67.392H34.0194ZM46.6939 77H44.0576L48.0746 65.3636H51.2451L55.2564 77H52.6201L49.7053 68.0227H49.6144L46.6939 77ZM46.5291 72.4261H52.7564V74.3466H46.5291V72.4261ZM72.9733 71.1818C72.9733 72.4508 72.7328 73.5303 72.2517 74.4205C71.7744 75.3106 71.1229 75.9905 70.2972 76.4602C69.4752 76.9261 68.5509 77.1591 67.5244 77.1591C66.4903 77.1591 65.5623 76.9242 64.7403 76.4545C63.9184 75.9848 63.2687 75.3049 62.7915 74.4148C62.3142 73.5246 62.0756 72.447 62.0756 71.1818C62.0756 69.9129 62.3142 68.8333 62.7915 67.9432C63.2687 67.053 63.9184 66.375 64.7403 65.9091C65.5623 65.4394 66.4903 65.2045 67.5244 65.2045C68.5509 65.2045 69.4752 65.4394 70.2972 65.9091C71.1229 66.375 71.7744 67.053 72.2517 67.9432C72.7328 68.8333 72.9733 69.9129 72.9733 71.1818ZM70.479 71.1818C70.479 70.3598 70.3559 69.6667 70.1097 69.1023C69.8672 68.5379 69.5244 68.1098 69.0812 67.8182C68.6381 67.5265 68.1191 67.3807 67.5244 67.3807C66.9297 67.3807 66.4108 67.5265 65.9676 67.8182C65.5244 68.1098 65.1797 68.5379 64.9335 69.1023C64.6911 69.6667 64.5699 70.3598 64.5699 71.1818C64.5699 72.0038 64.6911 72.697 64.9335 73.2614C65.1797 73.8258 65.5244 74.2538 65.9676 74.5455C66.4108 74.8371 66.9297 74.983 67.5244 74.983C68.1191 74.983 68.6381 74.8371 69.0812 74.5455C69.5244 74.2538 69.8672 73.8258 70.1097 73.2614C70.3559 72.697 70.479 72.0038 70.479 71.1818ZM75.7557 77V65.3636H80.3467C81.2254 65.3636 81.9754 65.5208 82.5967 65.8352C83.2217 66.1458 83.697 66.5871 84.0228 67.1591C84.3523 67.7273 84.5171 68.3958 84.5171 69.1648C84.5171 69.9375 84.3504 70.6023 84.0171 71.1591C83.6838 71.7121 83.2008 72.1364 82.5682 72.4318C81.9395 72.7273 81.1781 72.875 80.2842 72.875H77.2103V70.8977H79.8864C80.3561 70.8977 80.7463 70.8333 81.0569 70.7045C81.3675 70.5758 81.5985 70.3826 81.7501 70.125C81.9054 69.8674 81.983 69.5473 81.983 69.1648C81.983 68.7784 81.9054 68.4527 81.7501 68.1875C81.5985 67.9223 81.3656 67.7216 81.0512 67.5852C80.7406 67.4451 80.3485 67.375 79.8751 67.375H78.216V77H75.7557ZM82.0398 71.7045L84.9319 77H82.216L79.3864 71.7045H82.0398ZM97.4828 69.4375H94.9941C94.9487 69.1155 94.8559 68.8295 94.7157 68.5795C94.5756 68.3258 94.3957 68.1098 94.176 67.9318C93.9563 67.7538 93.7025 67.6174 93.4146 67.5227C93.1305 67.428 92.8218 67.3807 92.4885 67.3807C91.8862 67.3807 91.3616 67.5303 90.9146 67.8295C90.4676 68.125 90.121 68.5568 89.8748 69.125C89.6286 69.6894 89.5055 70.375 89.5055 71.1818C89.5055 72.0114 89.6286 72.7083 89.8748 73.2727C90.1248 73.8371 90.4733 74.2633 90.9203 74.5511C91.3673 74.839 91.8843 74.983 92.4714 74.983C92.801 74.983 93.1059 74.9394 93.3862 74.8523C93.6703 74.7652 93.9222 74.6383 94.1419 74.4716C94.3616 74.3011 94.5434 74.0947 94.6873 73.8523C94.8351 73.6098 94.9373 73.3333 94.9941 73.0227L97.4828 73.0341C97.4184 73.5682 97.2574 74.0833 96.9998 74.5795C96.746 75.072 96.4032 75.5133 95.9714 75.9034C95.5434 76.2898 95.032 76.5966 94.4373 76.8239C93.8464 77.0473 93.1779 77.1591 92.4316 77.1591C91.3938 77.1591 90.4657 76.9242 89.6476 76.4545C88.8332 75.9848 88.1892 75.3049 87.7157 74.4148C87.246 73.5246 87.0112 72.447 87.0112 71.1818C87.0112 69.9129 87.2498 68.8333 87.7271 67.9432C88.2044 67.053 88.8521 66.375 89.6703 65.9091C90.4885 65.4394 91.4089 65.2045 92.4316 65.2045C93.1059 65.2045 93.7309 65.2992 94.3066 65.4886C94.8862 65.678 95.3995 65.9545 95.8464 66.3182C96.2934 66.678 96.657 67.1193 96.9373 67.642C97.2214 68.1648 97.4032 68.7633 97.4828 69.4375ZM100.207 77V65.3636H102.667V70.1648H107.662V65.3636H110.116V77H107.662V72.1932H102.667V77H100.207ZM113.104 77V65.3636H120.945V67.392H115.565V70.1648H120.542V72.1932H115.565V74.9716H120.968V77H113.104ZM130.174 68.7102C130.128 68.2519 129.933 67.8958 129.589 67.642C129.244 67.3883 128.776 67.2614 128.185 67.2614C127.784 67.2614 127.445 67.3182 127.168 67.4318C126.892 67.5417 126.68 67.6951 126.532 67.892C126.388 68.089 126.316 68.3125 126.316 68.5625C126.308 68.7708 126.352 68.9527 126.447 69.108C126.545 69.2633 126.68 69.3977 126.85 69.5114C127.02 69.6212 127.217 69.7178 127.441 69.8011C127.664 69.8807 127.903 69.9489 128.157 70.0057L129.202 70.2557C129.71 70.3693 130.176 70.5208 130.6 70.7102C131.024 70.8996 131.392 71.1326 131.702 71.4091C132.013 71.6856 132.253 72.0114 132.424 72.3864C132.598 72.7614 132.687 73.1913 132.691 73.6761C132.687 74.3883 132.505 75.0057 132.145 75.5284C131.789 76.0473 131.274 76.4508 130.6 76.7386C129.93 77.0227 129.121 77.1648 128.174 77.1648C127.234 77.1648 126.416 77.0208 125.719 76.733C125.026 76.4451 124.484 76.0189 124.094 75.4545C123.708 74.8864 123.505 74.1837 123.486 73.3466H125.867C125.894 73.7367 126.005 74.0625 126.202 74.3239C126.403 74.5814 126.67 74.7765 127.003 74.9091C127.341 75.0379 127.721 75.1023 128.145 75.1023C128.562 75.1023 128.924 75.0417 129.231 74.9205C129.541 74.7992 129.782 74.6307 129.952 74.4148C130.123 74.1989 130.208 73.9508 130.208 73.6705C130.208 73.4091 130.13 73.1894 129.975 73.0114C129.823 72.8333 129.6 72.6818 129.305 72.5568C129.013 72.4318 128.655 72.3182 128.231 72.2159L126.964 71.8977C125.983 71.6591 125.208 71.286 124.64 70.7784C124.072 70.2708 123.789 69.5871 123.793 68.7273C123.789 68.0227 123.977 67.4072 124.356 66.8807C124.738 66.3542 125.263 65.9432 125.93 65.6477C126.596 65.3523 127.354 65.2045 128.202 65.2045C129.066 65.2045 129.82 65.3523 130.464 65.6477C131.111 65.9432 131.615 66.3542 131.975 66.8807C132.335 67.4072 132.52 68.017 132.532 68.7102H130.174ZM134.863 67.392V65.3636H144.419V67.392H140.857V77H138.425V67.392H134.863ZM146.953 77V65.3636H151.544C152.423 65.3636 153.173 65.5208 153.794 65.8352C154.419 66.1458 154.895 66.5871 155.22 67.1591C155.55 67.7273 155.715 68.3958 155.715 69.1648C155.715 69.9375 155.548 70.6023 155.215 71.1591C154.881 71.7121 154.398 72.1364 153.766 72.4318C153.137 72.7273 152.376 72.875 151.482 72.875H148.408V70.8977H151.084C151.554 70.8977 151.944 70.8333 152.254 70.7045C152.565 70.5758 152.796 70.3826 152.948 70.125C153.103 69.8674 153.181 69.5473 153.181 69.1648C153.181 68.7784 153.103 68.4527 152.948 68.1875C152.796 67.9223 152.563 67.7216 152.249 67.5852C151.938 67.4451 151.546 67.375 151.073 67.375H149.413V77H146.953ZM153.237 71.7045L156.129 77H153.413L150.584 71.7045H153.237ZM160.419 77H157.783L161.8 65.3636H164.97L168.981 77H166.345L163.43 68.0227H163.339L160.419 77ZM160.254 72.4261H166.481V74.3466H160.254V72.4261ZM169.477 67.392V65.3636H179.034V67.392H175.471V77H173.039V67.392H169.477ZM184.028 65.3636V77H181.568V65.3636H184.028ZM197.705 71.1818C197.705 72.4508 197.465 73.5303 196.984 74.4205C196.506 75.3106 195.855 75.9905 195.029 76.4602C194.207 76.9261 193.283 77.1591 192.256 77.1591C191.222 77.1591 190.294 76.9242 189.472 76.4545C188.65 75.9848 188.001 75.3049 187.523 74.4148C187.046 73.5246 186.807 72.447 186.807 71.1818C186.807 69.9129 187.046 68.8333 187.523 67.9432C188.001 67.053 188.65 66.375 189.472 65.9091C190.294 65.4394 191.222 65.2045 192.256 65.2045C193.283 65.2045 194.207 65.4394 195.029 65.9091C195.855 66.375 196.506 67.053 196.984 67.9432C197.465 68.8333 197.705 69.9129 197.705 71.1818ZM195.211 71.1818C195.211 70.3598 195.088 69.6667 194.842 69.1023C194.599 68.5379 194.256 68.1098 193.813 67.8182C193.37 67.5265 192.851 67.3807 192.256 67.3807C191.662 67.3807 191.143 67.5265 190.699 67.8182C190.256 68.1098 189.912 68.5379 189.665 69.1023C189.423 69.6667 189.302 70.3598 189.302 71.1818C189.302 72.0038 189.423 72.697 189.665 73.2614C189.912 73.8258 190.256 74.2538 190.699 74.5455C191.143 74.8371 191.662 74.983 192.256 74.983C192.851 74.983 193.37 74.8371 193.813 74.5455C194.256 74.2538 194.599 73.8258 194.842 73.2614C195.088 72.697 195.211 72.0038 195.211 71.1818ZM210.221 65.3636V77H208.096L203.033 69.6761H202.948V77H200.488V65.3636H202.647L207.669 72.6818H207.772V65.3636H210.221Z" fill="black"/>
<defs>
<clipPath id="clip0_2_159">
<rect width="240" height="54" fill="white"/>
</clipPath>
</defs>
</svg>
