<svg width="11" height="11" viewBox="0 0 11 11" fill="none" xmlns="http://www.w3.org/2000/svg">
<path d="M5.9375 4C5.9375 3.88281 5.82031 3.76562 5.70312 3.76562H4.60938V2.67188C4.60938 2.55469 4.49219 2.4375 4.375 2.4375H3.75C3.61328 2.4375 3.51562 2.55469 3.51562 2.67188V3.76562H2.42188C2.28516 3.76562 2.1875 3.88281 2.1875 4V4.625C2.1875 4.76172 2.28516 4.85938 2.42188 4.85938H3.51562V5.95312C3.51562 6.08984 3.61328 6.1875 3.75 6.1875H4.375C4.49219 6.1875 4.60938 6.08984 4.60938 5.95312V4.85938H5.70312C5.82031 4.85938 5.9375 4.76172 5.9375 4.625V4ZM9.86328 9.56641C10.0391 9.39062 10.0391 9.09766 9.86328 8.90234L7.91016 6.94922C7.8125 6.87109 7.69531 6.8125 7.57812 6.8125H7.26562C7.79297 6.12891 8.125 5.26953 8.125 4.3125C8.125 2.08594 6.28906 0.25 4.0625 0.25C1.81641 0.25 0 2.08594 0 4.3125C0 6.55859 1.81641 8.375 4.0625 8.375C5 8.375 5.85938 8.0625 6.5625 7.51562V7.84766C6.5625 7.96484 6.60156 8.08203 6.69922 8.17969L8.63281 10.1133C8.82812 10.3086 9.12109 10.3086 9.29688 10.1133L9.86328 9.56641ZM6.71875 4.3125C6.71875 5.79688 5.52734 6.96875 4.0625 6.96875C2.57812 6.96875 1.40625 5.79688 1.40625 4.3125C1.40625 2.84766 2.57812 1.65625 4.0625 1.65625C5.52734 1.65625 6.71875 2.84766 6.71875 4.3125Z" fill="black"/>
</svg>
