<svg width="9" height="10" viewBox="0 0 9 10" fill="none" xmlns="http://www.w3.org/2000/svg">
<path d="M8.875 6.96875C8.875 6.55859 8.36719 6.34375 8.07422 6.65625L7.35156 7.35938L5.26172 5.25L7.35156 3.16016L8.07422 3.86328C8.36719 4.17578 8.875 3.96094 8.875 3.53125V1.34375C8.875 1.08984 8.66016 0.875 8.40625 0.875H6.21875C5.78906 0.875 5.57422 1.38281 5.88672 1.67578L6.58984 2.39844L4.5 4.48828L2.39062 2.39844L3.11328 1.67578C3.40625 1.38281 3.19141 0.875 2.78125 0.875H0.59375C0.574219 0.875 0.574219 0.875 0.574219 0.875C0.320312 0.875 0.125 1.08984 0.125 1.34375V3.53125C0.125 3.96094 0.613281 4.17578 0.925781 3.86328L1.62891 3.16016L3.71875 5.25L1.62891 7.35938L0.925781 6.63672C0.613281 6.34375 0.125 6.55859 0.125 6.96875V9.15625C0.125 9.17578 0.105469 9.17578 0.105469 9.17578C0.105469 9.42969 0.320312 9.625 0.574219 9.625H0.59375H2.78125C3.19141 9.625 3.40625 9.13672 3.11328 8.82422L2.39062 8.12109L4.5 6.03125L6.58984 8.12109L5.88672 8.82422C5.57422 9.13672 5.78906 9.625 6.21875 9.625H8.40625V9.64453C8.66016 9.64453 8.875 9.42969 8.875 9.17578V9.15625V6.96875Z" fill="black"/>
</svg>
